<svg width="76" height="75" viewBox="0 0 76 75" fill="none" xmlns="http://www.w3.org/2000/svg">
<path d="M42.0493 61.2232C42.1212 53.8803 40.2596 47.9091 37.8916 47.8859C35.5234 47.8629 33.5455 53.7966 33.4738 61.1394C33.402 68.4822 35.2636 74.4536 37.6316 74.4766C39.9997 74.4998 41.9777 68.5661 42.0493 61.2232Z" fill="#44403D"/>
<path d="M28.3151 59.5555C32.3457 53.4173 34.0083 47.3875 32.0287 46.0877C30.0491 44.7878 25.1769 48.7101 21.1465 54.8483C17.1159 60.9866 15.4534 67.0162 17.4329 68.3162C19.4126 69.616 24.2846 65.6938 28.3151 59.5555Z" fill="#44403D"/>
<path d="M17.6467 50.7488C24.3561 47.7645 29.0148 43.591 28.0523 41.4272C27.0899 39.2634 20.8707 39.9286 14.1612 42.9131C7.45186 45.8974 2.79309 50.0709 3.75557 52.2347C4.71804 54.3986 10.9373 53.7333 17.6467 50.7488Z" fill="#44403D"/>
<path d="M27.247 35.3592C27.6073 33.0186 22.0158 30.2155 14.7582 29.0984C7.50044 27.9813 1.32485 28.9733 0.964595 31.3139C0.604339 33.6546 6.19583 36.4574 13.4536 37.5746C20.7112 38.6917 26.8869 37.6997 27.247 35.3592Z" fill="#44403D"/>
<path d="M29.8528 29.7832C31.4211 28.0088 28.232 22.6282 22.7297 17.7653C17.2275 12.9024 11.4957 10.3988 9.9274 12.1733C8.35911 13.9478 11.5482 19.3285 17.0505 24.1914C22.5528 29.0542 28.2846 31.5578 29.8528 29.7832Z" fill="#44403D"/>
<path d="M35.0422 26.5245C37.321 25.8797 37.5474 19.629 35.548 12.5633C33.5486 5.49752 30.0805 0.292335 27.8018 0.937151C25.523 1.58197 25.2966 7.83259 27.296 14.8984C29.2954 21.964 32.7635 27.1693 35.0422 26.5245Z" fill="#44403D"/>
<path d="M49.1334 15.1182C51.2718 8.09328 51.1688 1.83939 48.9032 1.14978C46.6376 0.460143 43.0675 5.59592 40.9291 12.6209C38.7909 19.6458 38.8939 25.8997 41.1595 26.5893C43.4251 27.2789 46.9952 22.1432 49.1334 15.1182Z" fill="#44403D"/>
<path d="M59.2022 24.6104C64.7985 19.856 68.0923 14.5387 66.5588 12.734C65.0256 10.9292 59.2459 13.3203 53.6497 18.0746C48.0534 22.829 44.7598 28.1462 46.2931 29.951C47.8264 31.7558 53.606 29.3648 59.2022 24.6104Z" fill="#44403D"/>
<path d="M62.5315 38.043C69.8099 37.0693 75.4555 34.3771 75.1415 32.0298C74.8275 29.6826 68.6727 28.5691 61.3943 29.5427C54.116 30.5165 48.4703 33.2086 48.7843 35.556C49.0984 37.9032 55.2531 39.0168 62.5315 38.043Z" fill="#44403D"/>
<path d="M71.9207 52.9056C72.9256 50.7613 68.3501 46.4968 61.7008 43.3806C55.0517 40.2645 48.8467 39.4768 47.8418 41.6211C46.8368 43.7656 51.4123 48.0301 58.0616 51.1462C64.7107 54.2622 70.9157 55.0501 71.9207 52.9056Z" fill="#44403D"/>
<path d="M57.9343 68.7278C59.9391 67.4674 58.3957 61.4059 54.4871 55.1894C50.5784 48.973 45.7845 44.9555 43.7797 46.216C41.7749 47.4765 43.3183 53.5379 47.2269 59.7544C51.1355 65.9709 55.9295 69.9885 57.9343 68.7278Z" fill="#44403D"/>
</svg>
