<svg width="320" height="29" viewBox="0 0 320 29" fill="none" xmlns="http://www.w3.org/2000/svg">
<path d="M0 10C0 4.47715 4.47715 0 10 0H41V19C41 24.5228 36.5228 29 31 29H0V10Z" fill="#EBCBBE"/>
<path d="M31.3403 6.32L26.3963 23H23.3003L19.7963 10.376L16.0763 23L13.0043 23.024L8.27631 6.32H11.1803L14.6363 19.904L18.3803 6.32H21.4523L24.9323 19.832L28.4123 6.32H31.3403ZM45.7169 16.064C45.7169 16.56 45.6849 17.008 45.6209 17.408H35.5169C35.5969 18.464 35.9889 19.312 36.6929 19.952C37.3969 20.592 38.2609 20.912 39.2849 20.912C40.7569 20.912 41.7969 20.296 42.4049 19.064H45.3569C44.9569 20.28 44.2289 21.28 43.1729 22.064C42.1329 22.832 40.8369 23.216 39.2849 23.216C38.0209 23.216 36.8849 22.936 35.8769 22.376C34.8849 21.8 34.1009 21 33.5249 19.976C32.9649 18.936 32.6849 17.736 32.6849 16.376C32.6849 15.016 32.9569 13.824 33.5009 12.8C34.0609 11.76 34.8369 10.96 35.8289 10.4C36.8369 9.84 37.9889 9.56 39.2849 9.56C40.5329 9.56 41.6449 9.832 42.6209 10.376C43.5969 10.92 44.3569 11.688 44.9009 12.68C45.4449 13.656 45.7169 14.784 45.7169 16.064ZM42.8609 15.2C42.8449 14.192 42.4849 13.384 41.7809 12.776C41.0769 12.168 40.2049 11.864 39.1649 11.864C38.2209 11.864 37.4129 12.168 36.7409 12.776C36.0689 13.368 35.6689 14.176 35.5409 15.2H42.8609ZM51.1454 5.24V23H48.4094V5.24H51.1454ZM53.8255 16.376C53.8255 15.016 54.0975 13.824 54.6415 12.8C55.2015 11.76 55.9695 10.96 56.9455 10.4C57.9215 9.84 59.0415 9.56 60.3055 9.56C61.9055 9.56 63.2255 9.944 64.2655 10.712C65.3215 11.464 66.0335 12.544 66.4015 13.952H63.4495C63.2095 13.296 62.8255 12.784 62.2975 12.416C61.7695 12.048 61.1055 11.864 60.3055 11.864C59.1855 11.864 58.2895 12.264 57.6175 13.064C56.9615 13.848 56.6335 14.952 56.6335 16.376C56.6335 17.8 56.9615 18.912 57.6175 19.712C58.2895 20.512 59.1855 20.912 60.3055 20.912C61.8895 20.912 62.9375 20.216 63.4495 18.824H66.4015C66.0175 20.168 65.2975 21.24 64.2415 22.04C63.1855 22.824 61.8735 23.216 60.3055 23.216C59.0415 23.216 57.9215 22.936 56.9455 22.376C55.9695 21.8 55.2015 21 54.6415 19.976C54.0975 18.936 53.8255 17.736 53.8255 16.376ZM74.8641 23.216C73.6161 23.216 72.4881 22.936 71.4801 22.376C70.4721 21.8 69.6801 21 69.1041 19.976C68.5281 18.936 68.2401 17.736 68.2401 16.376C68.2401 15.032 68.5361 13.84 69.1281 12.8C69.7201 11.76 70.5281 10.96 71.5521 10.4C72.5761 9.84 73.7201 9.56 74.9841 9.56C76.2481 9.56 77.3921 9.84 78.4161 10.4C79.4401 10.96 80.2481 11.76 80.8401 12.8C81.4321 13.84 81.7281 15.032 81.7281 16.376C81.7281 17.72 81.4241 18.912 80.8161 19.952C80.2081 20.992 79.3761 21.8 78.3201 22.376C77.2801 22.936 76.1281 23.216 74.8641 23.216ZM74.8641 20.84C75.5681 20.84 76.2241 20.672 76.8321 20.336C77.4561 20 77.9601 19.496 78.3441 18.824C78.7281 18.152 78.9201 17.336 78.9201 16.376C78.9201 15.416 78.7361 14.608 78.3681 13.952C78.0001 13.28 77.5121 12.776 76.9041 12.44C76.2961 12.104 75.6401 11.936 74.9361 11.936C74.2321 11.936 73.5761 12.104 72.9681 12.44C72.3761 12.776 71.9041 13.28 71.5521 13.952C71.2001 14.608 71.0241 15.416 71.0241 16.376C71.0241 17.8 71.3841 18.904 72.1041 19.688C72.8401 20.456 73.7601 20.84 74.8641 20.84ZM100.441 9.56C101.481 9.56 102.409 9.776 103.225 10.208C104.057 10.64 104.705 11.28 105.169 12.128C105.649 12.976 105.889 14 105.889 15.2V23H103.177V15.608C103.177 14.424 102.881 13.52 102.289 12.896C101.697 12.256 100.889 11.936 99.8648 11.936C98.8408 11.936 98.0248 12.256 97.4168 12.896C96.8248 13.52 96.5288 14.424 96.5288 15.608V23H93.8168V15.608C93.8168 14.424 93.5208 13.52 92.9288 12.896C92.3368 12.256 91.5288 11.936 90.5048 11.936C89.4808 11.936 88.6648 12.256 88.0568 12.896C87.4648 13.52 87.1688 14.424 87.1688 15.608V23H84.4328V9.776H87.1688V11.288C87.6168 10.744 88.1848 10.32 88.8728 10.016C89.5608 9.712 90.2968 9.56 91.0808 9.56C92.1368 9.56 93.0808 9.784 93.9128 10.232C94.7448 10.68 95.3848 11.328 95.8328 12.176C96.2328 11.376 96.8568 10.744 97.7048 10.28C98.5528 9.8 99.4648 9.56 100.441 9.56ZM121.49 16.064C121.49 16.56 121.458 17.008 121.394 17.408H111.29C111.37 18.464 111.762 19.312 112.466 19.952C113.17 20.592 114.034 20.912 115.058 20.912C116.53 20.912 117.57 20.296 118.178 19.064H121.13C120.73 20.28 120.002 21.28 118.946 22.064C117.906 22.832 116.61 23.216 115.058 23.216C113.794 23.216 112.658 22.936 111.65 22.376C110.658 21.8 109.874 21 109.298 19.976C108.738 18.936 108.458 17.736 108.458 16.376C108.458 15.016 108.73 13.824 109.274 12.8C109.834 11.76 110.61 10.96 111.602 10.4C112.61 9.84 113.762 9.56 115.058 9.56C116.306 9.56 117.418 9.832 118.394 10.376C119.37 10.92 120.13 11.688 120.674 12.68C121.218 13.656 121.49 14.784 121.49 16.064ZM118.634 15.2C118.618 14.192 118.258 13.384 117.554 12.776C116.85 12.168 115.978 11.864 114.938 11.864C113.994 11.864 113.186 12.168 112.514 12.776C111.842 13.368 111.442 14.176 111.314 15.2H118.634ZM133.609 12.008V19.328C133.609 19.824 133.721 20.184 133.945 20.408C134.185 20.616 134.585 20.72 135.145 20.72H136.825V23H134.665C133.433 23 132.489 22.712 131.833 22.136C131.177 21.56 130.849 20.624 130.849 19.328V12.008H129.289V9.776H130.849V6.488H133.609V9.776H136.825V12.008H133.609ZM145.083 23.216C143.835 23.216 142.707 22.936 141.699 22.376C140.691 21.8 139.899 21 139.323 19.976C138.747 18.936 138.459 17.736 138.459 16.376C138.459 15.032 138.755 13.84 139.347 12.8C139.939 11.76 140.747 10.96 141.771 10.4C142.795 9.84 143.939 9.56 145.203 9.56C146.467 9.56 147.611 9.84 148.635 10.4C149.659 10.96 150.467 11.76 151.059 12.8C151.651 13.84 151.947 15.032 151.947 16.376C151.947 17.72 151.643 18.912 151.035 19.952C150.427 20.992 149.595 21.8 148.539 22.376C147.499 22.936 146.347 23.216 145.083 23.216ZM145.083 20.84C145.787 20.84 146.443 20.672 147.051 20.336C147.675 20 148.179 19.496 148.563 18.824C148.947 18.152 149.139 17.336 149.139 16.376C149.139 15.416 148.955 14.608 148.587 13.952C148.219 13.28 147.731 12.776 147.123 12.44C146.515 12.104 145.859 11.936 145.155 11.936C144.451 11.936 143.795 12.104 143.187 12.44C142.595 12.776 142.123 13.28 141.771 13.952C141.419 14.608 141.243 15.416 141.243 16.376C141.243 17.8 141.603 18.904 142.323 19.688C143.059 20.456 143.979 20.84 145.083 20.84ZM159.974 14.624C159.974 12.992 160.35 11.528 161.102 10.232C161.87 8.936 162.902 7.928 164.198 7.208C165.51 6.472 166.942 6.104 168.494 6.104C170.27 6.104 171.846 6.544 173.222 7.424C174.614 8.288 175.622 9.52 176.246 11.12H172.958C172.526 10.24 171.926 9.584 171.158 9.152C170.39 8.72 169.502 8.504 168.494 8.504C167.39 8.504 166.406 8.752 165.542 9.248C164.678 9.744 163.998 10.456 163.502 11.384C163.022 12.312 162.782 13.392 162.782 14.624C162.782 15.856 163.022 16.936 163.502 17.864C163.998 18.792 164.678 19.512 165.542 20.024C166.406 20.52 167.39 20.768 168.494 20.768C169.502 20.768 170.39 20.552 171.158 20.12C171.926 19.688 172.526 19.032 172.958 18.152H176.246C175.622 19.752 174.614 20.984 173.222 21.848C171.846 22.712 170.27 23.144 168.494 23.144C166.926 23.144 165.494 22.784 164.198 22.064C162.902 21.328 161.87 20.312 161.102 19.016C160.35 17.72 159.974 16.256 159.974 14.624ZM186.288 9.56C187.296 9.56 188.192 9.776 188.976 10.208C189.776 10.64 190.4 11.28 190.848 12.128C191.312 12.976 191.544 14 191.544 15.2V23H188.832V15.608C188.832 14.424 188.536 13.52 187.944 12.896C187.352 12.256 186.544 11.936 185.52 11.936C184.496 11.936 183.68 12.256 183.072 12.896C182.48 13.52 182.184 14.424 182.184 15.608V23H179.448V5.24H182.184V11.312C182.648 10.752 183.232 10.32 183.936 10.016C184.656 9.712 185.44 9.56 186.288 9.56ZM196.426 8.024C195.93 8.024 195.514 7.856 195.178 7.52C194.842 7.184 194.674 6.768 194.674 6.272C194.674 5.776 194.842 5.36 195.178 5.024C195.514 4.688 195.93 4.52 196.426 4.52C196.906 4.52 197.314 4.688 197.65 5.024C197.986 5.36 198.154 5.776 198.154 6.272C198.154 6.768 197.986 7.184 197.65 7.52C197.314 7.856 196.906 8.024 196.426 8.024ZM197.77 9.776V23H195.034V9.776H197.77ZM200.451 16.376C200.451 15.016 200.723 13.824 201.267 12.8C201.827 11.76 202.595 10.96 203.571 10.4C204.547 9.84 205.667 9.56 206.931 9.56C208.531 9.56 209.851 9.944 210.891 10.712C211.947 11.464 212.659 12.544 213.027 13.952H210.075C209.835 13.296 209.451 12.784 208.923 12.416C208.395 12.048 207.731 11.864 206.931 11.864C205.811 11.864 204.915 12.264 204.243 13.064C203.587 13.848 203.259 14.952 203.259 16.376C203.259 17.8 203.587 18.912 204.243 19.712C204.915 20.512 205.811 20.912 206.931 20.912C208.515 20.912 209.563 20.216 210.075 18.824H213.027C212.643 20.168 211.923 21.24 210.867 22.04C209.811 22.824 208.499 23.216 206.931 23.216C205.667 23.216 204.547 22.936 203.571 22.376C202.595 21.8 201.827 21 201.267 19.976C200.723 18.936 200.451 17.736 200.451 16.376ZM221.076 14.624C221.076 12.992 221.452 11.528 222.204 10.232C222.972 8.936 224.004 7.928 225.3 7.208C226.612 6.472 228.044 6.104 229.596 6.104C231.372 6.104 232.948 6.544 234.324 7.424C235.716 8.288 236.724 9.52 237.348 11.12H234.06C233.628 10.24 233.028 9.584 232.26 9.152C231.492 8.72 230.604 8.504 229.596 8.504C228.492 8.504 227.508 8.752 226.644 9.248C225.78 9.744 225.1 10.456 224.604 11.384C224.124 12.312 223.884 13.392 223.884 14.624C223.884 15.856 224.124 16.936 224.604 17.864C225.1 18.792 225.78 19.512 226.644 20.024C227.508 20.52 228.492 20.768 229.596 20.768C230.604 20.768 231.492 20.552 232.26 20.12C233.028 19.688 233.628 19.032 234.06 18.152H237.348C236.724 19.752 235.716 20.984 234.324 21.848C232.948 22.712 231.372 23.144 229.596 23.144C228.028 23.144 226.596 22.784 225.3 22.064C224.004 21.328 222.972 20.312 222.204 19.016C221.452 17.72 221.076 16.256 221.076 14.624ZM246.286 23.216C245.038 23.216 243.91 22.936 242.902 22.376C241.894 21.8 241.102 21 240.526 19.976C239.95 18.936 239.662 17.736 239.662 16.376C239.662 15.032 239.958 13.84 240.55 12.8C241.142 11.76 241.95 10.96 242.974 10.4C243.998 9.84 245.142 9.56 246.406 9.56C247.67 9.56 248.814 9.84 249.838 10.4C250.862 10.96 251.67 11.76 252.262 12.8C252.854 13.84 253.15 15.032 253.15 16.376C253.15 17.72 252.846 18.912 252.238 19.952C251.63 20.992 250.798 21.8 249.742 22.376C248.702 22.936 247.55 23.216 246.286 23.216ZM246.286 20.84C246.99 20.84 247.646 20.672 248.254 20.336C248.878 20 249.382 19.496 249.766 18.824C250.15 18.152 250.342 17.336 250.342 16.376C250.342 15.416 250.158 14.608 249.79 13.952C249.422 13.28 248.934 12.776 248.326 12.44C247.718 12.104 247.062 11.936 246.358 11.936C245.654 11.936 244.998 12.104 244.39 12.44C243.798 12.776 243.326 13.28 242.974 13.952C242.622 14.608 242.446 15.416 242.446 16.376C242.446 17.8 242.806 18.904 243.526 19.688C244.262 20.456 245.182 20.84 246.286 20.84ZM267.831 9.776V23H265.095V21.44C264.663 21.984 264.095 22.416 263.391 22.736C262.703 23.04 261.967 23.192 261.183 23.192C260.143 23.192 259.207 22.976 258.375 22.544C257.559 22.112 256.911 21.472 256.431 20.624C255.967 19.776 255.735 18.752 255.735 17.552V9.776H258.447V17.144C258.447 18.328 258.743 19.24 259.335 19.88C259.927 20.504 260.735 20.816 261.759 20.816C262.783 20.816 263.591 20.504 264.183 19.88C264.791 19.24 265.095 18.328 265.095 17.144V9.776H267.831ZM274.633 12.008V19.328C274.633 19.824 274.745 20.184 274.969 20.408C275.209 20.616 275.609 20.72 276.169 20.72H277.849V23H275.689C274.457 23 273.513 22.712 272.857 22.136C272.201 21.56 271.873 20.624 271.873 19.328V12.008H270.313V9.776H271.873V6.488H274.633V9.776H277.849V12.008H274.633ZM292.346 9.776V23H289.61V21.44C289.178 21.984 288.61 22.416 287.906 22.736C287.218 23.04 286.482 23.192 285.698 23.192C284.658 23.192 283.722 22.976 282.89 22.544C282.074 22.112 281.426 21.472 280.946 20.624C280.482 19.776 280.25 18.752 280.25 17.552V9.776H282.962V17.144C282.962 18.328 283.258 19.24 283.85 19.88C284.442 20.504 285.25 20.816 286.274 20.816C287.298 20.816 288.106 20.504 288.698 19.88C289.306 19.24 289.61 18.328 289.61 17.144V9.776H292.346ZM298.692 11.696C299.092 11.024 299.62 10.504 300.276 10.136C300.948 9.752 301.74 9.56 302.652 9.56V12.392H301.956C300.884 12.392 300.068 12.664 299.508 13.208C298.964 13.752 298.692 14.696 298.692 16.04V23H295.956V9.776H298.692V11.696ZM317.287 16.064C317.287 16.56 317.255 17.008 317.191 17.408H307.087C307.167 18.464 307.559 19.312 308.263 19.952C308.967 20.592 309.831 20.912 310.855 20.912C312.327 20.912 313.367 20.296 313.975 19.064H316.927C316.527 20.28 315.799 21.28 314.743 22.064C313.703 22.832 312.407 23.216 310.855 23.216C309.591 23.216 308.455 22.936 307.447 22.376C306.455 21.8 305.671 21 305.095 19.976C304.535 18.936 304.255 17.736 304.255 16.376C304.255 15.016 304.527 13.824 305.071 12.8C305.631 11.76 306.407 10.96 307.399 10.4C308.407 9.84 309.559 9.56 310.855 9.56C312.103 9.56 313.215 9.832 314.191 10.376C315.167 10.92 315.927 11.688 316.471 12.68C317.015 13.656 317.287 14.784 317.287 16.064ZM314.431 15.2C314.415 14.192 314.055 13.384 313.351 12.776C312.647 12.168 311.775 11.864 310.735 11.864C309.791 11.864 308.983 12.168 308.311 12.776C307.639 13.368 307.239 14.176 307.111 15.2H314.431Z" fill="#44403D"/>
</svg>
