<svg width="193" height="30" viewBox="0 0 193 30" fill="none" xmlns="http://www.w3.org/2000/svg">
<path d="M0 10C0 4.47715 4.47715 0 10 0H41V19C41 24.5228 36.5228 29 31 29H0V10Z" fill="#EBCBBE"/>
<path d="M16.671 23L12.831 16.328H10.743V23H8.00703V6.32H13.767C15.047 6.32 16.127 6.544 17.007 6.992C17.903 7.44 18.567 8.04 18.999 8.792C19.447 9.544 19.671 10.384 19.671 11.312C19.671 12.4 19.351 13.392 18.711 14.288C18.087 15.168 17.119 15.768 15.807 16.088L19.935 23H16.671ZM10.743 14.144H13.767C14.791 14.144 15.559 13.888 16.071 13.376C16.599 12.864 16.863 12.176 16.863 11.312C16.863 10.448 16.607 9.776 16.095 9.296C15.583 8.8 14.807 8.552 13.767 8.552H10.743V14.144ZM35.2911 16.064C35.2911 16.56 35.2591 17.008 35.1951 17.408H25.0911C25.1711 18.464 25.5631 19.312 26.2671 19.952C26.9711 20.592 27.8351 20.912 28.8591 20.912C30.3311 20.912 31.3711 20.296 31.9791 19.064H34.9311C34.5311 20.28 33.8031 21.28 32.7471 22.064C31.7071 22.832 30.4111 23.216 28.8591 23.216C27.5951 23.216 26.4591 22.936 25.4511 22.376C24.4591 21.8 23.6751 21 23.0991 19.976C22.5391 18.936 22.2591 17.736 22.2591 16.376C22.2591 15.016 22.5311 13.824 23.0751 12.8C23.6351 11.76 24.4111 10.96 25.4031 10.4C26.4111 9.84 27.5631 9.56 28.8591 9.56C30.1071 9.56 31.2191 9.832 32.1951 10.376C33.1711 10.92 33.9311 11.688 34.4751 12.68C35.0191 13.656 35.2911 14.784 35.2911 16.064ZM32.4351 15.2C32.4191 14.192 32.0591 13.384 31.3551 12.776C30.6511 12.168 29.7791 11.864 28.7391 11.864C27.7951 11.864 26.9871 12.168 26.3151 12.776C25.6431 13.368 25.2431 14.176 25.1151 15.2H32.4351ZM41.1756 12.008V19.328C41.1756 19.824 41.2876 20.184 41.5116 20.408C41.7516 20.616 42.1516 20.72 42.7116 20.72H44.3916V23H42.2316C40.9996 23 40.0556 22.712 39.3996 22.136C38.7436 21.56 38.4156 20.624 38.4156 19.328V12.008H36.8556V9.776H38.4156V6.488H41.1756V9.776H44.3916V12.008H41.1756ZM58.8893 9.776V23H56.1533V21.44C55.7213 21.984 55.1533 22.416 54.4493 22.736C53.7613 23.04 53.0253 23.192 52.2413 23.192C51.2013 23.192 50.2653 22.976 49.4333 22.544C48.6173 22.112 47.9693 21.472 47.4893 20.624C47.0253 19.776 46.7933 18.752 46.7933 17.552V9.776H49.5053V17.144C49.5053 18.328 49.8013 19.24 50.3933 19.88C50.9853 20.504 51.7933 20.816 52.8173 20.816C53.8413 20.816 54.6493 20.504 55.2413 19.88C55.8493 19.24 56.1533 18.328 56.1533 17.144V9.776H58.8893ZM65.2352 11.696C65.6352 11.024 66.1632 10.504 66.8192 10.136C67.4912 9.752 68.2832 9.56 69.1952 9.56V12.392H68.4992C67.4272 12.392 66.6112 12.664 66.0512 13.208C65.5072 13.752 65.2352 14.696 65.2352 16.04V23H62.4992V9.776H65.2352V11.696ZM78.3822 9.56C79.4222 9.56 80.3502 9.776 81.1662 10.208C81.9982 10.64 82.6462 11.28 83.1102 12.128C83.5742 12.976 83.8062 14 83.8062 15.2V23H81.0942V15.608C81.0942 14.424 80.7982 13.52 80.2062 12.896C79.6142 12.256 78.8062 11.936 77.7822 11.936C76.7582 11.936 75.9422 12.256 75.3342 12.896C74.7422 13.52 74.4462 14.424 74.4462 15.608V23H71.7102V9.776H74.4462V11.288C74.8942 10.744 75.4622 10.32 76.1502 10.016C76.8542 9.712 77.5982 9.56 78.3822 9.56ZM96.7225 12.008V19.328C96.7225 19.824 96.8345 20.184 97.0585 20.408C97.2985 20.616 97.6985 20.72 98.2585 20.72H99.9385V23H97.7785C96.5465 23 95.6025 22.712 94.9465 22.136C94.2905 21.56 93.9625 20.624 93.9625 19.328V12.008H92.4025V9.776H93.9625V6.488H96.7225V9.776H99.9385V12.008H96.7225ZM108.196 23.216C106.948 23.216 105.82 22.936 104.812 22.376C103.804 21.8 103.012 21 102.436 19.976C101.86 18.936 101.572 17.736 101.572 16.376C101.572 15.032 101.868 13.84 102.46 12.8C103.052 11.76 103.86 10.96 104.884 10.4C105.908 9.84 107.052 9.56 108.316 9.56C109.58 9.56 110.724 9.84 111.748 10.4C112.772 10.96 113.58 11.76 114.172 12.8C114.764 13.84 115.06 15.032 115.06 16.376C115.06 17.72 114.756 18.912 114.148 19.952C113.54 20.992 112.708 21.8 111.652 22.376C110.612 22.936 109.46 23.216 108.196 23.216ZM108.196 20.84C108.9 20.84 109.556 20.672 110.164 20.336C110.788 20 111.292 19.496 111.676 18.824C112.06 18.152 112.252 17.336 112.252 16.376C112.252 15.416 112.068 14.608 111.7 13.952C111.332 13.28 110.844 12.776 110.236 12.44C109.628 12.104 108.972 11.936 108.268 11.936C107.564 11.936 106.908 12.104 106.3 12.44C105.708 12.776 105.236 13.28 104.884 13.952C104.532 14.608 104.356 15.416 104.356 16.376C104.356 17.8 104.716 18.904 105.436 19.688C106.172 20.456 107.092 20.84 108.196 20.84ZM135.663 11.288C135.663 12.136 135.463 12.936 135.063 13.688C134.663 14.44 134.023 15.056 133.143 15.536C132.263 16 131.135 16.232 129.759 16.232H126.735V23H123.999V6.32H129.759C131.039 6.32 132.119 6.544 132.999 6.992C133.895 7.424 134.559 8.016 134.991 8.768C135.439 9.52 135.663 10.36 135.663 11.288ZM129.759 14C130.799 14 131.575 13.768 132.087 13.304C132.599 12.824 132.855 12.152 132.855 11.288C132.855 9.464 131.823 8.552 129.759 8.552H126.735V14H129.759ZM144.009 23.216C142.761 23.216 141.633 22.936 140.625 22.376C139.617 21.8 138.825 21 138.249 19.976C137.673 18.936 137.385 17.736 137.385 16.376C137.385 15.032 137.681 13.84 138.273 12.8C138.865 11.76 139.673 10.96 140.697 10.4C141.721 9.84 142.865 9.56 144.129 9.56C145.393 9.56 146.537 9.84 147.561 10.4C148.585 10.96 149.393 11.76 149.985 12.8C150.577 13.84 150.873 15.032 150.873 16.376C150.873 17.72 150.569 18.912 149.961 19.952C149.353 20.992 148.521 21.8 147.465 22.376C146.425 22.936 145.273 23.216 144.009 23.216ZM144.009 20.84C144.713 20.84 145.369 20.672 145.977 20.336C146.601 20 147.105 19.496 147.489 18.824C147.873 18.152 148.065 17.336 148.065 16.376C148.065 15.416 147.881 14.608 147.513 13.952C147.145 13.28 146.657 12.776 146.049 12.44C145.441 12.104 144.785 11.936 144.081 11.936C143.377 11.936 142.721 12.104 142.113 12.44C141.521 12.776 141.049 13.28 140.697 13.952C140.345 14.608 140.169 15.416 140.169 16.376C140.169 17.8 140.529 18.904 141.249 19.688C141.985 20.456 142.905 20.84 144.009 20.84ZM156.313 5.24V23H153.577V5.24H156.313ZM161.297 8.024C160.801 8.024 160.385 7.856 160.049 7.52C159.713 7.184 159.545 6.768 159.545 6.272C159.545 5.776 159.713 5.36 160.049 5.024C160.385 4.688 160.801 4.52 161.297 4.52C161.777 4.52 162.185 4.688 162.521 5.024C162.857 5.36 163.025 5.776 163.025 6.272C163.025 6.768 162.857 7.184 162.521 7.52C162.185 7.856 161.777 8.024 161.297 8.024ZM162.641 9.776V23H159.905V9.776H162.641ZM165.322 16.376C165.322 15.016 165.594 13.824 166.138 12.8C166.698 11.76 167.466 10.96 168.442 10.4C169.418 9.84 170.538 9.56 171.802 9.56C173.402 9.56 174.722 9.944 175.762 10.712C176.818 11.464 177.53 12.544 177.898 13.952H174.946C174.706 13.296 174.322 12.784 173.794 12.416C173.266 12.048 172.602 11.864 171.802 11.864C170.682 11.864 169.786 12.264 169.114 13.064C168.458 13.848 168.13 14.952 168.13 16.376C168.13 17.8 168.458 18.912 169.114 19.712C169.786 20.512 170.682 20.912 171.802 20.912C173.386 20.912 174.434 20.216 174.946 18.824H177.898C177.514 20.168 176.794 21.24 175.738 22.04C174.682 22.824 173.37 23.216 171.802 23.216C170.538 23.216 169.418 22.936 168.442 22.376C167.466 21.8 166.698 21 166.138 19.976C165.594 18.936 165.322 17.736 165.322 16.376ZM192.528 9.776L184.416 29.216H181.584L184.272 22.784L179.064 9.776H182.112L185.832 19.856L189.696 9.776H192.528Z" fill="#44403D"/>
</svg>
