<svg width="160" height="30" viewBox="0 0 160 30" fill="none" xmlns="http://www.w3.org/2000/svg">
<path d="M0 10C0 4.47715 4.47715 0 10 0H41V19C41 24.5228 36.5228 29 31 29H0V10Z" fill="#EBCBBE"/>
<mask id="path-2-outside-1_46_20" maskUnits="userSpaceOnUse" x="6" y="3" width="156" height="28" fill="black">
<rect fill="white" x="6" y="3" width="156" height="28"/>
<path d="M17.7527 6.32V8.552H10.6727V13.472H16.1927V15.704H10.6727V23H7.93672V6.32H17.7527ZM23.0243 11.696C23.4243 11.024 23.9523 10.504 24.6083 10.136C25.2803 9.752 26.0723 9.56 26.9843 9.56V12.392H26.2883C25.2163 12.392 24.4003 12.664 23.8403 13.208C23.2963 13.752 23.0243 14.696 23.0243 16.04V23H20.2883V9.776H23.0243V11.696ZM41.6192 16.064C41.6192 16.56 41.5872 17.008 41.5232 17.408H31.4192C31.4992 18.464 31.8912 19.312 32.5952 19.952C33.2992 20.592 34.1632 20.912 35.1872 20.912C36.6592 20.912 37.6992 20.296 38.3072 19.064H41.2592C40.8592 20.28 40.1312 21.28 39.0752 22.064C38.0352 22.832 36.7392 23.216 35.1872 23.216C33.9232 23.216 32.7872 22.936 31.7792 22.376C30.7872 21.8 30.0032 21 29.4272 19.976C28.8672 18.936 28.5872 17.736 28.5872 16.376C28.5872 15.016 28.8592 13.824 29.4032 12.8C29.9632 11.76 30.7392 10.96 31.7312 10.4C32.7392 9.84 33.8912 9.56 35.1872 9.56C36.4352 9.56 37.5472 9.832 38.5232 10.376C39.4992 10.92 40.2592 11.688 40.8032 12.68C41.3472 13.656 41.6192 14.784 41.6192 16.064ZM38.7632 15.2C38.7472 14.192 38.3872 13.384 37.6832 12.776C36.9792 12.168 36.1072 11.864 35.0672 11.864C34.1232 11.864 33.3152 12.168 32.6432 12.776C31.9712 13.368 31.5712 14.176 31.4432 15.2H38.7632ZM56.4317 16.064C56.4317 16.56 56.3997 17.008 56.3357 17.408H46.2317C46.3117 18.464 46.7037 19.312 47.4077 19.952C48.1117 20.592 48.9757 20.912 49.9997 20.912C51.4717 20.912 52.5117 20.296 53.1197 19.064H56.0717C55.6717 20.28 54.9437 21.28 53.8877 22.064C52.8477 22.832 51.5517 23.216 49.9997 23.216C48.7357 23.216 47.5997 22.936 46.5917 22.376C45.5997 21.8 44.8157 21 44.2397 19.976C43.6797 18.936 43.3997 17.736 43.3997 16.376C43.3997 15.016 43.6717 13.824 44.2157 12.8C44.7757 11.76 45.5517 10.96 46.5437 10.4C47.5517 9.84 48.7037 9.56 49.9997 9.56C51.2477 9.56 52.3597 9.832 53.3357 10.376C54.3117 10.92 55.0717 11.688 55.6157 12.68C56.1597 13.656 56.4317 14.784 56.4317 16.064ZM53.5757 15.2C53.5597 14.192 53.1997 13.384 52.4957 12.776C51.7917 12.168 50.9197 11.864 49.8797 11.864C48.9357 11.864 48.1277 12.168 47.4557 12.776C46.7837 13.368 46.3837 14.176 46.2557 15.2H53.5757ZM70.8066 6.32C72.5826 6.32 74.1346 6.664 75.4626 7.352C76.8066 8.024 77.8386 9 78.5586 10.28C79.2946 11.544 79.6626 13.024 79.6626 14.72C79.6626 16.416 79.2946 17.888 78.5586 19.136C77.8386 20.384 76.8066 21.344 75.4626 22.016C74.1346 22.672 72.5826 23 70.8066 23H65.3586V6.32H70.8066ZM70.8066 20.768C72.7586 20.768 74.2546 20.24 75.2946 19.184C76.3346 18.128 76.8546 16.64 76.8546 14.72C76.8546 12.784 76.3346 11.272 75.2946 10.184C74.2546 9.096 72.7586 8.552 70.8066 8.552H68.0946V20.768H70.8066ZM94.4942 16.064C94.4942 16.56 94.4622 17.008 94.3982 17.408H84.2942C84.3742 18.464 84.7662 19.312 85.4702 19.952C86.1742 20.592 87.0382 20.912 88.0622 20.912C89.5342 20.912 90.5742 20.296 91.1822 19.064H94.1342C93.7342 20.28 93.0062 21.28 91.9502 22.064C90.9102 22.832 89.6142 23.216 88.0622 23.216C86.7982 23.216 85.6622 22.936 84.6542 22.376C83.6622 21.8 82.8782 21 82.3022 19.976C81.7422 18.936 81.4622 17.736 81.4622 16.376C81.4622 15.016 81.7342 13.824 82.2782 12.8C82.8382 11.76 83.6142 10.96 84.6062 10.4C85.6142 9.84 86.7662 9.56 88.0622 9.56C89.3102 9.56 90.4222 9.832 91.3982 10.376C92.3742 10.92 93.1342 11.688 93.6782 12.68C94.2222 13.656 94.4942 14.784 94.4942 16.064ZM91.6382 15.2C91.6222 14.192 91.2622 13.384 90.5582 12.776C89.8542 12.168 88.9822 11.864 87.9422 11.864C86.9982 11.864 86.1902 12.168 85.5182 12.776C84.8462 13.368 84.4462 14.176 84.3182 15.2H91.6382ZM99.9227 5.24V23H97.1867V5.24H99.9227ZM104.907 8.024C104.411 8.024 103.995 7.856 103.659 7.52C103.323 7.184 103.155 6.768 103.155 6.272C103.155 5.776 103.323 5.36 103.659 5.024C103.995 4.688 104.411 4.52 104.907 4.52C105.387 4.52 105.795 4.688 106.131 5.024C106.467 5.36 106.635 5.776 106.635 6.272C106.635 6.768 106.467 7.184 106.131 7.52C105.795 7.856 105.387 8.024 104.907 8.024ZM106.251 9.776V23H103.515V9.776H106.251ZM114.955 20.552L118.699 9.776H121.603L116.563 23H113.299L108.283 9.776H111.211L114.955 20.552ZM135.791 16.064C135.791 16.56 135.759 17.008 135.695 17.408H125.591C125.671 18.464 126.063 19.312 126.767 19.952C127.471 20.592 128.335 20.912 129.359 20.912C130.831 20.912 131.871 20.296 132.479 19.064H135.431C135.031 20.28 134.303 21.28 133.247 22.064C132.207 22.832 130.911 23.216 129.359 23.216C128.095 23.216 126.959 22.936 125.951 22.376C124.959 21.8 124.175 21 123.599 19.976C123.039 18.936 122.759 17.736 122.759 16.376C122.759 15.016 123.031 13.824 123.575 12.8C124.135 11.76 124.911 10.96 125.903 10.4C126.911 9.84 128.063 9.56 129.359 9.56C130.607 9.56 131.719 9.832 132.695 10.376C133.671 10.92 134.431 11.688 134.975 12.68C135.519 13.656 135.791 14.784 135.791 16.064ZM132.935 15.2C132.919 14.192 132.559 13.384 131.855 12.776C131.151 12.168 130.279 11.864 129.239 11.864C128.295 11.864 127.487 12.168 126.815 12.776C126.143 13.368 125.743 14.176 125.615 15.2H132.935ZM141.22 11.696C141.62 11.024 142.148 10.504 142.804 10.136C143.476 9.752 144.268 9.56 145.18 9.56V12.392H144.484C143.412 12.392 142.596 12.664 142.036 13.208C141.492 13.752 141.22 14.696 141.22 16.04V23H138.484V9.776H141.22V11.696ZM159.599 9.776L151.487 29.216H148.655L151.343 22.784L146.135 9.776H149.183L152.903 19.856L156.767 9.776H159.599Z"/>
</mask>
<path d="M17.7527 6.32H18.7527V5.32H17.7527V6.32ZM17.7527 8.552V9.552H18.7527V8.552H17.7527ZM10.6727 8.552V7.552H9.67272V8.552H10.6727ZM10.6727 13.472H9.67272V14.472H10.6727V13.472ZM16.1927 13.472H17.1927V12.472H16.1927V13.472ZM16.1927 15.704V16.704H17.1927V15.704H16.1927ZM10.6727 15.704V14.704H9.67272V15.704H10.6727ZM10.6727 23V24H11.6727V23H10.6727ZM7.93672 23H6.93672V24H7.93672V23ZM7.93672 6.32V5.32H6.93672V6.32H7.93672ZM16.7527 6.32V8.552H18.7527V6.32H16.7527ZM17.7527 7.552H10.6727V9.552H17.7527V7.552ZM9.67272 8.552V13.472H11.6727V8.552H9.67272ZM10.6727 14.472H16.1927V12.472H10.6727V14.472ZM15.1927 13.472V15.704H17.1927V13.472H15.1927ZM16.1927 14.704H10.6727V16.704H16.1927V14.704ZM9.67272 15.704V23H11.6727V15.704H9.67272ZM10.6727 22H7.93672V24H10.6727V22ZM8.93672 23V6.32H6.93672V23H8.93672ZM7.93672 7.32H17.7527V5.32H7.93672V7.32ZM23.0243 11.696H22.0243V15.3311L23.8836 12.2075L23.0243 11.696ZM24.6083 10.136L25.0975 11.0082L25.1044 11.0042L24.6083 10.136ZM26.9843 9.56H27.9843V8.56H26.9843V9.56ZM26.9843 12.392V13.392H27.9843V12.392H26.9843ZM23.8403 13.208L23.1435 12.4907L23.1383 12.4958L23.1332 12.5009L23.8403 13.208ZM23.0243 23V24H24.0243V23H23.0243ZM20.2883 23H19.2883V24H20.2883V23ZM20.2883 9.776V8.776H19.2883V9.776H20.2883ZM23.0243 9.776H24.0243V8.776H23.0243V9.776ZM23.8836 12.2075C24.1977 11.6798 24.6006 11.2869 25.0975 11.0081L24.119 9.26386C23.304 9.72106 22.6509 10.3682 22.165 11.1845L23.8836 12.2075ZM25.1044 11.0042C25.6004 10.7209 26.2151 10.56 26.9843 10.56V8.56C25.9295 8.56 24.9602 8.78315 24.1121 9.26776L25.1044 11.0042ZM25.9843 9.56V12.392H27.9843V9.56H25.9843ZM26.9843 11.392H26.2883V13.392H26.9843V11.392ZM26.2883 11.392C25.0549 11.392 23.9507 11.7066 23.1435 12.4907L24.5371 13.9253C24.8499 13.6214 25.3777 13.392 26.2883 13.392V11.392ZM23.1332 12.5009C22.3029 13.3312 22.0243 14.6142 22.0243 16.04H24.0243C24.0243 14.7778 24.2897 14.1728 24.5474 13.9151L23.1332 12.5009ZM22.0243 16.04V23H24.0243V16.04H22.0243ZM23.0243 22H20.2883V24H23.0243V22ZM21.2883 23V9.776H19.2883V23H21.2883ZM20.2883 10.776H23.0243V8.776H20.2883V10.776ZM22.0243 9.776V11.696H24.0243V9.776H22.0243ZM41.5232 17.408V18.408H42.3759L42.5107 17.566L41.5232 17.408ZM31.4192 17.408V16.408H30.3406L30.4221 17.4835L31.4192 17.408ZM32.5952 19.952L31.9225 20.6919L31.9225 20.6919L32.5952 19.952ZM38.3072 19.064V18.064H37.6856L37.4105 18.6215L38.3072 19.064ZM41.2592 19.064L42.2091 19.3765L42.6409 18.064H41.2592V19.064ZM39.0752 22.064L39.6693 22.8684L39.6713 22.8669L39.0752 22.064ZM31.7792 22.376L31.2771 23.2408L31.2853 23.2456L31.2936 23.2502L31.7792 22.376ZM29.4272 19.976L28.5467 20.4501L28.5511 20.4582L28.5556 20.4663L29.4272 19.976ZM29.4032 12.8L28.5227 12.3259L28.5201 12.3308L29.4032 12.8ZM31.7312 10.4L31.2456 9.52582L31.2396 9.52917L31.7312 10.4ZM38.5232 10.376L39.0101 9.50252L39.0101 9.50252L38.5232 10.376ZM40.8032 12.68L39.9264 13.1608L39.9297 13.1669L40.8032 12.68ZM38.7632 15.2V16.2H39.7792L39.7631 15.1841L38.7632 15.2ZM37.6832 12.776L38.3368 12.0192L38.3368 12.0192L37.6832 12.776ZM32.6432 12.776L33.3043 13.5264L33.3141 13.5175L32.6432 12.776ZM31.4432 15.2L30.4509 15.076L30.3104 16.2H31.4432V15.2ZM40.6192 16.064C40.6192 16.5184 40.5898 16.9123 40.5358 17.25L42.5107 17.566C42.5846 17.1037 42.6192 16.6016 42.6192 16.064H40.6192ZM41.5232 16.408H31.4192V18.408H41.5232V16.408ZM30.4221 17.4835C30.519 18.763 31.0075 19.8601 31.9225 20.6919L33.2679 19.2121C32.775 18.7639 32.4794 18.165 32.4164 17.3325L30.4221 17.4835ZM31.9225 20.6919C32.8254 21.5127 33.9351 21.912 35.1872 21.912V19.912C34.3913 19.912 33.7731 19.6713 33.2679 19.2121L31.9225 20.6919ZM35.1872 21.912C36.0635 21.912 36.8761 21.7278 37.5808 21.3104C38.2897 20.8906 38.8262 20.272 39.204 19.5065L37.4105 18.6215C37.1802 19.088 36.8928 19.3934 36.5616 19.5896C36.2263 19.7882 35.7829 19.912 35.1872 19.912V21.912ZM38.3072 20.064H41.2592V18.064H38.3072V20.064ZM40.3093 18.7515C39.9757 19.7658 39.3742 20.5965 38.4791 21.2611L39.6713 22.8669C40.8882 21.9635 41.7428 20.7942 42.2091 19.3765L40.3093 18.7515ZM38.4812 21.2596C37.6455 21.8767 36.5694 22.216 35.1872 22.216V24.216C36.9091 24.216 38.4249 23.7873 39.6693 22.8684L38.4812 21.2596ZM35.1872 22.216C34.0764 22.216 33.1103 21.9715 32.2649 21.5018L31.2936 23.2502C32.4641 23.9005 33.77 24.216 35.1872 24.216V22.216ZM32.2814 21.5112C31.4476 21.0271 30.7895 20.3581 30.2988 19.4857L28.5556 20.4663C29.2169 21.6419 30.1268 22.5729 31.2771 23.2408L32.2814 21.5112ZM30.3077 19.5019C29.8373 18.6283 29.5872 17.5958 29.5872 16.376H27.5872C27.5872 17.8762 27.8971 19.2437 28.5467 20.4501L30.3077 19.5019ZM29.5872 16.376C29.5872 15.1513 29.8314 14.1256 30.2863 13.2692L28.5201 12.3308C27.8871 13.5224 27.5872 14.8807 27.5872 16.376H29.5872ZM30.2837 13.2741C30.7576 12.394 31.4016 11.7344 32.2228 11.2708L31.2396 9.52917C30.0769 10.1856 29.1688 11.126 28.5227 12.3259L30.2837 13.2741ZM32.2169 11.2742C33.0586 10.8065 34.0397 10.56 35.1872 10.56V8.56C33.7427 8.56 32.4198 8.87349 31.2456 9.52584L32.2169 11.2742ZM35.1872 10.56C36.2851 10.56 37.226 10.7978 38.0364 11.2495L39.0101 9.50252C37.8684 8.86619 36.5853 8.56 35.1872 8.56V10.56ZM38.0364 11.2495C38.8459 11.7007 39.4717 12.3316 39.9264 13.1608L41.68 12.1992C41.0468 11.0444 40.1526 10.1393 39.0101 9.50252L38.0364 11.2495ZM39.9297 13.1669C40.3793 13.9735 40.6192 14.9293 40.6192 16.064H42.6192C42.6192 14.6387 42.3151 13.3385 41.6767 12.1931L39.9297 13.1669ZM39.7631 15.1841C39.743 13.9179 39.2761 12.8304 38.3368 12.0192L37.0296 13.5328C37.4983 13.9376 37.7514 14.4661 37.7633 15.2159L39.7631 15.1841ZM38.3368 12.0192C37.4295 11.2356 36.3169 10.864 35.0672 10.864V12.864C35.8975 12.864 36.5289 13.1004 37.0296 13.5328L38.3368 12.0192ZM35.0672 10.864C33.8866 10.864 32.8364 11.2527 31.9723 12.0345L33.3141 13.5175C33.794 13.0833 34.3598 12.864 35.0672 12.864V10.864ZM31.9822 12.0256C31.0994 12.8034 30.6043 13.849 30.4509 15.076L32.4355 15.324C32.5381 14.503 32.8431 13.9326 33.3042 13.5264L31.9822 12.0256ZM31.4432 16.2H38.7632V14.2H31.4432V16.2ZM56.3357 17.408V18.408H57.1884L57.3232 17.566L56.3357 17.408ZM46.2317 17.408V16.408H45.1531L45.2346 17.4835L46.2317 17.408ZM47.4077 19.952L46.735 20.6919L46.735 20.6919L47.4077 19.952ZM53.1197 19.064V18.064H52.4981L52.223 18.6215L53.1197 19.064ZM56.0717 19.064L57.0216 19.3765L57.4534 18.064H56.0717V19.064ZM53.8877 22.064L54.4818 22.8684L54.4838 22.8669L53.8877 22.064ZM46.5917 22.376L46.0896 23.2408L46.0978 23.2456L46.1061 23.2502L46.5917 22.376ZM44.2397 19.976L43.3592 20.4501L43.3636 20.4582L43.3681 20.4663L44.2397 19.976ZM44.2157 12.8L43.3352 12.3259L43.3326 12.3308L44.2157 12.8ZM46.5437 10.4L46.0581 9.52582L46.0521 9.52917L46.5437 10.4ZM53.3357 10.376L53.8226 9.50252L53.8226 9.50252L53.3357 10.376ZM55.6157 12.68L54.7389 13.1608L54.7422 13.1669L55.6157 12.68ZM53.5757 15.2V16.2H54.5917L54.5756 15.1841L53.5757 15.2ZM52.4957 12.776L53.1493 12.0192L53.1493 12.0192L52.4957 12.776ZM47.4557 12.776L48.1168 13.5264L48.1266 13.5175L47.4557 12.776ZM46.2557 15.2L45.2634 15.076L45.1229 16.2H46.2557V15.2ZM55.4317 16.064C55.4317 16.5184 55.4023 16.9123 55.3483 17.25L57.3232 17.566C57.3971 17.1037 57.4317 16.6016 57.4317 16.064H55.4317ZM56.3357 16.408H46.2317V18.408H56.3357V16.408ZM45.2346 17.4835C45.3315 18.763 45.82 19.8601 46.735 20.6919L48.0804 19.2121C47.5875 18.7639 47.2919 18.165 47.2289 17.3325L45.2346 17.4835ZM46.735 20.6919C47.6379 21.5127 48.7476 21.912 49.9997 21.912V19.912C49.2038 19.912 48.5856 19.6713 48.0804 19.2121L46.735 20.6919ZM49.9997 21.912C50.876 21.912 51.6886 21.7278 52.3933 21.3104C53.1022 20.8906 53.6387 20.272 54.0165 19.5065L52.223 18.6215C51.9927 19.088 51.7053 19.3934 51.3741 19.5896C51.0388 19.7882 50.5954 19.912 49.9997 19.912V21.912ZM53.1197 20.064H56.0717V18.064H53.1197V20.064ZM55.1218 18.7515C54.7882 19.7658 54.1867 20.5965 53.2916 21.2611L54.4838 22.8669C55.7007 21.9635 56.5553 20.7942 57.0216 19.3765L55.1218 18.7515ZM53.2937 21.2596C52.458 21.8767 51.3819 22.216 49.9997 22.216V24.216C51.7216 24.216 53.2374 23.7873 54.4818 22.8684L53.2937 21.2596ZM49.9997 22.216C48.8889 22.216 47.9228 21.9715 47.0774 21.5018L46.1061 23.2502C47.2766 23.9005 48.5825 24.216 49.9997 24.216V22.216ZM47.0939 21.5112C46.2601 21.0271 45.602 20.3581 45.1113 19.4857L43.3681 20.4663C44.0294 21.6419 44.9393 22.5729 46.0896 23.2408L47.0939 21.5112ZM45.1202 19.5019C44.6498 18.6283 44.3997 17.5958 44.3997 16.376H42.3997C42.3997 17.8762 42.7096 19.2437 43.3592 20.4501L45.1202 19.5019ZM44.3997 16.376C44.3997 15.1513 44.6439 14.1256 45.0988 13.2692L43.3326 12.3308C42.6996 13.5224 42.3997 14.8807 42.3997 16.376H44.3997ZM45.0962 13.2741C45.5701 12.394 46.2141 11.7344 47.0353 11.2708L46.0521 9.52917C44.8894 10.1856 43.9813 11.126 43.3352 12.3259L45.0962 13.2741ZM47.0294 11.2742C47.8711 10.8065 48.8522 10.56 49.9997 10.56V8.56C48.5552 8.56 47.2323 8.87349 46.0581 9.52584L47.0294 11.2742ZM49.9997 10.56C51.0976 10.56 52.0385 10.7978 52.8489 11.2495L53.8226 9.50252C52.6809 8.86619 51.3978 8.56 49.9997 8.56V10.56ZM52.8489 11.2495C53.6584 11.7007 54.2842 12.3316 54.7389 13.1608L56.4925 12.1992C55.8593 11.0444 54.9651 10.1393 53.8226 9.50252L52.8489 11.2495ZM54.7422 13.1669C55.1918 13.9735 55.4317 14.9293 55.4317 16.064H57.4317C57.4317 14.6387 57.1276 13.3385 56.4892 12.1931L54.7422 13.1669ZM54.5756 15.1841C54.5555 13.9179 54.0886 12.8304 53.1493 12.0192L51.8421 13.5328C52.3108 13.9376 52.5639 14.4661 52.5758 15.2159L54.5756 15.1841ZM53.1493 12.0192C52.242 11.2356 51.1294 10.864 49.8797 10.864V12.864C50.71 12.864 51.3414 13.1004 51.8421 13.5328L53.1493 12.0192ZM49.8797 10.864C48.6991 10.864 47.6489 11.2527 46.7848 12.0345L48.1266 13.5175C48.6065 13.0833 49.1723 12.864 49.8797 12.864V10.864ZM46.7947 12.0256C45.9119 12.8034 45.4168 13.849 45.2634 15.076L47.248 15.324C47.3506 14.503 47.6556 13.9326 48.1167 13.5264L46.7947 12.0256ZM46.2557 16.2H53.5757V14.2H46.2557V16.2ZM75.4626 7.352L75.0026 8.23992L75.009 8.24322L75.0154 8.24643L75.4626 7.352ZM78.5586 10.28L77.687 10.7703L77.6907 10.7768L77.6944 10.7832L78.5586 10.28ZM78.5586 19.136L77.6972 18.628L77.6924 18.6363L78.5586 19.136ZM75.4626 22.016L75.9055 22.9126L75.9098 22.9104L75.4626 22.016ZM65.3586 23H64.3586V24H65.3586V23ZM65.3586 6.32V5.32H64.3586V6.32H65.3586ZM75.2946 19.184L74.5821 18.4823L74.5821 18.4823L75.2946 19.184ZM68.0946 8.552V7.552H67.0946V8.552H68.0946ZM68.0946 20.768H67.0946V21.768H68.0946V20.768ZM70.8066 7.32C72.4524 7.32 73.8411 7.63817 75.0026 8.23992L75.9226 6.46408C74.4281 5.68982 72.7128 5.32 70.8066 5.32V7.32ZM75.0154 8.24643C76.1851 8.83131 77.0673 9.66858 77.687 10.7703L79.4302 9.78974C78.6099 8.33142 77.428 7.21669 75.9098 6.45757L75.0154 8.24643ZM77.6944 10.7832C78.3281 11.8715 78.6626 13.1722 78.6626 14.72H80.6626C80.6626 12.8758 80.2611 11.2165 79.4228 9.77681L77.6944 10.7832ZM78.6626 14.72C78.6626 16.2681 78.328 17.5584 77.6972 18.628L79.42 19.644C80.2612 18.2176 80.6626 16.5639 80.6626 14.72H78.6626ZM77.6924 18.6363C77.0747 19.707 76.192 20.5333 75.0154 21.1216L75.9098 22.9104C77.4212 22.1547 78.6025 21.061 79.4248 19.6357L77.6924 18.6363ZM75.0197 21.1194C73.8542 21.6952 72.4592 22 70.8066 22V24C72.706 24 74.415 23.6488 75.9055 22.9126L75.0197 21.1194ZM70.8066 22H65.3586V24H70.8066V22ZM66.3586 23V6.32H64.3586V23H66.3586ZM65.3586 7.32H70.8066V5.32H65.3586V7.32ZM70.8066 21.768C72.9381 21.768 74.7251 21.1874 76.0071 19.8857L74.5821 18.4823C73.7841 19.2926 72.5791 19.768 70.8066 19.768V21.768ZM76.0071 19.8857C77.2811 18.592 77.8546 16.8218 77.8546 14.72H75.8546C75.8546 16.4582 75.388 17.664 74.5821 18.4823L76.0071 19.8857ZM77.8546 14.72C77.8546 12.6032 77.282 10.8159 76.0175 9.49302L74.5717 10.875C75.3872 11.7281 75.8546 12.9648 75.8546 14.72H77.8546ZM76.0175 9.49302C74.7371 8.15354 72.9465 7.552 70.8066 7.552V9.552C72.5707 9.552 73.7721 10.0385 74.5717 10.875L76.0175 9.49302ZM70.8066 7.552H68.0946V9.552H70.8066V7.552ZM67.0946 8.552V20.768H69.0946V8.552H67.0946ZM68.0946 21.768H70.8066V19.768H68.0946V21.768ZM94.3982 17.408V18.408H95.2509L95.3857 17.566L94.3982 17.408ZM84.2942 17.408V16.408H83.2156L83.2971 17.4835L84.2942 17.408ZM85.4702 19.952L84.7975 20.6919L84.7975 20.6919L85.4702 19.952ZM91.1822 19.064V18.064H90.5606L90.2855 18.6215L91.1822 19.064ZM94.1342 19.064L95.0841 19.3765L95.5159 18.064H94.1342V19.064ZM91.9502 22.064L92.5443 22.8684L92.5463 22.8669L91.9502 22.064ZM84.6542 22.376L84.1521 23.2408L84.1603 23.2456L84.1686 23.2502L84.6542 22.376ZM82.3022 19.976L81.4217 20.4501L81.4261 20.4582L81.4306 20.4663L82.3022 19.976ZM82.2782 12.8L81.3977 12.3259L81.3951 12.3308L82.2782 12.8ZM84.6062 10.4L84.1206 9.52582L84.1146 9.52917L84.6062 10.4ZM91.3982 10.376L91.8851 9.50252L91.8851 9.50252L91.3982 10.376ZM93.6782 12.68L92.8014 13.1608L92.8047 13.1669L93.6782 12.68ZM91.6382 15.2V16.2H92.6542L92.6381 15.1841L91.6382 15.2ZM90.5582 12.776L91.2118 12.0192L91.2118 12.0192L90.5582 12.776ZM85.5182 12.776L86.1793 13.5264L86.1891 13.5175L85.5182 12.776ZM84.3182 15.2L83.3259 15.076L83.1854 16.2H84.3182V15.2ZM93.4942 16.064C93.4942 16.5184 93.4648 16.9123 93.4108 17.25L95.3857 17.566C95.4596 17.1037 95.4942 16.6016 95.4942 16.064H93.4942ZM94.3982 16.408H84.2942V18.408H94.3982V16.408ZM83.2971 17.4835C83.394 18.763 83.8825 19.8601 84.7975 20.6919L86.1429 19.2121C85.65 18.7639 85.3544 18.165 85.2914 17.3325L83.2971 17.4835ZM84.7975 20.6919C85.7004 21.5127 86.8101 21.912 88.0622 21.912V19.912C87.2663 19.912 86.6481 19.6713 86.1429 19.2121L84.7975 20.6919ZM88.0622 21.912C88.9385 21.912 89.7511 21.7278 90.4558 21.3104C91.1647 20.8906 91.7012 20.272 92.079 19.5065L90.2855 18.6215C90.0552 19.088 89.7678 19.3934 89.4366 19.5896C89.1013 19.7882 88.6579 19.912 88.0622 19.912V21.912ZM91.1822 20.064H94.1342V18.064H91.1822V20.064ZM93.1843 18.7515C92.8507 19.7658 92.2492 20.5965 91.3541 21.2611L92.5463 22.8669C93.7632 21.9635 94.6178 20.7942 95.0841 19.3765L93.1843 18.7515ZM91.3562 21.2596C90.5205 21.8767 89.4444 22.216 88.0622 22.216V24.216C89.7841 24.216 91.2999 23.7873 92.5443 22.8684L91.3562 21.2596ZM88.0622 22.216C86.9514 22.216 85.9853 21.9715 85.1399 21.5018L84.1686 23.2502C85.3391 23.9005 86.645 24.216 88.0622 24.216V22.216ZM85.1564 21.5112C84.3226 21.0271 83.6645 20.3581 83.1738 19.4857L81.4306 20.4663C82.0919 21.6419 83.0018 22.5729 84.1521 23.2408L85.1564 21.5112ZM83.1827 19.5019C82.7123 18.6283 82.4622 17.5958 82.4622 16.376H80.4622C80.4622 17.8762 80.7721 19.2437 81.4217 20.4501L83.1827 19.5019ZM82.4622 16.376C82.4622 15.1513 82.7064 14.1256 83.1613 13.2692L81.3951 12.3308C80.7621 13.5224 80.4622 14.8807 80.4622 16.376H82.4622ZM83.1587 13.2741C83.6326 12.394 84.2766 11.7344 85.0978 11.2708L84.1146 9.52917C82.9519 10.1856 82.0438 11.126 81.3977 12.3259L83.1587 13.2741ZM85.0919 11.2742C85.9336 10.8065 86.9147 10.56 88.0622 10.56V8.56C86.6177 8.56 85.2948 8.87349 84.1206 9.52584L85.0919 11.2742ZM88.0622 10.56C89.1601 10.56 90.101 10.7978 90.9114 11.2495L91.8851 9.50252C90.7434 8.86619 89.4603 8.56 88.0622 8.56V10.56ZM90.9114 11.2495C91.7209 11.7007 92.3467 12.3316 92.8014 13.1608L94.555 12.1992C93.9218 11.0444 93.0276 10.1393 91.8851 9.50252L90.9114 11.2495ZM92.8047 13.1669C93.2543 13.9735 93.4942 14.9293 93.4942 16.064H95.4942C95.4942 14.6387 95.1901 13.3385 94.5517 12.1931L92.8047 13.1669ZM92.6381 15.1841C92.618 13.9179 92.1511 12.8304 91.2118 12.0192L89.9046 13.5328C90.3733 13.9376 90.6264 14.4661 90.6383 15.2159L92.6381 15.1841ZM91.2118 12.0192C90.3045 11.2356 89.1919 10.864 87.9422 10.864V12.864C88.7725 12.864 89.4039 13.1004 89.9046 13.5328L91.2118 12.0192ZM87.9422 10.864C86.7616 10.864 85.7114 11.2527 84.8473 12.0345L86.1891 13.5175C86.669 13.0833 87.2348 12.864 87.9422 12.864V10.864ZM84.8572 12.0256C83.9744 12.8034 83.4793 13.849 83.3259 15.076L85.3105 15.324C85.4131 14.503 85.7181 13.9326 86.1792 13.5264L84.8572 12.0256ZM84.3182 16.2H91.6382V14.2H84.3182V16.2ZM99.9227 5.24H100.923V4.24H99.9227V5.24ZM99.9227 23V24H100.923V23H99.9227ZM97.1867 23H96.1867V24H97.1867V23ZM97.1867 5.24V4.24H96.1867V5.24H97.1867ZM98.9227 5.24V23H100.923V5.24H98.9227ZM99.9227 22H97.1867V24H99.9227V22ZM98.1867 23V5.24H96.1867V23H98.1867ZM97.1867 6.24H99.9227V4.24H97.1867V6.24ZM103.659 7.52L104.366 6.81289L104.366 6.81289L103.659 7.52ZM103.659 5.024L104.366 5.73111L104.366 5.73111L103.659 5.024ZM106.131 5.024L105.424 5.73111L105.424 5.73111L106.131 5.024ZM106.131 7.52L105.424 6.81289L105.424 6.81289L106.131 7.52ZM106.251 9.776H107.251V8.776H106.251V9.776ZM106.251 23V24H107.251V23H106.251ZM103.515 23H102.515V24H103.515V23ZM103.515 9.776V8.776H102.515V9.776H103.515ZM104.907 7.024C104.663 7.024 104.505 6.95239 104.366 6.81289L102.952 8.22711C103.484 8.75961 104.159 9.024 104.907 9.024V7.024ZM104.366 6.81289C104.226 6.6734 104.155 6.51574 104.155 6.272H102.155C102.155 7.02026 102.419 7.6946 102.952 8.22711L104.366 6.81289ZM104.155 6.272C104.155 6.02826 104.226 5.8706 104.366 5.73111L102.952 4.31689C102.419 4.84939 102.155 5.52374 102.155 6.272H104.155ZM104.366 5.73111C104.505 5.59161 104.663 5.52 104.907 5.52V3.52C104.159 3.52 103.484 3.78439 102.952 4.31689L104.366 5.73111ZM104.907 5.52C105.125 5.52 105.277 5.58477 105.424 5.73111L106.838 4.31689C106.312 3.79123 105.649 3.52 104.907 3.52V5.52ZM105.424 5.73111C105.563 5.8706 105.635 6.02826 105.635 6.272H107.635C107.635 5.52374 107.37 4.84939 106.838 4.31689L105.424 5.73111ZM105.635 6.272C105.635 6.51574 105.563 6.6734 105.424 6.81289L106.838 8.22711C107.37 7.6946 107.635 7.02026 107.635 6.272H105.635ZM105.424 6.81289C105.277 6.95923 105.125 7.024 104.907 7.024V9.024C105.649 9.024 106.312 8.75277 106.838 8.22711L105.424 6.81289ZM105.251 9.776V23H107.251V9.776H105.251ZM106.251 22H103.515V24H106.251V22ZM104.515 23V9.776H102.515V23H104.515ZM103.515 10.776H106.251V8.776H103.515V10.776ZM114.955 20.552L114.01 20.8802L114.955 23.599L115.9 20.8802L114.955 20.552ZM118.699 9.776V8.776H117.988L117.754 9.44781L118.699 9.776ZM121.603 9.776L122.537 10.1321L123.054 8.776H121.603V9.776ZM116.563 23V24H117.252L117.497 23.3561L116.563 23ZM113.299 23L112.364 23.3547L112.609 24H113.299V23ZM108.283 9.776V8.776H106.834L107.348 10.1307L108.283 9.776ZM111.211 9.776L112.156 9.44781L111.922 8.776H111.211V9.776ZM115.9 20.8802L119.644 10.1042L117.754 9.44781L114.01 20.2238L115.9 20.8802ZM118.699 10.776H121.603V8.776H118.699V10.776ZM120.669 9.41986L115.629 22.6439L117.497 23.3561L122.537 10.1321L120.669 9.41986ZM116.563 22H113.299V24H116.563V22ZM114.234 22.6453L109.218 9.42135L107.348 10.1307L112.364 23.3547L114.234 22.6453ZM108.283 10.776H111.211V8.776H108.283V10.776ZM110.266 10.1042L114.01 20.8802L115.9 20.2238L112.156 9.44781L110.266 10.1042ZM135.695 17.408V18.408H136.548L136.683 17.566L135.695 17.408ZM125.591 17.408V16.408H124.512L124.594 17.4835L125.591 17.408ZM126.767 19.952L126.094 20.6919L126.094 20.6919L126.767 19.952ZM132.479 19.064V18.064H131.857L131.582 18.6215L132.479 19.064ZM135.431 19.064L136.381 19.3765L136.813 18.064H135.431V19.064ZM133.247 22.064L133.841 22.8684L133.843 22.8669L133.247 22.064ZM125.951 22.376L125.449 23.2408L125.457 23.2456L125.465 23.2502L125.951 22.376ZM123.599 19.976L122.719 20.4501L122.723 20.4582L122.728 20.4663L123.599 19.976ZM123.575 12.8L122.695 12.3259L122.692 12.3308L123.575 12.8ZM125.903 10.4L125.417 9.52582L125.411 9.52917L125.903 10.4ZM132.695 10.376L133.182 9.50252L133.182 9.50252L132.695 10.376ZM134.975 12.68L134.098 13.1608L134.102 13.1669L134.975 12.68ZM132.935 15.2V16.2H133.951L133.935 15.1841L132.935 15.2ZM131.855 12.776L132.509 12.0192L132.509 12.0192L131.855 12.776ZM126.815 12.776L127.476 13.5264L127.486 13.5175L126.815 12.776ZM125.615 15.2L124.623 15.076L124.482 16.2H125.615V15.2ZM134.791 16.064C134.791 16.5184 134.762 16.9123 134.708 17.25L136.683 17.566C136.757 17.1037 136.791 16.6016 136.791 16.064H134.791ZM135.695 16.408H125.591V18.408H135.695V16.408ZM124.594 17.4835C124.691 18.763 125.179 19.8601 126.094 20.6919L127.44 19.2121C126.947 18.7639 126.651 18.165 126.588 17.3325L124.594 17.4835ZM126.094 20.6919C126.997 21.5127 128.107 21.912 129.359 21.912V19.912C128.563 19.912 127.945 19.6713 127.44 19.2121L126.094 20.6919ZM129.359 21.912C130.235 21.912 131.048 21.7278 131.753 21.3104C132.462 20.8906 132.998 20.272 133.376 19.5065L131.582 18.6215C131.352 19.088 131.065 19.3934 130.733 19.5896C130.398 19.7882 129.955 19.912 129.359 19.912V21.912ZM132.479 20.064H135.431V18.064H132.479V20.064ZM134.481 18.7515C134.148 19.7658 133.546 20.5965 132.651 21.2611L133.843 22.8669C135.06 21.9635 135.915 20.7942 136.381 19.3765L134.481 18.7515ZM132.653 21.2596C131.817 21.8767 130.741 22.216 129.359 22.216V24.216C131.081 24.216 132.597 23.7873 133.841 22.8684L132.653 21.2596ZM129.359 22.216C128.248 22.216 127.282 21.9715 126.437 21.5018L125.465 23.2502C126.636 23.9005 127.942 24.216 129.359 24.216V22.216ZM126.453 21.5112C125.619 21.0271 124.961 20.3581 124.471 19.4857L122.728 20.4663C123.389 21.6419 124.299 22.5729 125.449 23.2408L126.453 21.5112ZM124.48 19.5019C124.009 18.6283 123.759 17.5958 123.759 16.376H121.759C121.759 17.8762 122.069 19.2437 122.719 20.4501L124.48 19.5019ZM123.759 16.376C123.759 15.1513 124.003 14.1256 124.458 13.2692L122.692 12.3308C122.059 13.5224 121.759 14.8807 121.759 16.376H123.759ZM124.456 13.2741C124.929 12.394 125.573 11.7344 126.395 11.2708L125.411 9.52917C124.249 10.1856 123.341 11.126 122.695 12.3259L124.456 13.2741ZM126.389 11.2742C127.231 10.8065 128.212 10.56 129.359 10.56V8.56C127.915 8.56 126.592 8.87349 125.417 9.52584L126.389 11.2742ZM129.359 10.56C130.457 10.56 131.398 10.7978 132.208 11.2495L133.182 9.50252C132.04 8.86619 130.757 8.56 129.359 8.56V10.56ZM132.208 11.2495C133.018 11.7007 133.644 12.3316 134.098 13.1608L135.852 12.1992C135.219 11.0444 134.324 10.1393 133.182 9.50252L132.208 11.2495ZM134.102 13.1669C134.551 13.9735 134.791 14.9293 134.791 16.064H136.791C136.791 14.6387 136.487 13.3385 135.849 12.1931L134.102 13.1669ZM133.935 15.1841C133.915 13.9179 133.448 12.8304 132.509 12.0192L131.201 13.5328C131.67 13.9376 131.923 14.4661 131.935 15.2159L133.935 15.1841ZM132.509 12.0192C131.601 11.2356 130.489 10.864 129.239 10.864V12.864C130.069 12.864 130.701 13.1004 131.201 13.5328L132.509 12.0192ZM129.239 10.864C128.058 10.864 127.008 11.2527 126.144 12.0345L127.486 13.5175C127.966 13.0833 128.532 12.864 129.239 12.864V10.864ZM126.154 12.0256C125.271 12.8034 124.776 13.849 124.623 15.076L126.607 15.324C126.71 14.503 127.015 13.9326 127.476 13.5264L126.154 12.0256ZM125.615 16.2H132.935V14.2H125.615V16.2ZM141.22 11.696H140.22V15.3311L142.079 12.2075L141.22 11.696ZM142.804 10.136L143.293 11.0082L143.3 11.0042L142.804 10.136ZM145.18 9.56H146.18V8.56H145.18V9.56ZM145.18 12.392V13.392H146.18V12.392H145.18ZM142.036 13.208L141.339 12.4907L141.334 12.4958L141.328 12.5009L142.036 13.208ZM141.22 23V24H142.22V23H141.22ZM138.484 23H137.484V24H138.484V23ZM138.484 9.776V8.776H137.484V9.776H138.484ZM141.22 9.776H142.22V8.776H141.22V9.776ZM142.079 12.2075C142.393 11.6798 142.796 11.2869 143.293 11.0081L142.314 9.26386C141.499 9.72106 140.846 10.3682 140.36 11.1845L142.079 12.2075ZM143.3 11.0042C143.796 10.7209 144.41 10.56 145.18 10.56V8.56C144.125 8.56 143.156 8.78315 142.307 9.26776L143.3 11.0042ZM144.18 9.56V12.392H146.18V9.56H144.18ZM145.18 11.392H144.484V13.392H145.18V11.392ZM144.484 11.392C143.25 11.392 142.146 11.7066 141.339 12.4907L142.732 13.9253C143.045 13.6214 143.573 13.392 144.484 13.392V11.392ZM141.328 12.5009C140.498 13.3312 140.22 14.6142 140.22 16.04H142.22C142.22 14.7778 142.485 14.1728 142.743 13.9151L141.328 12.5009ZM140.22 16.04V23H142.22V16.04H140.22ZM141.22 22H138.484V24H141.22V22ZM139.484 23V9.776H137.484V23H139.484ZM138.484 10.776H141.22V8.776H138.484V10.776ZM140.22 9.776V11.696H142.22V9.776H140.22ZM159.599 9.776L160.521 10.1611L161.099 8.776H159.599V9.776ZM151.487 29.216V30.216H152.153L152.409 29.6011L151.487 29.216ZM148.655 29.216L147.732 28.8304L147.153 30.216H148.655V29.216ZM151.343 22.784L152.265 23.1696L152.423 22.7921L152.271 22.4123L151.343 22.784ZM146.135 9.776V8.776H144.657L145.206 10.1477L146.135 9.776ZM149.183 9.776L150.121 9.42978L149.879 8.776H149.183V9.776ZM152.903 19.856L151.964 20.2022L152.885 22.6962L153.836 20.2139L152.903 19.856ZM156.767 9.776V8.776H156.079L155.833 9.41806L156.767 9.776ZM158.676 9.3909L150.564 28.8309L152.409 29.6011L160.521 10.1611L158.676 9.3909ZM151.487 28.216H148.655V30.216H151.487V28.216ZM149.577 29.6016L152.265 23.1696L150.42 22.3984L147.732 28.8304L149.577 29.6016ZM152.271 22.4123L147.063 9.40431L145.206 10.1477L150.414 23.1557L152.271 22.4123ZM146.135 10.776H149.183V8.776H146.135V10.776ZM148.244 10.1222L151.964 20.2022L153.841 19.5098L150.121 9.42978L148.244 10.1222ZM153.836 20.2139L157.7 10.1339L155.833 9.41806L151.969 19.4981L153.836 20.2139ZM156.767 10.776H159.599V8.776H156.767V10.776Z" fill="black" mask="url(#path-2-outside-1_46_20)"/>
</svg>
