<svg width="98" height="41" viewBox="0 0 98 41" fill="none" xmlns="http://www.w3.org/2000/svg">
<g filter="url(#filter0_b_61_38)">
<path d="M0 20.5C0 9.73045 8.73045 1 19.5 1H78.5C89.2695 1 98 9.73045 98 20.5V20.5C98 31.2696 89.2696 40 78.5 40H19.5C8.73045 40 0 31.2696 0 20.5V20.5Z" fill="#D9D9D9" fill-opacity="0.72"/>
</g>
<rect x="65.766" y="7" width="3.91489" height="25.4468" rx="1.95745" fill="white" fill-opacity="0.63"/>
<rect x="55" y="21.6808" width="3.91489" height="25.4468" rx="1.95745" transform="rotate(-90 55 21.6808)" fill="white" fill-opacity="0.63"/>
<path d="M24.5604 13.524C24.7284 11.316 25.5804 9.588 27.1164 8.34C28.6524 7.092 30.6444 6.468 33.0924 6.468C34.7244 6.468 36.1284 6.768 37.3044 7.368C38.5044 7.944 39.4044 8.736 40.0044 9.744C40.6284 10.752 40.9404 11.892 40.9404 13.164C40.9404 14.652 40.5084 15.936 39.6444 17.016C38.8044 18.096 37.7004 18.792 36.3324 19.104V19.284C37.8924 19.668 39.1284 20.424 40.0404 21.552C40.9524 22.68 41.4084 24.156 41.4084 25.98C41.4084 27.348 41.0964 28.584 40.4724 29.688C39.8484 30.768 38.9124 31.62 37.6644 32.244C36.4164 32.868 34.9164 33.18 33.1644 33.18C30.6204 33.18 28.5324 32.52 26.9004 31.2C25.2684 29.856 24.3564 27.96 24.1644 25.512H27.3324C27.5004 26.952 28.0884 28.128 29.0964 29.04C30.1044 29.952 31.4484 30.408 33.1284 30.408C34.8084 30.408 36.0804 29.976 36.9444 29.112C37.8324 28.224 38.2764 27.084 38.2764 25.692C38.2764 23.892 37.6764 22.596 36.4764 21.804C35.2764 21.012 33.4644 20.616 31.0404 20.616H30.2124V17.88H31.0764C33.2844 17.856 34.9524 17.496 36.0804 16.8C37.2084 16.08 37.7724 14.976 37.7724 13.488C37.7724 12.216 37.3524 11.196 36.5124 10.428C35.6964 9.66 34.5204 9.276 32.9844 9.276C31.4964 9.276 30.2964 9.66 29.3844 10.428C28.4724 11.196 27.9324 12.228 27.7644 13.524H24.5604Z" fill="#44403D"/>
<defs>
<filter id="filter0_b_61_38" x="-1" y="0" width="100" height="41" filterUnits="userSpaceOnUse" color-interpolation-filters="sRGB">
<feFlood flood-opacity="0" result="BackgroundImageFix"/>
<feGaussianBlur in="BackgroundImageFix" stdDeviation="0.5"/>
<feComposite in2="SourceAlpha" operator="in" result="effect1_backgroundBlur_61_38"/>
<feBlend mode="normal" in="SourceGraphic" in2="effect1_backgroundBlur_61_38" result="shape"/>
</filter>
</defs>
</svg>
