<svg width="212" height="30" viewBox="0 0 212 30" fill="none" xmlns="http://www.w3.org/2000/svg">
<path d="M0 10C0 4.47715 4.47715 0 10 0H41V19C41 24.5228 36.5228 29 31 29H0V10Z" fill="#EBCBBE"/>
<path d="M21.1612 26.024L18.2332 22.856C17.5132 23.064 16.7212 23.168 15.8572 23.168C14.3052 23.168 12.8732 22.808 11.5612 22.088C10.2652 21.352 9.23322 20.336 8.46522 19.04C7.71322 17.728 7.33722 16.256 7.33722 14.624C7.33722 12.992 7.71322 11.528 8.46522 10.232C9.23322 8.936 10.2652 7.928 11.5612 7.208C12.8732 6.472 14.3052 6.104 15.8572 6.104C17.4252 6.104 18.8572 6.472 20.1532 7.208C21.4652 7.928 22.4972 8.936 23.2492 10.232C24.0012 11.528 24.3772 12.992 24.3772 14.624C24.3772 16.16 24.0412 17.552 23.3692 18.8C22.7132 20.032 21.8012 21.024 20.6332 21.776L24.6412 26.024H21.1612ZM10.1452 14.624C10.1452 15.856 10.3852 16.944 10.8652 17.888C11.3612 18.816 12.0412 19.536 12.9052 20.048C13.7692 20.544 14.7532 20.792 15.8572 20.792C16.9612 20.792 17.9452 20.544 18.8092 20.048C19.6732 19.536 20.3452 18.816 20.8252 17.888C21.3212 16.944 21.5692 15.856 21.5692 14.624C21.5692 13.392 21.3212 12.312 20.8252 11.384C20.3452 10.456 19.6732 9.744 18.8092 9.248C17.9452 8.752 16.9612 8.504 15.8572 8.504C14.7532 8.504 13.7692 8.752 12.9052 9.248C12.0412 9.744 11.3612 10.456 10.8652 11.384C10.3852 12.312 10.1452 13.392 10.1452 14.624ZM39.1158 9.776V23H36.3798V21.44C35.9478 21.984 35.3798 22.416 34.6758 22.736C33.9878 23.04 33.2518 23.192 32.4678 23.192C31.4278 23.192 30.4918 22.976 29.6598 22.544C28.8438 22.112 28.1958 21.472 27.7158 20.624C27.2518 19.776 27.0198 18.752 27.0198 17.552V9.776H29.7318V17.144C29.7318 18.328 30.0278 19.24 30.6198 19.88C31.2118 20.504 32.0198 20.816 33.0438 20.816C34.0678 20.816 34.8758 20.504 35.4678 19.88C36.0758 19.24 36.3798 18.328 36.3798 17.144V9.776H39.1158ZM41.8138 16.328C41.8138 15 42.0858 13.824 42.6298 12.8C43.1898 11.776 43.9418 10.984 44.8858 10.424C45.8458 9.848 46.9018 9.56 48.0538 9.56C49.0938 9.56 49.9978 9.768 50.7658 10.184C51.5498 10.584 52.1738 11.088 52.6378 11.696V9.776H55.3978V23H52.6378V21.032C52.1738 21.656 51.5418 22.176 50.7418 22.592C49.9418 23.008 49.0298 23.216 48.0058 23.216C46.8698 23.216 45.8298 22.928 44.8858 22.352C43.9418 21.76 43.1898 20.944 42.6298 19.904C42.0858 18.848 41.8138 17.656 41.8138 16.328ZM52.6378 16.376C52.6378 15.464 52.4458 14.672 52.0618 14C51.6938 13.328 51.2058 12.816 50.5978 12.464C49.9898 12.112 49.3338 11.936 48.6298 11.936C47.9258 11.936 47.2698 12.112 46.6618 12.464C46.0538 12.8 45.5578 13.304 45.1738 13.976C44.8058 14.632 44.6218 15.416 44.6218 16.328C44.6218 17.24 44.8058 18.04 45.1738 18.728C45.5578 19.416 46.0538 19.944 46.6618 20.312C47.2858 20.664 47.9418 20.84 48.6298 20.84C49.3338 20.84 49.9898 20.664 50.5978 20.312C51.2058 19.96 51.6938 19.448 52.0618 18.776C52.4458 18.088 52.6378 17.288 52.6378 16.376ZM61.7274 5.24V23H58.9914V5.24H61.7274ZM66.7115 8.024C66.2155 8.024 65.7995 7.856 65.4635 7.52C65.1275 7.184 64.9595 6.768 64.9595 6.272C64.9595 5.776 65.1275 5.36 65.4635 5.024C65.7995 4.688 66.2155 4.52 66.7115 4.52C67.1915 4.52 67.5995 4.688 67.9355 5.024C68.2715 5.36 68.4395 5.776 68.4395 6.272C68.4395 6.768 68.2715 7.184 67.9355 7.52C67.5995 7.856 67.1915 8.024 66.7115 8.024ZM68.0555 9.776V23H65.3195V9.776H68.0555ZM74.8397 12.008V19.328C74.8397 19.824 74.9517 20.184 75.1757 20.408C75.4157 20.616 75.8157 20.72 76.3757 20.72H78.0557V23H75.8957C74.6637 23 73.7197 22.712 73.0637 22.136C72.4077 21.56 72.0797 20.624 72.0797 19.328V12.008H70.5197V9.776H72.0797V6.488H74.8397V9.776H78.0557V12.008H74.8397ZM92.4813 9.776L84.3693 29.216H81.5373L84.2253 22.784L79.0173 9.776H82.0653L85.7853 19.856L89.6493 9.776H92.4813ZM112.444 11.288C112.444 12.136 112.244 12.936 111.844 13.688C111.444 14.44 110.804 15.056 109.924 15.536C109.044 16 107.916 16.232 106.54 16.232H103.516V23H100.78V6.32H106.54C107.82 6.32 108.9 6.544 109.78 6.992C110.676 7.424 111.34 8.016 111.772 8.768C112.22 9.52 112.444 10.36 112.444 11.288ZM106.54 14C107.58 14 108.356 13.768 108.868 13.304C109.38 12.824 109.636 12.152 109.636 11.288C109.636 9.464 108.604 8.552 106.54 8.552H103.516V14H106.54ZM117.79 11.696C118.19 11.024 118.718 10.504 119.374 10.136C120.046 9.752 120.838 9.56 121.75 9.56V12.392H121.054C119.982 12.392 119.166 12.664 118.606 13.208C118.062 13.752 117.79 14.696 117.79 16.04V23H115.054V9.776H117.79V11.696ZM130.001 23.216C128.753 23.216 127.625 22.936 126.617 22.376C125.609 21.8 124.817 21 124.241 19.976C123.665 18.936 123.377 17.736 123.377 16.376C123.377 15.032 123.673 13.84 124.265 12.8C124.857 11.76 125.665 10.96 126.689 10.4C127.713 9.84 128.857 9.56 130.121 9.56C131.385 9.56 132.529 9.84 133.553 10.4C134.577 10.96 135.385 11.76 135.977 12.8C136.569 13.84 136.865 15.032 136.865 16.376C136.865 17.72 136.561 18.912 135.953 19.952C135.345 20.992 134.513 21.8 133.457 22.376C132.417 22.936 131.265 23.216 130.001 23.216ZM130.001 20.84C130.705 20.84 131.361 20.672 131.969 20.336C132.593 20 133.097 19.496 133.481 18.824C133.865 18.152 134.057 17.336 134.057 16.376C134.057 15.416 133.873 14.608 133.505 13.952C133.137 13.28 132.649 12.776 132.041 12.44C131.433 12.104 130.777 11.936 130.073 11.936C129.369 11.936 128.713 12.104 128.105 12.44C127.513 12.776 127.041 13.28 126.689 13.952C126.337 14.608 126.161 15.416 126.161 16.376C126.161 17.8 126.521 18.904 127.241 19.688C127.977 20.456 128.897 20.84 130.001 20.84ZM138.658 16.328C138.658 15 138.93 13.824 139.474 12.8C140.034 11.776 140.786 10.984 141.73 10.424C142.69 9.848 143.754 9.56 144.922 9.56C145.786 9.56 146.634 9.752 147.466 10.136C148.314 10.504 148.986 11 149.482 11.624V5.24H152.242V23H149.482V21.008C149.034 21.648 148.41 22.176 147.61 22.592C146.826 23.008 145.922 23.216 144.898 23.216C143.746 23.216 142.69 22.928 141.73 22.352C140.786 21.76 140.034 20.944 139.474 19.904C138.93 18.848 138.658 17.656 138.658 16.328ZM149.482 16.376C149.482 15.464 149.29 14.672 148.906 14C148.538 13.328 148.05 12.816 147.442 12.464C146.834 12.112 146.178 11.936 145.474 11.936C144.77 11.936 144.114 12.112 143.506 12.464C142.898 12.8 142.402 13.304 142.018 13.976C141.65 14.632 141.466 15.416 141.466 16.328C141.466 17.24 141.65 18.04 142.018 18.728C142.402 19.416 142.898 19.944 143.506 20.312C144.13 20.664 144.786 20.84 145.474 20.84C146.178 20.84 146.834 20.664 147.442 20.312C148.05 19.96 148.538 19.448 148.906 18.776C149.29 18.088 149.482 17.288 149.482 16.376ZM167.811 9.776V23H165.075V21.44C164.643 21.984 164.075 22.416 163.371 22.736C162.683 23.04 161.947 23.192 161.163 23.192C160.123 23.192 159.187 22.976 158.355 22.544C157.539 22.112 156.891 21.472 156.411 20.624C155.947 19.776 155.715 18.752 155.715 17.552V9.776H158.427V17.144C158.427 18.328 158.723 19.24 159.315 19.88C159.907 20.504 160.715 20.816 161.739 20.816C162.763 20.816 163.571 20.504 164.163 19.88C164.771 19.24 165.075 18.328 165.075 17.144V9.776H167.811ZM170.509 16.376C170.509 15.016 170.781 13.824 171.325 12.8C171.885 11.76 172.653 10.96 173.629 10.4C174.605 9.84 175.725 9.56 176.989 9.56C178.589 9.56 179.909 9.944 180.949 10.712C182.005 11.464 182.717 12.544 183.085 13.952H180.133C179.893 13.296 179.509 12.784 178.981 12.416C178.453 12.048 177.789 11.864 176.989 11.864C175.869 11.864 174.973 12.264 174.301 13.064C173.645 13.848 173.317 14.952 173.317 16.376C173.317 17.8 173.645 18.912 174.301 19.712C174.973 20.512 175.869 20.912 176.989 20.912C178.573 20.912 179.621 20.216 180.133 18.824H183.085C182.701 20.168 181.981 21.24 180.925 22.04C179.869 22.824 178.557 23.216 176.989 23.216C175.725 23.216 174.605 22.936 173.629 22.376C172.653 21.8 171.885 21 171.325 19.976C170.781 18.936 170.509 17.736 170.509 16.376ZM189.004 12.008V19.328C189.004 19.824 189.116 20.184 189.34 20.408C189.58 20.616 189.98 20.72 190.54 20.72H192.22V23H190.06C188.828 23 187.884 22.712 187.228 22.136C186.572 21.56 186.244 20.624 186.244 19.328V12.008H184.684V9.776H186.244V6.488H189.004V9.776H192.22V12.008H189.004ZM199.541 23.216C198.501 23.216 197.565 23.032 196.733 22.664C195.917 22.28 195.269 21.768 194.789 21.128C194.309 20.472 194.053 19.744 194.021 18.944H196.853C196.901 19.504 197.165 19.976 197.645 20.36C198.141 20.728 198.757 20.912 199.493 20.912C200.261 20.912 200.853 20.768 201.269 20.48C201.701 20.176 201.917 19.792 201.917 19.328C201.917 18.832 201.677 18.464 201.197 18.224C200.733 17.984 199.989 17.72 198.965 17.432C197.973 17.16 197.165 16.896 196.541 16.64C195.917 16.384 195.373 15.992 194.909 15.464C194.461 14.936 194.237 14.24 194.237 13.376C194.237 12.672 194.445 12.032 194.861 11.456C195.277 10.864 195.869 10.4 196.637 10.064C197.421 9.728 198.317 9.56 199.325 9.56C200.829 9.56 202.037 9.944 202.949 10.712C203.877 11.464 204.373 12.496 204.437 13.808H201.701C201.653 13.216 201.413 12.744 200.981 12.392C200.549 12.04 199.965 11.864 199.229 11.864C198.509 11.864 197.957 12 197.573 12.272C197.189 12.544 196.997 12.904 196.997 13.352C196.997 13.704 197.125 14 197.381 14.24C197.637 14.48 197.949 14.672 198.317 14.816C198.685 14.944 199.229 15.112 199.949 15.32C200.909 15.576 201.693 15.84 202.301 16.112C202.925 16.368 203.461 16.752 203.909 17.264C204.357 17.776 204.589 18.456 204.605 19.304C204.605 20.056 204.397 20.728 203.981 21.32C203.565 21.912 202.973 22.376 202.205 22.712C201.453 23.048 200.565 23.216 199.541 23.216ZM208.666 23.168C208.17 23.168 207.754 23 207.418 22.664C207.082 22.328 206.914 21.912 206.914 21.416C206.914 20.92 207.082 20.504 207.418 20.168C207.754 19.832 208.17 19.664 208.666 19.664C209.146 19.664 209.554 19.832 209.89 20.168C210.226 20.504 210.394 20.92 210.394 21.416C210.394 21.912 210.226 22.328 209.89 22.664C209.554 23 209.146 23.168 208.666 23.168Z" fill="#44403D"/>
</svg>
