<svg width="98" height="41" viewBox="0 0 98 41" fill="none" xmlns="http://www.w3.org/2000/svg">
<g filter="url(#filter0_b_61_56)">
<path d="M0 20.5C0 9.73045 8.73045 1 19.5 1H78.5C89.2695 1 98 9.73045 98 20.5V20.5C98 31.2696 89.2696 40 78.5 40H19.5C8.73045 40 0 31.2696 0 20.5V20.5Z" fill="#D9D9D9" fill-opacity="0.72"/>
</g>
<rect x="65.766" y="7" width="3.91489" height="25.4468" rx="1.95745" fill="white" fill-opacity="0.63"/>
<rect x="55" y="21.6808" width="3.91489" height="25.4468" rx="1.95745" transform="rotate(-90 55 21.6808)" fill="white" fill-opacity="0.63"/>
<path d="M38.3142 13.164C37.7862 10.5 36.1422 9.168 33.3822 9.168C31.2462 9.168 29.6502 9.996 28.5942 11.652C27.5382 13.284 27.0222 15.984 27.0462 19.752C27.5982 18.504 28.5102 17.532 29.7822 16.836C31.0782 16.116 32.5182 15.756 34.1022 15.756C36.5742 15.756 38.5422 16.524 40.0062 18.06C41.4942 19.596 42.2382 21.72 42.2382 24.432C42.2382 26.064 41.9142 27.528 41.2662 28.824C40.6422 30.12 39.6822 31.152 38.3862 31.92C37.1142 32.688 35.5662 33.072 33.7422 33.072C31.2702 33.072 29.3382 32.52 27.9462 31.416C26.5542 30.312 25.5822 28.788 25.0302 26.844C24.4782 24.9 24.2022 22.5 24.2022 19.644C24.2022 10.836 27.2742 6.432 33.4182 6.432C35.7702 6.432 37.6182 7.068 38.9622 8.34C40.3062 9.612 41.0982 11.22 41.3382 13.164H38.3142ZM33.4182 18.528C32.3862 18.528 31.4142 18.744 30.5022 19.176C29.5902 19.584 28.8462 20.22 28.2702 21.084C27.7182 21.924 27.4422 22.956 27.4422 24.18C27.4422 26.004 27.9702 27.492 29.0262 28.644C30.0822 29.772 31.5942 30.336 33.5622 30.336C35.2422 30.336 36.5742 29.82 37.5582 28.788C38.5662 27.732 39.0702 26.316 39.0702 24.54C39.0702 22.668 38.5902 21.204 37.6302 20.148C36.6702 19.068 35.2662 18.528 33.4182 18.528Z" fill="#44403D"/>
<defs>
<filter id="filter0_b_61_56" x="-1" y="0" width="100" height="41" filterUnits="userSpaceOnUse" color-interpolation-filters="sRGB">
<feFlood flood-opacity="0" result="BackgroundImageFix"/>
<feGaussianBlur in="BackgroundImageFix" stdDeviation="0.5"/>
<feComposite in2="SourceAlpha" operator="in" result="effect1_backgroundBlur_61_56"/>
<feBlend mode="normal" in="SourceGraphic" in2="effect1_backgroundBlur_61_56" result="shape"/>
</filter>
</defs>
</svg>
