<svg width="171" height="30" viewBox="0 0 171 30" fill="none" xmlns="http://www.w3.org/2000/svg">
<path d="M0 10C0 4.47715 4.47715 0 10 0H41V19C41 24.5228 36.5228 29 31 29H0V10Z" fill="#EBCBBE"/>
<mask id="path-2-outside-1_46_23" maskUnits="userSpaceOnUse" x="7" y="3" width="163" height="28" fill="black">
<rect fill="white" x="7" y="3" width="163" height="28"/>
<path d="M17.8504 6.32V8.552H10.7704V13.472H16.2904V15.704H10.7704V23H8.03438V6.32H17.8504ZM23.1219 11.696C23.5219 11.024 24.0499 10.504 24.7059 10.136C25.3779 9.752 26.1699 9.56 27.0819 9.56V12.392H26.3859C25.3139 12.392 24.4979 12.664 23.9379 13.208C23.3939 13.752 23.1219 14.696 23.1219 16.04V23H20.3859V9.776H23.1219V11.696ZM41.7169 16.064C41.7169 16.56 41.6849 17.008 41.6209 17.408H31.5169C31.5969 18.464 31.9889 19.312 32.6929 19.952C33.3969 20.592 34.2609 20.912 35.2849 20.912C36.7569 20.912 37.7969 20.296 38.4049 19.064H41.3569C40.9569 20.28 40.2289 21.28 39.1729 22.064C38.1329 22.832 36.8369 23.216 35.2849 23.216C34.0209 23.216 32.8849 22.936 31.8769 22.376C30.8849 21.8 30.1009 21 29.5249 19.976C28.9649 18.936 28.6849 17.736 28.6849 16.376C28.6849 15.016 28.9569 13.824 29.5009 12.8C30.0609 11.76 30.8369 10.96 31.8289 10.4C32.8369 9.84 33.9889 9.56 35.2849 9.56C36.5329 9.56 37.6449 9.832 38.6209 10.376C39.5969 10.92 40.3569 11.688 40.9009 12.68C41.4449 13.656 41.7169 14.784 41.7169 16.064ZM38.8609 15.2C38.8449 14.192 38.4849 13.384 37.7809 12.776C37.0769 12.168 36.2049 11.864 35.1649 11.864C34.2209 11.864 33.4129 12.168 32.7409 12.776C32.0689 13.368 31.6689 14.176 31.5409 15.2H38.8609ZM56.5294 16.064C56.5294 16.56 56.4974 17.008 56.4334 17.408H46.3294C46.4094 18.464 46.8014 19.312 47.5054 19.952C48.2094 20.592 49.0734 20.912 50.0974 20.912C51.5694 20.912 52.6094 20.296 53.2174 19.064H56.1694C55.7694 20.28 55.0414 21.28 53.9854 22.064C52.9454 22.832 51.6494 23.216 50.0974 23.216C48.8334 23.216 47.6974 22.936 46.6894 22.376C45.6974 21.8 44.9134 21 44.3374 19.976C43.7774 18.936 43.4974 17.736 43.4974 16.376C43.4974 15.016 43.7694 13.824 44.3134 12.8C44.8734 11.76 45.6494 10.96 46.6414 10.4C47.6494 9.84 48.8014 9.56 50.0974 9.56C51.3454 9.56 52.4574 9.832 53.4334 10.376C54.4094 10.92 55.1694 11.688 55.7134 12.68C56.2574 13.656 56.5294 14.784 56.5294 16.064ZM53.6734 15.2C53.6574 14.192 53.2974 13.384 52.5934 12.776C51.8894 12.168 51.0174 11.864 49.9774 11.864C49.0334 11.864 48.2254 12.168 47.5534 12.776C46.8814 13.368 46.4814 14.176 46.3534 15.2H53.6734ZM70.9523 23.168C69.8323 23.168 68.8243 22.976 67.9283 22.592C67.0323 22.192 66.3283 21.632 65.8163 20.912C65.3043 20.192 65.0483 19.352 65.0483 18.392H67.9763C68.0403 19.112 68.3203 19.704 68.8163 20.168C69.3283 20.632 70.0403 20.864 70.9523 20.864C71.8963 20.864 72.6323 20.64 73.1603 20.192C73.6883 19.728 73.9523 19.136 73.9523 18.416C73.9523 17.856 73.7843 17.4 73.4483 17.048C73.1283 16.696 72.7203 16.424 72.2243 16.232C71.7443 16.04 71.0723 15.832 70.2083 15.608C69.1203 15.32 68.2323 15.032 67.5443 14.744C66.8723 14.44 66.2963 13.976 65.8163 13.352C65.3363 12.728 65.0963 11.896 65.0963 10.856C65.0963 9.896 65.3363 9.056 65.8163 8.336C66.2963 7.616 66.9683 7.064 67.8323 6.68C68.6963 6.296 69.6963 6.104 70.8323 6.104C72.4483 6.104 73.7683 6.512 74.7923 7.328C75.8323 8.128 76.4083 9.232 76.5203 10.64H73.4963C73.4483 10.032 73.1603 9.512 72.6323 9.08C72.1043 8.648 71.4083 8.432 70.5443 8.432C69.7603 8.432 69.1203 8.632 68.6243 9.032C68.1283 9.432 67.8803 10.008 67.8803 10.76C67.8803 11.272 68.0323 11.696 68.3363 12.032C68.6563 12.352 69.0563 12.608 69.5363 12.8C70.0163 12.992 70.6723 13.2 71.5043 13.424C72.6083 13.728 73.5043 14.032 74.1923 14.336C74.8963 14.64 75.4883 15.112 75.9683 15.752C76.4643 16.376 76.7123 17.216 76.7123 18.272C76.7123 19.12 76.4803 19.92 76.0163 20.672C75.5683 21.424 74.9043 22.032 74.0243 22.496C73.1603 22.944 72.1363 23.168 70.9523 23.168ZM86.7806 9.56C87.7886 9.56 88.6846 9.776 89.4686 10.208C90.2686 10.64 90.8926 11.28 91.3406 12.128C91.8046 12.976 92.0366 14 92.0366 15.2V23H89.3246V15.608C89.3246 14.424 89.0286 13.52 88.4366 12.896C87.8446 12.256 87.0366 11.936 86.0126 11.936C84.9886 11.936 84.1726 12.256 83.5646 12.896C82.9726 13.52 82.6766 14.424 82.6766 15.608V23H79.9406V5.24H82.6766V11.312C83.1406 10.752 83.7246 10.32 84.4286 10.016C85.1486 9.712 85.9326 9.56 86.7806 9.56ZM96.9186 8.024C96.4226 8.024 96.0066 7.856 95.6706 7.52C95.3346 7.184 95.1666 6.768 95.1666 6.272C95.1666 5.776 95.3346 5.36 95.6706 5.024C96.0066 4.688 96.4226 4.52 96.9186 4.52C97.3986 4.52 97.8066 4.688 98.1426 5.024C98.4786 5.36 98.6466 5.776 98.6466 6.272C98.6466 6.768 98.4786 7.184 98.1426 7.52C97.8066 7.856 97.3986 8.024 96.9186 8.024ZM98.2626 9.776V23H95.5266V9.776H98.2626ZM104.591 11.72C105.055 11.112 105.687 10.6 106.487 10.184C107.287 9.768 108.191 9.56 109.199 9.56C110.351 9.56 111.399 9.848 112.343 10.424C113.303 10.984 114.055 11.776 114.599 12.8C115.143 13.824 115.415 15 115.415 16.328C115.415 17.656 115.143 18.848 114.599 19.904C114.055 20.944 113.303 21.76 112.343 22.352C111.399 22.928 110.351 23.216 109.199 23.216C108.191 23.216 107.295 23.016 106.511 22.616C105.727 22.2 105.087 21.688 104.591 21.08V29.288H101.855V9.776H104.591V11.72ZM112.631 16.328C112.631 15.416 112.439 14.632 112.055 13.976C111.687 13.304 111.191 12.8 110.567 12.464C109.959 12.112 109.303 11.936 108.599 11.936C107.911 11.936 107.255 12.112 106.631 12.464C106.023 12.816 105.527 13.328 105.143 14C104.775 14.672 104.591 15.464 104.591 16.376C104.591 17.288 104.775 18.088 105.143 18.776C105.527 19.448 106.023 19.96 106.631 20.312C107.255 20.664 107.911 20.84 108.599 20.84C109.303 20.84 109.959 20.664 110.567 20.312C111.191 19.944 111.687 19.416 112.055 18.728C112.439 18.04 112.631 17.24 112.631 16.328ZM120.856 11.72C121.32 11.112 121.952 10.6 122.752 10.184C123.552 9.768 124.456 9.56 125.464 9.56C126.616 9.56 127.664 9.848 128.608 10.424C129.568 10.984 130.32 11.776 130.864 12.8C131.408 13.824 131.68 15 131.68 16.328C131.68 17.656 131.408 18.848 130.864 19.904C130.32 20.944 129.568 21.76 128.608 22.352C127.664 22.928 126.616 23.216 125.464 23.216C124.456 23.216 123.56 23.016 122.776 22.616C121.992 22.2 121.352 21.688 120.856 21.08V29.288H118.12V9.776H120.856V11.72ZM128.896 16.328C128.896 15.416 128.704 14.632 128.32 13.976C127.952 13.304 127.456 12.8 126.832 12.464C126.224 12.112 125.568 11.936 124.864 11.936C124.176 11.936 123.52 12.112 122.896 12.464C122.288 12.816 121.792 13.328 121.408 14C121.04 14.672 120.856 15.464 120.856 16.376C120.856 17.288 121.04 18.088 121.408 18.776C121.792 19.448 122.288 19.96 122.896 20.312C123.52 20.664 124.176 20.84 124.864 20.84C125.568 20.84 126.224 20.664 126.832 20.312C127.456 19.944 127.952 19.416 128.32 18.728C128.704 18.04 128.896 17.24 128.896 16.328ZM135.778 8.024C135.282 8.024 134.866 7.856 134.53 7.52C134.194 7.184 134.026 6.768 134.026 6.272C134.026 5.776 134.194 5.36 134.53 5.024C134.866 4.688 135.282 4.52 135.778 4.52C136.258 4.52 136.666 4.688 137.002 5.024C137.338 5.36 137.506 5.776 137.506 6.272C137.506 6.768 137.338 7.184 137.002 7.52C136.666 7.856 136.258 8.024 135.778 8.024ZM137.122 9.776V23H134.386V9.776H137.122ZM147.386 9.56C148.426 9.56 149.354 9.776 150.17 10.208C151.002 10.64 151.65 11.28 152.114 12.128C152.578 12.976 152.81 14 152.81 15.2V23H150.098V15.608C150.098 14.424 149.802 13.52 149.21 12.896C148.618 12.256 147.81 11.936 146.786 11.936C145.762 11.936 144.946 12.256 144.338 12.896C143.746 13.52 143.45 14.424 143.45 15.608V23H140.714V9.776H143.45V11.288C143.898 10.744 144.466 10.32 145.154 10.016C145.858 9.712 146.602 9.56 147.386 9.56ZM161.628 9.56C162.652 9.56 163.556 9.768 164.34 10.184C165.14 10.584 165.764 11.088 166.212 11.696V9.776H168.972V23.216C168.972 24.432 168.716 25.512 168.204 26.456C167.692 27.416 166.948 28.168 165.972 28.712C165.012 29.256 163.86 29.528 162.516 29.528C160.724 29.528 159.236 29.104 158.052 28.256C156.868 27.424 156.196 26.288 156.036 24.848H158.748C158.956 25.536 159.396 26.088 160.068 26.504C160.756 26.936 161.572 27.152 162.516 27.152C163.62 27.152 164.508 26.816 165.18 26.144C165.868 25.472 166.212 24.496 166.212 23.216V21.008C165.748 21.632 165.116 22.16 164.316 22.592C163.532 23.008 162.636 23.216 161.628 23.216C160.476 23.216 159.42 22.928 158.46 22.352C157.516 21.76 156.764 20.944 156.204 19.904C155.66 18.848 155.388 17.656 155.388 16.328C155.388 15 155.66 13.824 156.204 12.8C156.764 11.776 157.516 10.984 158.46 10.424C159.42 9.848 160.476 9.56 161.628 9.56ZM166.212 16.376C166.212 15.464 166.02 14.672 165.636 14C165.268 13.328 164.78 12.816 164.172 12.464C163.564 12.112 162.908 11.936 162.204 11.936C161.5 11.936 160.844 12.112 160.236 12.464C159.628 12.8 159.132 13.304 158.748 13.976C158.38 14.632 158.196 15.416 158.196 16.328C158.196 17.24 158.38 18.04 158.748 18.728C159.132 19.416 159.628 19.944 160.236 20.312C160.86 20.664 161.516 20.84 162.204 20.84C162.908 20.84 163.564 20.664 164.172 20.312C164.78 19.96 165.268 19.448 165.636 18.776C166.02 18.088 166.212 17.288 166.212 16.376Z"/>
</mask>
<path d="M17.8504 6.32H18.8504V5.32H17.8504V6.32ZM17.8504 8.552V9.552H18.8504V8.552H17.8504ZM10.7704 8.552V7.552H9.77038V8.552H10.7704ZM10.7704 13.472H9.77038V14.472H10.7704V13.472ZM16.2904 13.472H17.2904V12.472H16.2904V13.472ZM16.2904 15.704V16.704H17.2904V15.704H16.2904ZM10.7704 15.704V14.704H9.77038V15.704H10.7704ZM10.7704 23V24H11.7704V23H10.7704ZM8.03438 23H7.03438V24H8.03438V23ZM8.03438 6.32V5.32H7.03438V6.32H8.03438ZM16.8504 6.32V8.552H18.8504V6.32H16.8504ZM17.8504 7.552H10.7704V9.552H17.8504V7.552ZM9.77038 8.552V13.472H11.7704V8.552H9.77038ZM10.7704 14.472H16.2904V12.472H10.7704V14.472ZM15.2904 13.472V15.704H17.2904V13.472H15.2904ZM16.2904 14.704H10.7704V16.704H16.2904V14.704ZM9.77038 15.704V23H11.7704V15.704H9.77038ZM10.7704 22H8.03438V24H10.7704V22ZM9.03438 23V6.32H7.03438V23H9.03438ZM8.03438 7.32H17.8504V5.32H8.03438V7.32ZM23.1219 11.696H22.1219V15.3311L23.9812 12.2075L23.1219 11.696ZM24.7059 10.136L25.1952 11.0082L25.2021 11.0042L24.7059 10.136ZM27.0819 9.56H28.0819V8.56H27.0819V9.56ZM27.0819 12.392V13.392H28.0819V12.392H27.0819ZM23.9379 13.208L23.2412 12.4907L23.236 12.4958L23.2308 12.5009L23.9379 13.208ZM23.1219 23V24H24.1219V23H23.1219ZM20.3859 23H19.3859V24H20.3859V23ZM20.3859 9.776V8.776H19.3859V9.776H20.3859ZM23.1219 9.776H24.1219V8.776H23.1219V9.776ZM23.9812 12.2075C24.2953 11.6798 24.6982 11.2869 25.1952 11.0081L24.2167 9.26386C23.4017 9.72106 22.7486 10.3682 22.2626 11.1845L23.9812 12.2075ZM25.2021 11.0042C25.698 10.7209 26.3128 10.56 27.0819 10.56V8.56C26.0271 8.56 25.0579 8.78315 24.2098 9.26776L25.2021 11.0042ZM26.0819 9.56V12.392H28.0819V9.56H26.0819ZM27.0819 11.392H26.3859V13.392H27.0819V11.392ZM26.3859 11.392C25.1525 11.392 24.0483 11.7066 23.2412 12.4907L24.6347 13.9253C24.9475 13.6214 25.4753 13.392 26.3859 13.392V11.392ZM23.2308 12.5009C22.4006 13.3312 22.1219 14.6142 22.1219 16.04H24.1219C24.1219 14.7778 24.3873 14.1728 24.645 13.9151L23.2308 12.5009ZM22.1219 16.04V23H24.1219V16.04H22.1219ZM23.1219 22H20.3859V24H23.1219V22ZM21.3859 23V9.776H19.3859V23H21.3859ZM20.3859 10.776H23.1219V8.776H20.3859V10.776ZM22.1219 9.776V11.696H24.1219V9.776H22.1219ZM41.6209 17.408V18.408H42.4736L42.6083 17.566L41.6209 17.408ZM31.5169 17.408V16.408H30.4383L30.5197 17.4835L31.5169 17.408ZM32.6929 19.952L32.0202 20.6919L32.0202 20.6919L32.6929 19.952ZM38.4049 19.064V18.064H37.7832L37.5081 18.6215L38.4049 19.064ZM41.3569 19.064L42.3068 19.3765L42.7385 18.064H41.3569V19.064ZM39.1729 22.064L39.7669 22.8684L39.769 22.8669L39.1729 22.064ZM31.8769 22.376L31.3747 23.2408L31.3829 23.2456L31.3912 23.2502L31.8769 22.376ZM29.5249 19.976L28.6444 20.4501L28.6488 20.4582L28.6533 20.4663L29.5249 19.976ZM29.5009 12.8L28.6204 12.3259L28.6178 12.3308L29.5009 12.8ZM31.8289 10.4L31.3432 9.52582L31.3373 9.52917L31.8289 10.4ZM38.6209 10.376L39.1077 9.50252L39.1077 9.50252L38.6209 10.376ZM40.9009 12.68L40.024 13.1608L40.0274 13.1669L40.9009 12.68ZM38.8609 15.2V16.2H39.8769L39.8607 15.1841L38.8609 15.2ZM37.7809 12.776L38.4345 12.0192L38.4345 12.0192L37.7809 12.776ZM32.7409 12.776L33.402 13.5264L33.4118 13.5175L32.7409 12.776ZM31.5409 15.2L30.5486 15.076L30.4081 16.2H31.5409V15.2ZM40.7169 16.064C40.7169 16.5184 40.6875 16.9123 40.6334 17.25L42.6083 17.566C42.6823 17.1037 42.7169 16.6016 42.7169 16.064H40.7169ZM41.6209 16.408H31.5169V18.408H41.6209V16.408ZM30.5197 17.4835C30.6167 18.763 31.1051 19.8601 32.0202 20.6919L33.3655 19.2121C32.8726 18.7639 32.5771 18.165 32.514 17.3325L30.5197 17.4835ZM32.0202 20.6919C32.923 21.5127 34.0328 21.912 35.2849 21.912V19.912C34.489 19.912 33.8707 19.6713 33.3655 19.2121L32.0202 20.6919ZM35.2849 21.912C36.1612 21.912 36.9738 21.7278 37.6785 21.3104C38.3873 20.8906 38.9239 20.272 39.3016 19.5065L37.5081 18.6215C37.2779 19.088 36.9904 19.3934 36.6593 19.5896C36.324 19.7882 35.8806 19.912 35.2849 19.912V21.912ZM38.4049 20.064H41.3569V18.064H38.4049V20.064ZM40.4069 18.7515C40.0733 19.7658 39.4719 20.5965 38.5768 21.2611L39.769 22.8669C40.9859 21.9635 41.8404 20.7942 42.3068 19.3765L40.4069 18.7515ZM38.5788 21.2596C37.7432 21.8767 36.667 22.216 35.2849 22.216V24.216C37.0067 24.216 38.5226 23.7873 39.7669 22.8684L38.5788 21.2596ZM35.2849 22.216C34.1741 22.216 33.208 21.9715 32.3625 21.5018L31.3912 23.2502C32.5618 23.9005 33.8677 24.216 35.2849 24.216V22.216ZM32.379 21.5112C31.5453 21.0271 30.8872 20.3581 30.3965 19.4857L28.6533 20.4663C29.3146 21.6419 30.2245 22.5729 31.3747 23.2408L32.379 21.5112ZM30.4053 19.5019C29.935 18.6283 29.6849 17.5958 29.6849 16.376H27.6849C27.6849 17.8762 27.9948 19.2437 28.6444 20.4501L30.4053 19.5019ZM29.6849 16.376C29.6849 15.1513 29.929 14.1256 30.384 13.2692L28.6178 12.3308C27.9847 13.5224 27.6849 14.8807 27.6849 16.376H29.6849ZM30.3813 13.2741C30.8553 12.394 31.4992 11.7344 32.3205 11.2708L31.3373 9.52917C30.1745 10.1856 29.2665 11.126 28.6204 12.3259L30.3813 13.2741ZM32.3145 11.2742C33.1563 10.8065 34.1374 10.56 35.2849 10.56V8.56C33.8404 8.56 32.5175 8.87349 31.3432 9.52584L32.3145 11.2742ZM35.2849 10.56C36.3828 10.56 37.3237 10.7978 38.134 11.2495L39.1077 9.50252C37.9661 8.86619 36.683 8.56 35.2849 8.56V10.56ZM38.134 11.2495C38.9435 11.7007 39.5693 12.3316 40.0241 13.1608L41.7777 12.1992C41.1444 11.0444 40.2502 10.1393 39.1077 9.50252L38.134 11.2495ZM40.0274 13.1669C40.477 13.9735 40.7169 14.9293 40.7169 16.064H42.7169C42.7169 14.6387 42.4127 13.3385 41.7744 12.1931L40.0274 13.1669ZM39.8607 15.1841C39.8407 13.9179 39.3738 12.8304 38.4345 12.0192L37.1273 13.5328C37.596 13.9376 37.8491 14.4661 37.861 15.2159L39.8607 15.1841ZM38.4345 12.0192C37.5272 11.2356 36.4146 10.864 35.1649 10.864V12.864C35.9952 12.864 36.6266 13.1004 37.1273 13.5328L38.4345 12.0192ZM35.1649 10.864C33.9843 10.864 32.9341 11.2527 32.07 12.0345L33.4118 13.5175C33.8917 13.0833 34.4575 12.864 35.1649 12.864V10.864ZM32.0798 12.0256C31.197 12.8034 30.702 13.849 30.5486 15.076L32.5332 15.324C32.6358 14.503 32.9407 13.9326 33.4019 13.5264L32.0798 12.0256ZM31.5409 16.2H38.8609V14.2H31.5409V16.2ZM56.4334 17.408V18.408H57.2861L57.4208 17.566L56.4334 17.408ZM46.3294 17.408V16.408H45.2508L45.3322 17.4835L46.3294 17.408ZM47.5054 19.952L46.8327 20.6919L46.8327 20.6919L47.5054 19.952ZM53.2174 19.064V18.064H52.5957L52.3206 18.6215L53.2174 19.064ZM56.1694 19.064L57.1193 19.3765L57.551 18.064H56.1694V19.064ZM53.9854 22.064L54.5794 22.8684L54.5815 22.8669L53.9854 22.064ZM46.6894 22.376L46.1872 23.2408L46.1954 23.2456L46.2037 23.2502L46.6894 22.376ZM44.3374 19.976L43.4569 20.4501L43.4613 20.4582L43.4658 20.4663L44.3374 19.976ZM44.3134 12.8L43.4329 12.3259L43.4303 12.3308L44.3134 12.8ZM46.6414 10.4L46.1557 9.52582L46.1498 9.52917L46.6414 10.4ZM53.4334 10.376L53.9202 9.50252L53.9202 9.50252L53.4334 10.376ZM55.7134 12.68L54.8365 13.1608L54.8399 13.1669L55.7134 12.68ZM53.6734 15.2V16.2H54.6894L54.6732 15.1841L53.6734 15.2ZM52.5934 12.776L53.247 12.0192L53.247 12.0192L52.5934 12.776ZM47.5534 12.776L48.2145 13.5264L48.2243 13.5175L47.5534 12.776ZM46.3534 15.2L45.3611 15.076L45.2206 16.2H46.3534V15.2ZM55.5294 16.064C55.5294 16.5184 55.5 16.9123 55.4459 17.25L57.4208 17.566C57.4948 17.1037 57.5294 16.6016 57.5294 16.064H55.5294ZM56.4334 16.408H46.3294V18.408H56.4334V16.408ZM45.3322 17.4835C45.4292 18.763 45.9176 19.8601 46.8327 20.6919L48.178 19.2121C47.6851 18.7639 47.3896 18.165 47.3265 17.3325L45.3322 17.4835ZM46.8327 20.6919C47.7355 21.5127 48.8453 21.912 50.0974 21.912V19.912C49.3015 19.912 48.6832 19.6713 48.178 19.2121L46.8327 20.6919ZM50.0974 21.912C50.9737 21.912 51.7863 21.7278 52.491 21.3104C53.1998 20.8906 53.7364 20.272 54.1141 19.5065L52.3206 18.6215C52.0904 19.088 51.8029 19.3934 51.4718 19.5896C51.1365 19.7882 50.6931 19.912 50.0974 19.912V21.912ZM53.2174 20.064H56.1694V18.064H53.2174V20.064ZM55.2194 18.7515C54.8858 19.7658 54.2844 20.5965 53.3893 21.2611L54.5815 22.8669C55.7984 21.9635 56.6529 20.7942 57.1193 19.3765L55.2194 18.7515ZM53.3913 21.2596C52.5557 21.8767 51.4795 22.216 50.0974 22.216V24.216C51.8192 24.216 53.3351 23.7873 54.5794 22.8684L53.3913 21.2596ZM50.0974 22.216C48.9866 22.216 48.0205 21.9715 47.175 21.5018L46.2037 23.2502C47.3743 23.9005 48.6802 24.216 50.0974 24.216V22.216ZM47.1915 21.5112C46.3578 21.0271 45.6997 20.3581 45.209 19.4857L43.4658 20.4663C44.1271 21.6419 45.037 22.5729 46.1872 23.2408L47.1915 21.5112ZM45.2178 19.5019C44.7475 18.6283 44.4974 17.5958 44.4974 16.376H42.4974C42.4974 17.8762 42.8073 19.2437 43.4569 20.4501L45.2178 19.5019ZM44.4974 16.376C44.4974 15.1513 44.7415 14.1256 45.1965 13.2692L43.4303 12.3308C42.7972 13.5224 42.4974 14.8807 42.4974 16.376H44.4974ZM45.1938 13.2741C45.6678 12.394 46.3117 11.7344 47.133 11.2708L46.1498 9.52917C44.987 10.1856 44.079 11.126 43.4329 12.3259L45.1938 13.2741ZM47.127 11.2742C47.9688 10.8065 48.9499 10.56 50.0974 10.56V8.56C48.6529 8.56 47.33 8.87349 46.1557 9.52584L47.127 11.2742ZM50.0974 10.56C51.1953 10.56 52.1362 10.7978 52.9465 11.2495L53.9202 9.50252C52.7786 8.86619 51.4955 8.56 50.0974 8.56V10.56ZM52.9465 11.2495C53.756 11.7007 54.3818 12.3316 54.8366 13.1608L56.5902 12.1992C55.9569 11.0444 55.0627 10.1393 53.9202 9.50252L52.9465 11.2495ZM54.8399 13.1669C55.2895 13.9735 55.5294 14.9293 55.5294 16.064H57.5294C57.5294 14.6387 57.2252 13.3385 56.5869 12.1931L54.8399 13.1669ZM54.6732 15.1841C54.6532 13.9179 54.1863 12.8304 53.247 12.0192L51.9398 13.5328C52.4085 13.9376 52.6616 14.4661 52.6735 15.2159L54.6732 15.1841ZM53.247 12.0192C52.3397 11.2356 51.2271 10.864 49.9774 10.864V12.864C50.8077 12.864 51.4391 13.1004 51.9398 13.5328L53.247 12.0192ZM49.9774 10.864C48.7968 10.864 47.7466 11.2527 46.8825 12.0345L48.2243 13.5175C48.7042 13.0833 49.27 12.864 49.9774 12.864V10.864ZM46.8923 12.0256C46.0095 12.8034 45.5145 13.849 45.3611 15.076L47.3457 15.324C47.4483 14.503 47.7532 13.9326 48.2144 13.5264L46.8923 12.0256ZM46.3534 16.2H53.6734V14.2H46.3534V16.2ZM67.9283 22.592L67.5206 23.5051L67.5274 23.5082L67.5343 23.5111L67.9283 22.592ZM65.8163 20.912L66.6312 20.3325L66.6312 20.3325L65.8163 20.912ZM65.0483 18.392V17.392H64.0483V18.392H65.0483ZM67.9763 18.392L68.9723 18.3035L68.8913 17.392H67.9763V18.392ZM68.8163 20.168L68.1331 20.8983L68.1389 20.9037L68.1447 20.909L68.8163 20.168ZM73.1603 20.192L73.8072 20.9545L73.8138 20.9489L73.8204 20.9432L73.1603 20.192ZM73.4483 17.048L72.7083 17.7207L72.7165 17.7297L72.7249 17.7385L73.4483 17.048ZM72.2243 16.232L71.8528 17.1605L71.8633 17.1646L72.2243 16.232ZM70.2083 15.608L69.9524 16.5747L69.9573 16.576L70.2083 15.608ZM67.5443 14.744L67.1321 15.6551L67.145 15.661L67.1581 15.6664L67.5443 14.744ZM65.8163 8.336L66.6483 8.8907L66.6483 8.8907L65.8163 8.336ZM67.8323 6.68L68.2384 7.59381L68.2384 7.59381L67.8323 6.68ZM74.7923 7.328L74.169 8.11006L74.1757 8.1154L74.1825 8.12062L74.7923 7.328ZM76.5203 10.64V11.64H77.603L77.5171 10.5607L76.5203 10.64ZM73.4963 10.64L72.4994 10.7187L72.5721 11.64H73.4963V10.64ZM68.6243 9.032L69.252 9.81041L69.252 9.81041L68.6243 9.032ZM68.3363 12.032L67.5947 12.7029L67.6115 12.7214L67.6291 12.7391L68.3363 12.032ZM71.5043 13.424L71.7697 12.4599L71.7642 12.4584L71.5043 13.424ZM74.1923 14.336L73.7881 15.2507L73.7958 15.2541L74.1923 14.336ZM75.9683 15.752L75.1683 16.352L75.1767 16.3632L75.1854 16.3742L75.9683 15.752ZM76.0163 20.672L75.1652 20.1469L75.1611 20.1535L75.1571 20.1602L76.0163 20.672ZM74.0243 22.496L74.4846 23.3838L74.4907 23.3806L74.0243 22.496ZM70.9523 22.168C69.9476 22.168 69.0765 21.9961 68.3222 21.6729L67.5343 23.5111C68.572 23.9559 69.7169 24.168 70.9523 24.168V22.168ZM68.3359 21.6789C67.5845 21.3434 67.0285 20.8912 66.6312 20.3325L65.0013 21.4915C65.628 22.3728 66.48 23.0406 67.5206 23.5051L68.3359 21.6789ZM66.6312 20.3325C66.2501 19.7965 66.0483 19.1632 66.0483 18.392H64.0483C64.0483 19.5408 64.3584 20.5875 65.0013 21.4915L66.6312 20.3325ZM65.0483 19.392H67.9763V17.392H65.0483V19.392ZM66.9802 18.4805C67.0644 19.4285 67.4452 20.2547 68.1331 20.8983L69.4994 19.4377C69.1953 19.1533 69.0161 18.7955 68.9723 18.3035L66.9802 18.4805ZM68.1447 20.909C68.893 21.5871 69.8731 21.864 70.9523 21.864V19.864C70.2074 19.864 69.7635 19.6769 69.4878 19.427L68.1447 20.909ZM70.9523 21.864C72.0471 21.864 73.0422 21.6036 73.8072 20.9545L72.5133 19.4295C72.2223 19.6764 71.7454 19.864 70.9523 19.864V21.864ZM73.8204 20.9432C74.5704 20.2841 74.9523 19.4156 74.9523 18.416H72.9523C72.9523 18.8564 72.8062 19.1719 72.5001 19.4408L73.8204 20.9432ZM74.9523 18.416C74.9523 17.6406 74.712 16.9237 74.1716 16.3575L72.7249 17.7385C72.8565 17.8763 72.9523 18.0714 72.9523 18.416H74.9523ZM74.1882 16.3753C73.752 15.8955 73.2087 15.5408 72.5852 15.2994L71.8633 17.1646C72.2318 17.3072 72.5045 17.4965 72.7083 17.7207L74.1882 16.3753ZM72.5956 15.3035C72.0582 15.0885 71.3394 14.8682 70.4592 14.64L69.9573 16.576C70.8051 16.7958 71.4303 16.9915 71.8529 17.1605L72.5956 15.3035ZM70.4641 14.6413C69.4006 14.3598 68.5605 14.0853 67.9304 13.8216L67.1581 15.6664C67.904 15.9787 68.8399 16.2802 69.9524 16.5747L70.4641 14.6413ZM67.9564 13.8329C67.4441 13.6011 66.9957 13.2451 66.6089 12.7423L65.0236 13.9617C65.5968 14.7069 66.3004 15.2789 67.1321 15.6551L67.9564 13.8329ZM66.6089 12.7423C66.3009 12.3419 66.0963 11.7462 66.0963 10.856H64.0963C64.0963 12.0458 64.3716 13.1141 65.0236 13.9617L66.6089 12.7423ZM66.0963 10.856C66.0963 10.071 66.2896 9.4287 66.6483 8.8907L64.9842 7.7813C64.3829 8.68329 64.0963 9.72101 64.0963 10.856H66.0963ZM66.6483 8.8907C67.0135 8.34283 67.5309 7.90827 68.2384 7.59381L67.4261 5.76619C66.4056 6.21973 65.579 6.88917 64.9842 7.7813L66.6483 8.8907ZM68.2384 7.59381C68.9514 7.27689 69.8085 7.104 70.8323 7.104V5.104C69.584 5.104 68.4411 5.3151 67.4261 5.76619L68.2384 7.59381ZM70.8323 7.104C72.2763 7.104 73.3605 7.46572 74.169 8.11006L75.4155 6.54594C74.176 5.55828 72.6202 5.104 70.8323 5.104V7.104ZM74.1825 8.12062C74.9799 8.73398 75.4319 9.56889 75.5234 10.7193L77.5171 10.5607C77.3846 8.89511 76.6846 7.52202 75.402 6.53537L74.1825 8.12062ZM76.5203 9.64H73.4963V11.64H76.5203V9.64ZM74.4931 10.5613C74.4211 9.64816 73.9768 8.88806 73.2655 8.30604L71.999 9.85396C72.3437 10.1359 72.4754 10.4158 72.4994 10.7187L74.4931 10.5613ZM73.2655 8.30604C72.5156 7.69248 71.5762 7.432 70.5443 7.432V9.432C71.2403 9.432 71.6929 9.60352 71.999 9.85396L73.2655 8.30604ZM70.5443 7.432C69.586 7.432 68.7083 7.67952 67.9965 8.25359L69.252 9.81041C69.5322 9.58447 69.9345 9.432 70.5443 9.432V7.432ZM67.9965 8.25359C67.2215 8.87855 66.8803 9.76636 66.8803 10.76H68.8803C68.8803 10.2496 69.035 9.98545 69.252 9.81041L67.9965 8.25359ZM66.8803 10.76C66.8803 11.4853 67.1025 12.1589 67.5947 12.7029L69.0778 11.3611C68.962 11.2331 68.8803 11.0587 68.8803 10.76H66.8803ZM67.6291 12.7391C68.0576 13.1676 68.5769 13.4933 69.1649 13.7285L69.9076 11.8715C69.5356 11.7227 69.2549 11.5364 69.0434 11.3249L67.6291 12.7391ZM69.1649 13.7285C69.6972 13.9414 70.3958 14.1612 71.2443 14.3896L71.7642 12.4584C70.9487 12.2388 70.3353 12.0426 69.9076 11.8715L69.1649 13.7285ZM71.2388 14.3881C72.3171 14.6851 73.1618 14.974 73.7881 15.2507L74.5964 13.4213C73.8467 13.09 72.8994 12.7709 71.7697 12.4599L71.2388 14.3881ZM73.7958 15.2541C74.3328 15.486 74.7881 15.8451 75.1683 16.352L76.7683 15.152C76.1884 14.3789 75.4597 13.794 74.5887 13.4179L73.7958 15.2541ZM75.1854 16.3742C75.501 16.7712 75.7123 17.3684 75.7123 18.272H77.7123C77.7123 17.0636 77.4275 15.9808 76.7511 15.1298L75.1854 16.3742ZM75.7123 18.272C75.7123 18.9265 75.5361 19.5458 75.1652 20.1469L76.8673 21.1971C77.4244 20.2942 77.7123 19.3135 77.7123 18.272H75.7123ZM75.1571 20.1602C74.8156 20.7335 74.2979 21.2212 73.5578 21.6114L74.4907 23.3806C75.5106 22.8428 76.3209 22.1145 76.8754 21.1838L75.1571 20.1602ZM73.5639 21.6082C72.8698 21.9682 72.0103 22.168 70.9523 22.168V24.168C72.2622 24.168 73.4507 23.9198 74.4846 23.3838L73.5639 21.6082ZM89.4686 10.208L88.986 11.0839L88.9935 11.0879L89.4686 10.208ZM91.3406 12.128L90.4564 12.5951L90.4599 12.6016L90.4634 12.608L91.3406 12.128ZM92.0366 23V24H93.0366V23H92.0366ZM89.3246 23H88.3246V24H89.3246V23ZM88.4366 12.896L87.7025 13.5751L87.7112 13.5843L88.4366 12.896ZM83.5646 12.896L82.8396 12.2072L82.8392 12.2077L83.5646 12.896ZM82.6766 23V24H83.6766V23H82.6766ZM79.9406 23H78.9406V24H79.9406V23ZM79.9406 5.24V4.24H78.9406V5.24H79.9406ZM82.6766 5.24H83.6766V4.24H82.6766V5.24ZM82.6766 11.312H81.6766V14.0863L83.4466 11.95L82.6766 11.312ZM84.4286 10.016L84.0396 9.09472L84.0322 9.09794L84.4286 10.016ZM86.7806 10.56C87.6415 10.56 88.3677 10.7431 88.986 11.0838L89.9512 9.33216C89.0016 8.80888 87.9358 8.56 86.7806 8.56V10.56ZM88.9935 11.0879C89.6095 11.4205 90.0956 11.9121 90.4564 12.5951L92.2248 11.6609C91.6897 10.6479 90.9278 9.85946 89.9438 9.32809L88.9935 11.0879ZM90.4634 12.608C90.8296 13.2774 91.0366 14.1278 91.0366 15.2H93.0366C93.0366 13.8722 92.7796 12.6746 92.2179 11.648L90.4634 12.608ZM91.0366 15.2V23H93.0366V15.2H91.0366ZM92.0366 22H89.3246V24H92.0366V22ZM90.3246 23V15.608H88.3246V23H90.3246ZM90.3246 15.608C90.3246 14.2656 89.9877 13.078 89.1621 12.2077L87.7112 13.5843C88.0695 13.962 88.3246 14.5824 88.3246 15.608H90.3246ZM89.1707 12.217C88.3562 11.3364 87.2623 10.936 86.0126 10.936V12.936C86.811 12.936 87.3331 13.1756 87.7025 13.575L89.1707 12.217ZM86.0126 10.936C84.7623 10.936 83.667 11.3363 82.8396 12.2072L84.2896 13.5847C84.6782 13.1757 85.2149 12.936 86.0126 12.936V10.936ZM82.8392 12.2077C82.0135 13.078 81.6766 14.2656 81.6766 15.608H83.6766C83.6766 14.5824 83.9317 13.962 84.2901 13.5843L82.8392 12.2077ZM81.6766 15.608V23H83.6766V15.608H81.6766ZM82.6766 22H79.9406V24H82.6766V22ZM80.9406 23V5.24H78.9406V23H80.9406ZM79.9406 6.24H82.6766V4.24H79.9406V6.24ZM81.6766 5.24V11.312H83.6766V5.24H81.6766ZM83.4466 11.95C83.8045 11.5182 84.2578 11.179 84.8251 10.9341L84.0322 9.09794C83.1914 9.461 82.4768 9.98584 81.9066 10.674L83.4466 11.95ZM84.8176 10.9372C85.4044 10.6895 86.0548 10.56 86.7806 10.56V8.56C85.8105 8.56 84.8929 8.7345 84.0397 9.09475L84.8176 10.9372ZM95.6706 7.52L96.3777 6.81289L96.3777 6.81289L95.6706 7.52ZM95.6706 5.024L96.3777 5.73111L96.3777 5.73111L95.6706 5.024ZM98.1426 5.024L97.4355 5.73111L97.4355 5.73111L98.1426 5.024ZM98.1426 7.52L97.4355 6.81289L97.4355 6.81289L98.1426 7.52ZM98.2626 9.776H99.2626V8.776H98.2626V9.776ZM98.2626 23V24H99.2626V23H98.2626ZM95.5266 23H94.5266V24H95.5266V23ZM95.5266 9.776V8.776H94.5266V9.776H95.5266ZM96.9186 7.024C96.6748 7.024 96.5172 6.95239 96.3777 6.81289L94.9635 8.22711C95.496 8.75961 96.1703 9.024 96.9186 9.024V7.024ZM96.3777 6.81289C96.2382 6.6734 96.1666 6.51574 96.1666 6.272H94.1666C94.1666 7.02026 94.431 7.6946 94.9635 8.22711L96.3777 6.81289ZM96.1666 6.272C96.1666 6.02826 96.2382 5.8706 96.3777 5.73111L94.9635 4.31689C94.431 4.84939 94.1666 5.52374 94.1666 6.272H96.1666ZM96.3777 5.73111C96.5172 5.59161 96.6748 5.52 96.9186 5.52V3.52C96.1703 3.52 95.496 3.78439 94.9635 4.31689L96.3777 5.73111ZM96.9186 5.52C97.1364 5.52 97.2891 5.58477 97.4355 5.73111L98.8497 4.31689C98.324 3.79123 97.6608 3.52 96.9186 3.52V5.52ZM97.4355 5.73111C97.575 5.8706 97.6466 6.02826 97.6466 6.272H99.6466C99.6466 5.52374 99.3822 4.84939 98.8497 4.31689L97.4355 5.73111ZM97.6466 6.272C97.6466 6.51574 97.575 6.6734 97.4355 6.81289L98.8497 8.22711C99.3822 7.6946 99.6466 7.02026 99.6466 6.272H97.6466ZM97.4355 6.81289C97.2891 6.95923 97.1364 7.024 96.9186 7.024V9.024C97.6608 9.024 98.324 8.75277 98.8497 8.22711L97.4355 6.81289ZM97.2626 9.776V23H99.2626V9.776H97.2626ZM98.2626 22H95.5266V24H98.2626V22ZM96.5266 23V9.776H94.5266V23H96.5266ZM95.5266 10.776H98.2626V8.776H95.5266V10.776ZM104.591 11.72H103.591V14.6787L105.386 12.3267L104.591 11.72ZM106.487 10.184L106.025 9.29678L106.025 9.29678L106.487 10.184ZM112.343 10.424L111.822 11.2776L111.83 11.2828L111.839 11.2878L112.343 10.424ZM114.599 12.8L113.716 13.2692L113.716 13.2692L114.599 12.8ZM114.599 19.904L115.485 20.3675L115.488 20.362L114.599 19.904ZM112.343 22.352L112.864 23.2056L112.868 23.2032L112.343 22.352ZM106.511 22.616L106.042 23.4993L106.049 23.5031L106.056 23.5068L106.511 22.616ZM104.591 21.08L105.366 20.4479L103.591 18.2722V21.08H104.591ZM104.591 29.288V30.288H105.591V29.288H104.591ZM101.855 29.288H100.855V30.288H101.855V29.288ZM101.855 9.776V8.776H100.855V9.776H101.855ZM104.591 9.776H105.591V8.776H104.591V9.776ZM112.055 13.976L111.178 14.4563L111.184 14.4688L111.192 14.4812L112.055 13.976ZM110.567 12.464L110.066 13.3294L110.079 13.3372L110.093 13.3445L110.567 12.464ZM106.631 12.464L106.139 11.593L106.13 11.5986L106.631 12.464ZM105.143 14L104.274 13.5039L104.27 13.5117L104.266 13.5197L105.143 14ZM105.143 18.776L104.261 19.2477L104.268 19.26L104.274 19.2721L105.143 18.776ZM106.631 20.312L106.13 21.1775L106.139 21.183L106.631 20.312ZM110.567 20.312L111.068 21.1775L111.075 21.1734L110.567 20.312ZM112.055 18.728L111.181 18.2406L111.177 18.2485L111.173 18.2563L112.055 18.728ZM105.386 12.3267C105.746 11.8547 106.255 11.4314 106.948 11.0712L106.025 9.29678C105.118 9.7686 104.364 10.3693 103.796 11.1133L105.386 12.3267ZM106.948 11.0712C107.589 10.7377 108.332 10.56 109.199 10.56V8.56C108.049 8.56 106.984 8.79831 106.025 9.29678L106.948 11.0712ZM109.199 10.56C110.175 10.56 111.041 10.8015 111.822 11.2776L112.864 9.57036C111.756 8.89454 110.526 8.56 109.199 8.56V10.56ZM111.839 11.2878C112.631 11.7499 113.255 12.4019 113.716 13.2692L115.482 12.3308C114.855 11.1501 113.974 10.2181 112.847 9.56022L111.839 11.2878ZM113.716 13.2692C114.172 14.1289 114.415 15.1396 114.415 16.328H116.415C116.415 14.8604 116.113 13.5191 115.482 12.3308L113.716 13.2692ZM114.415 16.328C114.415 17.5157 114.173 18.5477 113.71 19.446L115.488 20.362C116.113 19.1483 116.415 17.7963 116.415 16.328H114.415ZM113.713 19.4405C113.248 20.3279 112.618 21.0072 111.818 21.5008L112.868 23.2032C113.987 22.5128 114.861 21.5601 115.485 20.3675L113.713 19.4405ZM111.822 21.4984C111.041 21.9745 110.175 22.216 109.199 22.216V24.216C110.526 24.216 111.756 23.8815 112.864 23.2056L111.822 21.4984ZM109.199 22.216C108.326 22.216 107.589 22.0436 106.965 21.7252L106.056 23.5068C107 23.9884 108.056 24.216 109.199 24.216V22.216ZM106.979 21.7327C106.298 21.371 105.767 20.9399 105.366 20.4479L103.816 21.7121C104.406 22.4361 105.156 23.029 106.042 23.4993L106.979 21.7327ZM103.591 21.08V29.288H105.591V21.08H103.591ZM104.591 28.288H101.855V30.288H104.591V28.288ZM102.855 29.288V9.776H100.855V29.288H102.855ZM101.855 10.776H104.591V8.776H101.855V10.776ZM103.591 9.776V11.72H105.591V9.776H103.591ZM113.631 16.328C113.631 15.274 113.408 14.3081 112.918 13.4708L111.192 14.4812C111.47 14.9559 111.631 15.558 111.631 16.328H113.631ZM112.932 13.4957C112.479 12.6685 111.849 12.0186 111.041 11.5835L110.093 13.3445C110.533 13.5814 110.895 13.9395 111.178 14.4563L112.932 13.4957ZM111.068 11.5986C110.307 11.1582 109.478 10.936 108.599 10.936V12.936C109.127 12.936 109.61 13.0658 110.066 13.3294L111.068 11.5986ZM108.599 10.936C107.731 10.936 106.907 11.1601 106.139 11.593L107.122 13.335C107.603 13.0639 108.09 12.936 108.599 12.936V10.936ZM106.13 11.5986C105.354 12.0479 104.737 12.6945 104.274 13.5039L106.011 14.4961C106.316 13.9615 106.692 13.5841 107.132 13.3294L106.13 11.5986ZM104.266 13.5197C103.803 14.3646 103.591 15.328 103.591 16.376H105.591C105.591 15.6 105.746 14.9794 106.02 14.4803L104.266 13.5197ZM103.591 16.376C103.591 17.4247 103.803 18.3918 104.261 19.2477L106.024 18.3043C105.746 17.7842 105.591 17.1513 105.591 16.376H103.591ZM104.274 19.2721C104.737 20.0815 105.354 20.7281 106.13 21.1774L107.132 19.4466C106.692 19.1919 106.316 18.8145 106.011 18.2799L104.274 19.2721ZM106.139 21.183C106.907 21.6159 107.731 21.84 108.599 21.84V19.84C108.09 19.84 107.603 19.7121 107.122 19.441L106.139 21.183ZM108.599 21.84C109.478 21.84 110.307 21.6178 111.068 21.1774L110.066 19.4466C109.61 19.7102 109.127 19.84 108.599 19.84V21.84ZM111.075 21.1734C111.869 20.705 112.489 20.0364 112.936 19.1997L111.173 18.2563C110.884 18.7956 110.513 19.183 110.059 19.4506L111.075 21.1734ZM112.928 19.2154C113.407 18.3564 113.631 17.3835 113.631 16.328H111.631C111.631 17.0965 111.47 17.7236 111.181 18.2406L112.928 19.2154ZM120.856 11.72H119.856V14.6787L121.651 12.3267L120.856 11.72ZM122.752 10.184L122.291 9.29678L122.291 9.29678L122.752 10.184ZM128.608 10.424L128.087 11.2776L128.096 11.2828L128.104 11.2878L128.608 10.424ZM130.864 12.8L129.981 13.2692L129.981 13.2692L130.864 12.8ZM130.864 19.904L131.75 20.3675L131.753 20.362L130.864 19.904ZM128.608 22.352L129.129 23.2056L129.133 23.2032L128.608 22.352ZM122.776 22.616L122.308 23.4993L122.315 23.5031L122.322 23.5068L122.776 22.616ZM120.856 21.08L121.631 20.4479L119.856 18.2722V21.08H120.856ZM120.856 29.288V30.288H121.856V29.288H120.856ZM118.12 29.288H117.12V30.288H118.12V29.288ZM118.12 9.776V8.776H117.12V9.776H118.12ZM120.856 9.776H121.856V8.776H120.856V9.776ZM128.32 13.976L127.443 14.4563L127.45 14.4688L127.457 14.4812L128.32 13.976ZM126.832 12.464L126.331 13.3294L126.345 13.3372L126.358 13.3445L126.832 12.464ZM122.896 12.464L122.405 11.593L122.395 11.5986L122.896 12.464ZM121.408 14L120.54 13.5039L120.536 13.5117L120.531 13.5197L121.408 14ZM121.408 18.776L120.527 19.2477L120.533 19.26L120.54 19.2721L121.408 18.776ZM122.896 20.312L122.395 21.1775L122.405 21.183L122.896 20.312ZM126.832 20.312L127.333 21.1775L127.34 21.1734L126.832 20.312ZM128.32 18.728L127.447 18.2406L127.443 18.2485L127.439 18.2563L128.32 18.728ZM121.651 12.3267C122.011 11.8547 122.521 11.4314 123.214 11.0712L122.291 9.29678C121.384 9.7686 120.629 10.3693 120.061 11.1133L121.651 12.3267ZM123.214 11.0712C123.855 10.7377 124.598 10.56 125.464 10.56V8.56C124.315 8.56 123.25 8.79831 122.291 9.29678L123.214 11.0712ZM125.464 10.56C126.441 10.56 127.307 10.8015 128.087 11.2776L129.129 9.57036C128.022 8.89454 126.792 8.56 125.464 8.56V10.56ZM128.104 11.2878C128.897 11.7499 129.52 12.4019 129.981 13.2692L131.747 12.3308C131.12 11.1501 130.24 10.2181 129.112 9.56022L128.104 11.2878ZM129.981 13.2692C130.438 14.1289 130.68 15.1396 130.68 16.328H132.68C132.68 14.8604 132.379 13.5191 131.747 12.3308L129.981 13.2692ZM130.68 16.328C130.68 17.5157 130.438 18.5477 129.975 19.446L131.753 20.362C132.378 19.1483 132.68 17.7963 132.68 16.328H130.68ZM129.978 19.4405C129.514 20.3279 128.884 21.0072 128.083 21.5008L129.133 23.2032C130.253 22.5128 131.127 21.5601 131.75 20.3675L129.978 19.4405ZM128.087 21.4984C127.307 21.9745 126.441 22.216 125.464 22.216V24.216C126.792 24.216 128.022 23.8815 129.129 23.2056L128.087 21.4984ZM125.464 22.216C124.591 22.216 123.855 22.0436 123.231 21.7252L122.322 23.5068C123.266 23.9884 124.321 24.216 125.464 24.216V22.216ZM123.245 21.7327C122.563 21.371 122.033 20.9399 121.631 20.4479L120.081 21.7121C120.672 22.4361 121.421 23.029 122.308 23.4993L123.245 21.7327ZM119.856 21.08V29.288H121.856V21.08H119.856ZM120.856 28.288H118.12V30.288H120.856V28.288ZM119.12 29.288V9.776H117.12V29.288H119.12ZM118.12 10.776H120.856V8.776H118.12V10.776ZM119.856 9.776V11.72H121.856V9.776H119.856ZM129.896 16.328C129.896 15.274 129.673 14.3081 129.183 13.4708L127.457 14.4812C127.735 14.9559 127.896 15.558 127.896 16.328H129.896ZM129.197 13.4957C128.744 12.6685 128.114 12.0186 127.306 11.5835L126.358 13.3445C126.798 13.5814 127.16 13.9395 127.443 14.4563L129.197 13.4957ZM127.333 11.5986C126.573 11.1582 125.744 10.936 124.864 10.936V12.936C125.393 12.936 125.876 13.0658 126.331 13.3294L127.333 11.5986ZM124.864 10.936C123.997 10.936 123.172 11.1601 122.405 11.593L123.388 13.335C123.868 13.0639 124.356 12.936 124.864 12.936V10.936ZM122.395 11.5986C121.619 12.0479 121.003 12.6945 120.54 13.5039L122.277 14.4961C122.582 13.9615 122.957 13.5841 123.397 13.3294L122.395 11.5986ZM120.531 13.5197C120.069 14.3646 119.856 15.328 119.856 16.376H121.856C121.856 15.6 122.012 14.9794 122.285 14.4803L120.531 13.5197ZM119.856 16.376C119.856 17.4247 120.069 18.3918 120.527 19.2477L122.29 18.3043C122.012 17.7842 121.856 17.1513 121.856 16.376H119.856ZM120.54 19.2721C121.003 20.0815 121.619 20.7281 122.395 21.1774L123.397 19.4466C122.957 19.1919 122.582 18.8145 122.277 18.2799L120.54 19.2721ZM122.405 21.183C123.172 21.6159 123.997 21.84 124.864 21.84V19.84C124.356 19.84 123.868 19.7121 123.388 19.441L122.405 21.183ZM124.864 21.84C125.744 21.84 126.573 21.6178 127.333 21.1774L126.331 19.4466C125.876 19.7102 125.393 19.84 124.864 19.84V21.84ZM127.34 21.1734C128.134 20.705 128.755 20.0364 129.202 19.1997L127.439 18.2563C127.15 18.7956 126.778 19.183 126.324 19.4506L127.34 21.1734ZM129.194 19.2154C129.673 18.3564 129.896 17.3835 129.896 16.328H127.896C127.896 17.0965 127.736 17.7236 127.447 18.2406L129.194 19.2154ZM134.53 7.52L135.237 6.81289L135.237 6.81289L134.53 7.52ZM134.53 5.024L135.237 5.73111L135.237 5.73111L134.53 5.024ZM137.002 5.024L136.295 5.73111L136.295 5.73111L137.002 5.024ZM137.002 7.52L136.295 6.81289L136.295 6.81289L137.002 7.52ZM137.122 9.776H138.122V8.776H137.122V9.776ZM137.122 23V24H138.122V23H137.122ZM134.386 23H133.386V24H134.386V23ZM134.386 9.776V8.776H133.386V9.776H134.386ZM135.778 7.024C135.534 7.024 135.377 6.95239 135.237 6.81289L133.823 8.22711C134.355 8.75961 135.03 9.024 135.778 9.024V7.024ZM135.237 6.81289C135.098 6.6734 135.026 6.51574 135.026 6.272H133.026C133.026 7.02026 133.29 7.6946 133.823 8.22711L135.237 6.81289ZM135.026 6.272C135.026 6.02826 135.098 5.8706 135.237 5.73111L133.823 4.31689C133.29 4.84939 133.026 5.52374 133.026 6.272H135.026ZM135.237 5.73111C135.377 5.59161 135.534 5.52 135.778 5.52V3.52C135.03 3.52 134.355 3.78439 133.823 4.31689L135.237 5.73111ZM135.778 5.52C135.996 5.52 136.148 5.58477 136.295 5.73111L137.709 4.31689C137.183 3.79123 136.52 3.52 135.778 3.52V5.52ZM136.295 5.73111C136.434 5.8706 136.506 6.02826 136.506 6.272H138.506C138.506 5.52374 138.242 4.84939 137.709 4.31689L136.295 5.73111ZM136.506 6.272C136.506 6.51574 136.434 6.6734 136.295 6.81289L137.709 8.22711C138.242 7.6946 138.506 7.02026 138.506 6.272H136.506ZM136.295 6.81289C136.148 6.95923 135.996 7.024 135.778 7.024V9.024C136.52 9.024 137.183 8.75277 137.709 8.22711L136.295 6.81289ZM136.122 9.776V23H138.122V9.776H136.122ZM137.122 22H134.386V24H137.122V22ZM135.386 23V9.776H133.386V23H135.386ZM134.386 10.776H137.122V8.776H134.386V10.776ZM150.17 10.208L149.702 11.0918L149.709 11.0955L150.17 10.208ZM152.114 12.128L151.237 12.608L151.237 12.608L152.114 12.128ZM152.81 23V24H153.81V23H152.81ZM150.098 23H149.098V24H150.098V23ZM149.21 12.896L148.476 13.5751L148.485 13.5843L149.21 12.896ZM144.338 12.896L143.613 12.2072L143.613 12.2077L144.338 12.896ZM143.45 23V24H144.45V23H143.45ZM140.714 23H139.714V24H140.714V23ZM140.714 9.776V8.776H139.714V9.776H140.714ZM143.45 9.776H144.45V8.776H143.45V9.776ZM143.45 11.288H142.45V14.0753L144.222 11.9237L143.45 11.288ZM145.154 10.016L144.758 9.0979L144.75 9.10131L145.154 10.016ZM147.386 10.56C148.284 10.56 149.048 10.7453 149.702 11.0918L150.638 9.32421C149.66 8.80669 148.568 8.56 147.386 8.56V10.56ZM149.709 11.0955C150.359 11.433 150.865 11.9284 151.237 12.608L152.991 11.648C152.435 10.6316 151.645 9.84696 150.631 9.3205L149.709 11.0955ZM151.237 12.608C151.603 13.2774 151.81 14.1278 151.81 15.2H153.81C153.81 13.8722 153.553 12.6746 152.991 11.648L151.237 12.608ZM151.81 15.2V23H153.81V15.2H151.81ZM152.81 22H150.098V24H152.81V22ZM151.098 23V15.608H149.098V23H151.098ZM151.098 15.608C151.098 14.2656 150.761 13.078 149.936 12.2077L148.485 13.5843C148.843 13.962 149.098 14.5824 149.098 15.608H151.098ZM149.944 12.217C149.13 11.3364 148.036 10.936 146.786 10.936V12.936C147.584 12.936 148.107 13.1756 148.476 13.575L149.944 12.217ZM146.786 10.936C145.536 10.936 144.44 11.3363 143.613 12.2072L145.063 13.5847C145.452 13.1757 145.988 12.936 146.786 12.936V10.936ZM143.613 12.2077C142.787 13.078 142.45 14.2656 142.45 15.608H144.45C144.45 14.5824 144.705 13.962 145.064 13.5843L143.613 12.2077ZM142.45 15.608V23H144.45V15.608H142.45ZM143.45 22H140.714V24H143.45V22ZM141.714 23V9.776H139.714V23H141.714ZM140.714 10.776H143.45V8.776H140.714V10.776ZM142.45 9.776V11.288H144.45V9.776H142.45ZM144.222 11.9237C144.564 11.5081 145.003 11.176 145.558 10.9307L144.75 9.10131C143.929 9.464 143.232 9.97985 142.678 10.6523L144.222 11.9237ZM145.55 10.9341C146.126 10.6853 146.735 10.56 147.386 10.56V8.56C146.469 8.56 145.59 8.73866 144.758 9.09794L145.55 10.9341ZM164.34 10.184L163.871 11.0673L163.882 11.073L163.893 11.0784L164.34 10.184ZM166.212 11.696L165.407 12.2892L167.212 14.7389V11.696H166.212ZM166.212 9.776V8.776H165.212V9.776H166.212ZM168.972 9.776H169.972V8.776H168.972V9.776ZM168.204 26.456L167.325 25.9792L167.322 25.9854L168.204 26.456ZM165.972 28.712L165.485 27.8385L165.479 27.842L165.972 28.712ZM158.052 28.256L158.634 27.443L158.627 27.4378L158.052 28.256ZM156.036 24.848V23.848H154.919L155.042 24.9584L156.036 24.848ZM158.748 24.848L159.705 24.5586L159.49 23.848H158.748V24.848ZM160.068 26.504L160.6 25.6571L160.594 25.6537L160.068 26.504ZM165.18 26.144L164.481 25.4286L164.473 25.4369L165.18 26.144ZM166.212 21.008H167.212V17.9873L165.41 20.4113L166.212 21.008ZM164.316 22.592L164.785 23.4754L164.791 23.4719L164.316 22.592ZM158.46 22.352L157.929 23.1992L157.937 23.2044L157.946 23.2095L158.46 22.352ZM156.204 19.904L155.315 20.362L155.319 20.3701L155.324 20.3781L156.204 19.904ZM156.204 12.8L155.327 12.3202L155.321 12.3308L156.204 12.8ZM158.46 10.424L158.97 11.2841L158.974 11.2815L158.46 10.424ZM165.636 14L164.759 14.4803L164.763 14.4883L164.768 14.4961L165.636 14ZM164.172 12.464L163.671 13.3294L163.671 13.3294L164.172 12.464ZM160.236 12.464L160.72 13.3392L160.728 13.3344L160.737 13.3294L160.236 12.464ZM158.748 13.976L157.88 13.4798L157.876 13.4867L158.748 13.976ZM158.748 18.728L157.866 19.1997L157.87 19.2075L157.875 19.2154L158.748 18.728ZM160.236 20.312L159.718 21.1675L159.731 21.1754L159.745 21.183L160.236 20.312ZM164.172 20.312L164.673 21.1774L164.673 21.1774L164.172 20.312ZM165.636 18.776L164.763 18.2886L164.759 18.2957L165.636 18.776ZM161.628 10.56C162.514 10.56 163.252 10.739 163.871 11.0673L164.809 9.30065C163.86 8.79702 162.79 8.56 161.628 8.56V10.56ZM163.893 11.0784C164.577 11.4207 165.069 11.8299 165.407 12.2892L167.017 11.1028C166.459 10.3461 165.703 9.74731 164.787 9.28957L163.893 11.0784ZM167.212 11.696V9.776H165.212V11.696H167.212ZM166.212 10.776H168.972V8.776H166.212V10.776ZM167.972 9.776V23.216H169.972V9.776H167.972ZM167.972 23.216C167.972 24.2878 167.748 25.2001 167.325 25.9792L169.083 26.9328C169.684 25.8239 169.972 24.5762 169.972 23.216H167.972ZM167.322 25.9854C166.903 26.7711 166.298 27.3854 165.485 27.8385L166.459 29.5855C167.598 28.9506 168.481 28.0609 169.086 26.9266L167.322 25.9854ZM165.479 27.842C164.699 28.284 163.725 28.528 162.516 28.528V30.528C163.995 30.528 165.325 30.228 166.465 29.582L165.479 27.842ZM162.516 28.528C160.884 28.528 159.613 28.1437 158.634 27.443L157.47 29.069C158.859 30.0643 160.564 30.528 162.516 30.528V28.528ZM158.627 27.4378C157.678 26.771 157.158 25.8929 157.03 24.7376L155.042 24.9584C155.234 26.6831 156.058 28.077 157.477 29.0742L158.627 27.4378ZM156.036 25.848H158.748V23.848H156.036V25.848ZM157.791 25.1374C158.077 26.0825 158.685 26.8238 159.542 27.3543L160.594 25.6537C160.107 25.3522 159.835 24.9895 159.705 24.5586L157.791 25.1374ZM159.536 27.3509C160.408 27.8983 161.415 28.152 162.516 28.152V26.152C161.729 26.152 161.104 25.9737 160.6 25.6571L159.536 27.3509ZM162.516 28.152C163.839 28.152 164.997 27.7411 165.887 26.8511L164.473 25.4369C164.019 25.8909 163.401 26.152 162.516 26.152V28.152ZM165.879 26.8594C166.817 25.9432 167.212 24.6728 167.212 23.216H165.212C165.212 24.3192 164.919 25.0008 164.481 25.4286L165.879 26.8594ZM167.212 23.216V21.008H165.212V23.216H167.212ZM165.41 20.4113C165.046 20.8999 164.534 21.3378 163.841 21.7121L164.791 23.4719C165.698 22.9822 166.45 22.3641 167.014 21.6047L165.41 20.4113ZM163.847 21.7087C163.226 22.0382 162.495 22.216 161.628 22.216V24.216C162.777 24.216 163.838 23.9778 164.785 23.4753L163.847 21.7087ZM161.628 22.216C160.652 22.216 159.774 21.9745 158.974 21.4945L157.946 23.2095C159.066 23.8815 160.3 24.216 161.628 24.216V22.216ZM158.991 21.5048C158.203 21.0104 157.567 20.3269 157.084 19.4299L155.324 20.3781C155.961 21.5611 156.829 22.5096 157.929 23.1992L158.991 21.5048ZM157.093 19.446C156.63 18.5477 156.388 17.5157 156.388 16.328H154.388C154.388 17.7963 154.69 19.1483 155.315 20.362L157.093 19.446ZM156.388 16.328C156.388 15.1396 156.63 14.1289 157.087 13.2692L155.321 12.3308C154.69 13.5191 154.388 14.8604 154.388 16.328H156.388ZM157.081 13.2798C157.561 12.4028 158.19 11.7467 158.97 11.2841L157.95 9.56394C156.842 10.2213 155.967 11.1492 155.327 12.3202L157.081 13.2798ZM158.974 11.2815C159.774 10.8015 160.652 10.56 161.628 10.56V8.56C160.3 8.56 159.066 8.89446 157.946 9.56651L158.974 11.2815ZM167.212 16.376C167.212 15.3212 166.989 14.3519 166.504 13.5039L164.768 14.4961C165.051 14.9921 165.212 15.6068 165.212 16.376H167.212ZM166.513 13.5197C166.066 12.7024 165.453 12.0504 164.673 11.5986L163.671 13.3294C164.107 13.5816 164.47 13.9536 164.759 14.4803L166.513 13.5197ZM164.673 11.5986C163.912 11.1582 163.084 10.936 162.204 10.936V12.936C162.732 12.936 163.216 13.0658 163.671 13.3294L164.673 11.5986ZM162.204 10.936C161.324 10.936 160.496 11.1582 159.735 11.5986L160.737 13.3294C161.192 13.0658 161.676 12.936 162.204 12.936V10.936ZM159.752 11.5888C158.966 12.0233 158.344 12.6673 157.88 13.4799L159.616 14.4721C159.92 13.9407 160.29 13.5767 160.72 13.3392L159.752 11.5888ZM157.876 13.4867C157.408 14.3209 157.196 15.2809 157.196 16.328H159.196C159.196 15.5511 159.352 14.9431 159.62 14.4653L157.876 13.4867ZM157.196 16.328C157.196 17.3767 157.408 18.3438 157.866 19.1997L159.63 18.2563C159.352 17.7362 159.196 17.1033 159.196 16.328H157.196ZM157.875 19.2154C158.334 20.038 158.946 20.7002 159.718 21.1675L160.754 19.4565C160.31 19.1878 159.93 18.794 159.621 18.2406L157.875 19.2154ZM159.745 21.183C160.512 21.6159 161.337 21.84 162.204 21.84V19.84C161.695 19.84 161.208 19.7121 160.727 19.441L159.745 21.183ZM162.204 21.84C163.084 21.84 163.912 21.6178 164.673 21.1774L163.671 19.4466C163.216 19.7102 162.732 19.84 162.204 19.84V21.84ZM164.673 21.1774C165.453 20.7256 166.066 20.0736 166.513 19.2563L164.759 18.2957C164.47 18.8224 164.107 19.1944 163.671 19.4466L164.673 21.1774ZM166.509 19.2634C166.989 18.4044 167.212 17.4315 167.212 16.376H165.212C165.212 17.1445 165.051 17.7716 164.763 18.2886L166.509 19.2634Z" fill="black" mask="url(#path-2-outside-1_46_23)"/>
</svg>
