<svg width="156" height="29" viewBox="0 0 156 29" fill="none" xmlns="http://www.w3.org/2000/svg">
<path d="M0 10C0 4.47715 4.47715 0 10 0H41V19C41 24.5228 36.5228 29 31 29H0V10Z" fill="#EBCBBE"/>
<mask id="path-2-outside-1_46_17" maskUnits="userSpaceOnUse" x="7" y="3" width="149" height="22" fill="black">
<rect fill="white" x="7" y="3" width="149" height="22"/>
<path d="M19.2825 7.856H11.2425V12.632C11.5785 12.184 12.0745 11.808 12.7305 11.504C13.4025 11.2 14.1145 11.048 14.8665 11.048C16.2105 11.048 17.2985 11.336 18.1305 11.912C18.9785 12.488 19.5785 13.216 19.9305 14.096C20.2985 14.976 20.4825 15.904 20.4825 16.88C20.4825 18.064 20.2505 19.12 19.7865 20.048C19.3385 20.96 18.6585 21.68 17.7465 22.208C16.8505 22.736 15.7465 23 14.4345 23C12.6905 23 11.2905 22.568 10.2345 21.704C9.1785 20.84 8.5465 19.696 8.3385 18.272H11.0025C11.1785 19.024 11.5705 19.624 12.1785 20.072C12.7865 20.504 13.5465 20.72 14.4585 20.72C15.5945 20.72 16.4425 20.376 17.0025 19.688C17.5785 19 17.8665 18.088 17.8665 16.952C17.8665 15.8 17.5785 14.92 17.0025 14.312C16.4265 13.688 15.5785 13.376 14.4585 13.376C13.6745 13.376 13.0105 13.576 12.4665 13.976C11.9385 14.36 11.5545 14.888 11.3145 15.56H8.7225V5.456H19.2825V7.856ZM23.3306 14.024C23.3306 11.256 23.7946 9.096 24.7226 7.544C25.6666 5.976 27.2826 5.192 29.5706 5.192C31.8586 5.192 33.4666 5.976 34.3946 7.544C35.3386 9.096 35.8106 11.256 35.8106 14.024C35.8106 16.824 35.3386 19.016 34.3946 20.6C33.4666 22.168 31.8586 22.952 29.5706 22.952C27.2826 22.952 25.6666 22.168 24.7226 20.6C23.7946 19.016 23.3306 16.824 23.3306 14.024ZM33.1226 14.024C33.1226 12.728 33.0346 11.632 32.8586 10.736C32.6986 9.84 32.3626 9.112 31.8506 8.552C31.3386 7.976 30.5786 7.688 29.5706 7.688C28.5626 7.688 27.8026 7.976 27.2906 8.552C26.7786 9.112 26.4346 9.84 26.2586 10.736C26.0986 11.632 26.0186 12.728 26.0186 14.024C26.0186 15.368 26.0986 16.496 26.2586 17.408C26.4186 18.32 26.7546 19.056 27.2666 19.616C27.7946 20.176 28.5626 20.456 29.5706 20.456C30.5786 20.456 31.3386 20.176 31.8506 19.616C32.3786 19.056 32.7226 18.32 32.8826 17.408C33.0426 16.496 33.1226 15.368 33.1226 14.024ZM38.2736 9.728C38.2736 8.56 38.6096 7.648 39.2816 6.992C39.9696 6.32 40.8496 5.984 41.9216 5.984C42.9936 5.984 43.8656 6.32 44.5376 6.992C45.2256 7.648 45.5696 8.56 45.5696 9.728C45.5696 10.896 45.2256 11.816 44.5376 12.488C43.8656 13.16 42.9936 13.496 41.9216 13.496C40.8496 13.496 39.9696 13.16 39.2816 12.488C38.6096 11.816 38.2736 10.896 38.2736 9.728ZM52.9136 6.296L43.3376 23H40.6496L50.2256 6.296H52.9136ZM41.9216 7.64C40.9136 7.64 40.4096 8.336 40.4096 9.728C40.4096 11.136 40.9136 11.84 41.9216 11.84C42.4016 11.84 42.7696 11.672 43.0256 11.336C43.2976 10.984 43.4336 10.448 43.4336 9.728C43.4336 8.336 42.9296 7.64 41.9216 7.64ZM48.0416 19.544C48.0416 18.376 48.3776 17.464 49.0496 16.808C49.7376 16.136 50.6176 15.8 51.6896 15.8C52.7456 15.8 53.6096 16.136 54.2816 16.808C54.9696 17.464 55.3136 18.376 55.3136 19.544C55.3136 20.712 54.9696 21.632 54.2816 22.304C53.6096 22.976 52.7456 23.312 51.6896 23.312C50.6176 23.312 49.7376 22.976 49.0496 22.304C48.3776 21.632 48.0416 20.712 48.0416 19.544ZM51.6656 17.456C50.6576 17.456 50.1536 18.152 50.1536 19.544C50.1536 20.936 50.6576 21.632 51.6656 21.632C52.6736 21.632 53.1776 20.936 53.1776 19.544C53.1776 18.152 52.6736 17.456 51.6656 17.456ZM69.8507 23.168C68.7307 23.168 67.7227 22.976 66.8267 22.592C65.9307 22.192 65.2267 21.632 64.7147 20.912C64.2027 20.192 63.9467 19.352 63.9467 18.392H66.8747C66.9387 19.112 67.2187 19.704 67.7147 20.168C68.2267 20.632 68.9387 20.864 69.8507 20.864C70.7947 20.864 71.5307 20.64 72.0587 20.192C72.5867 19.728 72.8507 19.136 72.8507 18.416C72.8507 17.856 72.6827 17.4 72.3467 17.048C72.0267 16.696 71.6187 16.424 71.1227 16.232C70.6427 16.04 69.9707 15.832 69.1067 15.608C68.0187 15.32 67.1307 15.032 66.4427 14.744C65.7707 14.44 65.1947 13.976 64.7147 13.352C64.2347 12.728 63.9947 11.896 63.9947 10.856C63.9947 9.896 64.2347 9.056 64.7147 8.336C65.1947 7.616 65.8667 7.064 66.7307 6.68C67.5947 6.296 68.5947 6.104 69.7307 6.104C71.3467 6.104 72.6667 6.512 73.6907 7.328C74.7307 8.128 75.3067 9.232 75.4187 10.64H72.3947C72.3467 10.032 72.0587 9.512 71.5307 9.08C71.0027 8.648 70.3067 8.432 69.4427 8.432C68.6587 8.432 68.0187 8.632 67.5227 9.032C67.0267 9.432 66.7787 10.008 66.7787 10.76C66.7787 11.272 66.9307 11.696 67.2347 12.032C67.5547 12.352 67.9547 12.608 68.4347 12.8C68.9147 12.992 69.5707 13.2 70.4027 13.424C71.5067 13.728 72.4027 14.032 73.0907 14.336C73.7947 14.64 74.3867 15.112 74.8667 15.752C75.3627 16.376 75.6107 17.216 75.6107 18.272C75.6107 19.12 75.3787 19.92 74.9147 20.672C74.4667 21.424 73.8027 22.032 72.9227 22.496C72.0587 22.944 71.0347 23.168 69.8507 23.168ZM77.9271 16.328C77.9271 15 78.1991 13.824 78.7431 12.8C79.3031 11.776 80.0551 10.984 80.9991 10.424C81.9591 9.848 83.0151 9.56 84.1671 9.56C85.2071 9.56 86.1111 9.768 86.8791 10.184C87.6631 10.584 88.2871 11.088 88.7511 11.696V9.776H91.5111V23H88.7511V21.032C88.2871 21.656 87.6551 22.176 86.8551 22.592C86.0551 23.008 85.1431 23.216 84.1191 23.216C82.9831 23.216 81.9431 22.928 80.9991 22.352C80.0551 21.76 79.3031 20.944 78.7431 19.904C78.1991 18.848 77.9271 17.656 77.9271 16.328ZM88.7511 16.376C88.7511 15.464 88.5591 14.672 88.1751 14C87.8071 13.328 87.3191 12.816 86.7111 12.464C86.1031 12.112 85.4471 11.936 84.7431 11.936C84.0391 11.936 83.3831 12.112 82.7751 12.464C82.1671 12.8 81.6711 13.304 81.2871 13.976C80.9191 14.632 80.7351 15.416 80.7351 16.328C80.7351 17.24 80.9191 18.04 81.2871 18.728C81.6711 19.416 82.1671 19.944 82.7751 20.312C83.3991 20.664 84.0551 20.84 84.7431 20.84C85.4471 20.84 86.1031 20.664 86.7111 20.312C87.3191 19.96 87.8071 19.448 88.1751 18.776C88.5591 18.088 88.7511 17.288 88.7511 16.376ZM97.8407 5.24V23H95.1047V5.24H97.8407ZM113.553 16.064C113.553 16.56 113.521 17.008 113.457 17.408H103.353C103.433 18.464 103.825 19.312 104.529 19.952C105.233 20.592 106.097 20.912 107.121 20.912C108.593 20.912 109.633 20.296 110.241 19.064H113.193C112.793 20.28 112.065 21.28 111.009 22.064C109.969 22.832 108.673 23.216 107.121 23.216C105.857 23.216 104.721 22.936 103.713 22.376C102.721 21.8 101.937 21 101.361 19.976C100.801 18.936 100.521 17.736 100.521 16.376C100.521 15.016 100.793 13.824 101.337 12.8C101.897 11.76 102.673 10.96 103.665 10.4C104.673 9.84 105.825 9.56 107.121 9.56C108.369 9.56 109.481 9.832 110.457 10.376C111.433 10.92 112.193 11.688 112.737 12.68C113.281 13.656 113.553 14.784 113.553 16.064ZM110.697 15.2C110.681 14.192 110.321 13.384 109.617 12.776C108.913 12.168 108.041 11.864 107.001 11.864C106.057 11.864 105.249 12.168 104.577 12.776C103.905 13.368 103.505 14.176 103.377 15.2H110.697ZM130.088 23.168C128.536 23.168 127.104 22.808 125.792 22.088C124.496 21.352 123.464 20.336 122.696 19.04C121.944 17.728 121.568 16.256 121.568 14.624C121.568 12.992 121.944 11.528 122.696 10.232C123.464 8.936 124.496 7.928 125.792 7.208C127.104 6.472 128.536 6.104 130.088 6.104C131.656 6.104 133.088 6.472 134.384 7.208C135.696 7.928 136.728 8.936 137.48 10.232C138.232 11.528 138.608 12.992 138.608 14.624C138.608 16.256 138.232 17.728 137.48 19.04C136.728 20.336 135.696 21.352 134.384 22.088C133.088 22.808 131.656 23.168 130.088 23.168ZM130.088 20.792C131.192 20.792 132.176 20.544 133.04 20.048C133.904 19.536 134.576 18.816 135.056 17.888C135.552 16.944 135.8 15.856 135.8 14.624C135.8 13.392 135.552 12.312 135.056 11.384C134.576 10.456 133.904 9.744 133.04 9.248C132.176 8.752 131.192 8.504 130.088 8.504C128.984 8.504 128 8.752 127.136 9.248C126.272 9.744 125.592 10.456 125.096 11.384C124.616 12.312 124.376 13.392 124.376 14.624C124.376 15.856 124.616 16.944 125.096 17.888C125.592 18.816 126.272 19.536 127.136 20.048C128 20.544 128.984 20.792 130.088 20.792ZM146.844 12.008H144.396V23H141.636V12.008H140.076V9.776H141.636V8.84C141.636 7.32 142.036 6.216 142.836 5.528C143.652 4.824 144.924 4.472 146.652 4.472V6.752C145.82 6.752 145.236 6.912 144.9 7.232C144.564 7.536 144.396 8.072 144.396 8.84V9.776H146.844V12.008ZM154.813 12.008H152.365V23H149.605V12.008H148.045V9.776H149.605V8.84C149.605 7.32 150.005 6.216 150.805 5.528C151.621 4.824 152.893 4.472 154.621 4.472V6.752C153.789 6.752 153.205 6.912 152.869 7.232C152.533 7.536 152.365 8.072 152.365 8.84V9.776H154.813V12.008Z"/>
</mask>
<path d="M19.2825 7.856V8.856H20.2825V7.856H19.2825ZM11.2425 7.856V6.856H10.2425V7.856H11.2425ZM11.2425 12.632H10.2425V15.632L12.0425 13.232L11.2425 12.632ZM12.7305 11.504L12.3183 10.5929L12.31 10.5967L12.7305 11.504ZM18.1305 11.912L17.5613 12.7342L17.5686 12.7392L18.1305 11.912ZM19.9305 14.096L19.002 14.4674L19.0049 14.4746L19.0079 14.4818L19.9305 14.096ZM19.7865 20.048L18.8921 19.6008L18.8889 19.6071L19.7865 20.048ZM17.7465 22.208L17.2454 21.3425L17.2388 21.3465L17.7465 22.208ZM10.2345 21.704L10.8677 20.93L10.8677 20.93L10.2345 21.704ZM8.3385 18.272V17.272H7.18182L7.349 18.4165L8.3385 18.272ZM11.0025 18.272L11.9762 18.0441L11.7955 17.272H11.0025V18.272ZM12.1785 20.072L11.5853 20.8771L11.5923 20.8822L11.5993 20.8872L12.1785 20.072ZM17.0025 19.688L16.2357 19.046L16.2269 19.0567L17.0025 19.688ZM17.0025 14.312L16.2676 14.9903L16.2765 14.9997L17.0025 14.312ZM12.4665 13.976L13.0547 14.7847L13.0589 14.7817L12.4665 13.976ZM11.3145 15.56V16.56H12.0192L12.2562 15.8963L11.3145 15.56ZM8.7225 15.56H7.7225V16.56H8.7225V15.56ZM8.7225 5.456V4.456H7.7225V5.456H8.7225ZM19.2825 5.456H20.2825V4.456H19.2825V5.456ZM19.2825 6.856H11.2425V8.856H19.2825V6.856ZM10.2425 7.856V12.632H12.2425V7.856H10.2425ZM12.0425 13.232C12.2546 12.9492 12.6025 12.6655 13.151 12.4113L12.31 10.5967C11.5465 10.9505 10.9024 11.4188 10.4425 12.032L12.0425 13.232ZM13.1427 12.4151C13.6826 12.1709 14.2538 12.048 14.8665 12.048V10.048C13.9752 10.048 13.1224 10.2291 12.3183 10.5929L13.1427 12.4151ZM14.8665 12.048C16.0729 12.048 16.9435 12.3065 17.5613 12.7342L18.6997 11.0898C17.6535 10.3655 16.3481 10.048 14.8665 10.048V12.048ZM17.5686 12.7392C18.2658 13.2128 18.7301 13.7877 19.002 14.4674L20.859 13.7246C20.4269 12.6443 19.6912 11.7632 18.6924 11.0848L17.5686 12.7392ZM19.0079 14.4818C19.3236 15.2367 19.4825 16.0333 19.4825 16.88H21.4825C21.4825 15.7747 21.2734 14.7153 20.8531 13.7102L19.0079 14.4818ZM19.4825 16.88C19.4825 17.9308 19.2774 18.8301 18.8921 19.6008L20.6809 20.4952C21.2236 19.4099 21.4825 18.1972 21.4825 16.88H19.4825ZM18.8889 19.6071C18.5316 20.3346 17.9929 20.9098 17.2455 21.3426L18.2475 23.0734C19.3241 22.4502 20.1454 21.5854 20.6841 20.4889L18.8889 19.6071ZM17.2388 21.3465C16.532 21.763 15.614 22 14.4345 22V24C15.879 24 17.169 23.709 18.2542 23.0695L17.2388 21.3465ZM14.4345 22C12.8559 22 11.7003 21.6112 10.8677 20.93L9.60126 22.478C10.8807 23.5248 12.5251 24 14.4345 24V22ZM10.8677 20.93C10.0161 20.2333 9.5021 19.3194 9.328 18.1275L7.349 18.4165C7.5909 20.0726 8.34085 21.4467 9.60126 22.478L10.8677 20.93ZM8.3385 19.272H11.0025V17.272H8.3385V19.272ZM10.0288 18.4999C10.2577 19.4777 10.7812 20.2846 11.5853 20.8771L12.7717 19.2669C12.3598 18.9634 12.0993 18.5703 11.9762 18.0441L10.0288 18.4999ZM11.5993 20.8872C12.4111 21.464 13.3859 21.72 14.4585 21.72V19.72C13.7071 19.72 13.1619 19.544 12.7577 19.2568L11.5993 20.8872ZM14.4585 21.72C15.8038 21.72 16.9771 21.3033 17.7781 20.3193L16.2269 19.0567C15.9079 19.4487 15.3852 19.72 14.4585 19.72V21.72ZM17.7693 20.3299C18.5325 19.4183 18.8665 18.2587 18.8665 16.952H16.8665C16.8665 17.9173 16.6245 18.5817 16.2357 19.0461L17.7693 20.3299ZM18.8665 16.952C18.8665 15.6415 18.5376 14.4783 17.7285 13.6243L16.2765 14.9997C16.6194 15.3617 16.8665 15.9585 16.8665 16.952H18.8665ZM17.7373 13.6337C16.9167 12.7448 15.7641 12.376 14.4585 12.376V14.376C15.3929 14.376 15.9363 14.6312 16.2677 14.9903L17.7373 13.6337ZM14.4585 12.376C13.497 12.376 12.6164 12.6245 11.8741 13.1703L13.0589 14.7817C13.4046 14.5275 13.852 14.376 14.4585 14.376V12.376ZM11.8783 13.1673C11.1725 13.6806 10.6738 14.3806 10.3728 15.2237L12.2562 15.8963C12.4352 15.3954 12.7045 15.0394 13.0547 14.7847L11.8783 13.1673ZM11.3145 14.56H8.7225V16.56H11.3145V14.56ZM9.7225 15.56V5.456H7.7225V15.56H9.7225ZM8.7225 6.456H19.2825V4.456H8.7225V6.456ZM18.2825 5.456V7.856H20.2825V5.456H18.2825ZM24.7226 7.544L23.8659 7.02822L23.8644 7.0308L24.7226 7.544ZM34.3946 7.544L33.534 8.05336L33.5403 8.06367L34.3946 7.544ZM34.3946 20.6L33.5356 20.0881L33.534 20.0907L34.3946 20.6ZM24.7226 20.6L23.8597 21.1055L23.8659 21.1158L24.7226 20.6ZM32.8586 10.736L31.8742 10.9118L31.8757 10.9203L31.8774 10.9287L32.8586 10.736ZM31.8506 8.552L31.1031 9.21643L31.1126 9.22677L31.8506 8.552ZM27.2906 8.552L28.0287 9.22683L28.038 9.21636L27.2906 8.552ZM26.2586 10.736L25.2774 10.5433L25.2757 10.5517L25.2742 10.5602L26.2586 10.736ZM26.2586 17.408L27.2436 17.2352L27.2436 17.2352L26.2586 17.408ZM27.2666 19.616L26.5286 20.2908L26.5338 20.2964L26.539 20.302L27.2666 19.616ZM31.8506 19.616L31.123 18.93L31.1178 18.9356L31.1126 18.9412L31.8506 19.616ZM32.8826 17.408L33.8676 17.5808L33.8676 17.5808L32.8826 17.408ZM24.3306 14.024C24.3306 11.3484 24.7824 9.39263 25.5809 8.05719L23.8644 7.0308C22.8069 8.79937 22.3306 11.1636 22.3306 14.024H24.3306ZM25.5793 8.05978C26.2957 6.86996 27.532 6.192 29.5706 6.192V4.192C27.0333 4.192 25.0376 5.08204 23.8659 7.02822L25.5793 8.05978ZM29.5706 6.192C31.6098 6.192 32.8336 6.86984 33.534 8.05332L35.2552 7.03468C34.0996 5.08216 32.1074 4.192 29.5706 4.192V6.192ZM33.5403 8.06367C34.3516 9.3975 34.8106 11.3506 34.8106 14.024H36.8106C36.8106 11.1614 36.3257 8.7945 35.249 7.02433L33.5403 8.06367ZM34.8106 14.024C34.8106 16.7301 34.3514 18.7192 33.5356 20.0881L35.2536 21.1119C36.3259 19.3128 36.8106 16.9179 36.8106 14.024H34.8106ZM33.534 20.0907C32.8336 21.2742 31.6098 21.952 29.5706 21.952V23.952C32.1074 23.952 34.0996 23.0618 35.2552 21.1093L33.534 20.0907ZM29.5706 21.952C27.532 21.952 26.2957 21.274 25.5793 20.0842L23.8659 21.1158C25.0376 23.062 27.0333 23.952 29.5706 23.952V21.952ZM25.5855 20.0945C24.7825 18.724 24.3306 16.7322 24.3306 14.024H22.3306C22.3306 16.9158 22.8067 19.308 23.8598 21.1055L25.5855 20.0945ZM34.1226 14.024C34.1226 12.6878 34.0323 11.523 33.8399 10.5433L31.8774 10.9287C32.0369 11.741 32.1226 12.7682 32.1226 14.024H34.1226ZM33.8431 10.5602C33.6565 9.51545 33.2518 8.60258 32.5887 7.87723L31.1126 9.22677C31.4734 9.62141 31.7408 10.1646 31.8742 10.9118L33.8431 10.5602ZM32.598 7.88763C31.8421 7.03716 30.771 6.688 29.5706 6.688V8.688C30.3862 8.688 30.8352 8.91484 31.1032 9.21636L32.598 7.88763ZM29.5706 6.688C28.3702 6.688 27.2992 7.03716 26.5432 7.88763L28.038 9.21636C28.3061 8.91484 28.755 8.688 29.5706 8.688V6.688ZM26.5526 7.87723C25.8938 8.59779 25.4815 9.5041 25.2774 10.5433L27.2399 10.9287C27.3878 10.1759 27.6634 9.62621 28.0287 9.22677L26.5526 7.87723ZM25.2742 10.5602C25.1005 11.5329 25.0186 12.6916 25.0186 14.024H27.0186C27.0186 12.7644 27.0967 11.7311 27.2431 10.9118L25.2742 10.5602ZM25.0186 14.024C25.0186 15.4025 25.1003 16.5926 25.2737 17.5808L27.2436 17.2352C27.097 16.3994 27.0186 15.3335 27.0186 14.024H25.0186ZM25.2737 17.5808C25.4593 18.6387 25.8625 19.5622 26.5286 20.2908L28.0047 18.9412C27.6468 18.5498 27.378 18.0013 27.2436 17.2352L25.2737 17.5808ZM26.539 20.302C27.3097 21.1193 28.3767 21.456 29.5706 21.456V19.456C28.7485 19.456 28.2796 19.2327 27.9942 18.93L26.539 20.302ZM29.5706 21.456C30.7626 21.456 31.8305 21.12 32.5887 20.2908L31.1126 18.9412C30.8467 19.232 30.3946 19.456 29.5706 19.456V21.456ZM32.5782 20.302C33.2655 19.5731 33.6807 18.6458 33.8676 17.5808L31.8977 17.2352C31.7645 17.9942 31.4918 18.5389 31.123 18.93L32.5782 20.302ZM33.8676 17.5808C34.041 16.5926 34.1226 15.4025 34.1226 14.024H32.1226C32.1226 15.3335 32.0443 16.3994 31.8977 17.2352L33.8676 17.5808ZM39.2816 6.992L39.9802 7.70757L39.9804 7.70737L39.2816 6.992ZM44.5376 6.992L43.8305 7.69911L43.8389 7.70752L43.8475 7.71574L44.5376 6.992ZM44.5376 12.488L43.8388 11.7726L43.8305 11.7809L44.5376 12.488ZM39.2816 12.488L38.5745 13.1952L38.5829 13.2034L39.2816 12.488ZM52.9136 6.296L53.7812 6.79335L54.6396 5.296H52.9136V6.296ZM43.3376 23V24H43.917L44.2052 23.4973L43.3376 23ZM40.6496 23L39.7821 22.5027L38.9237 24H40.6496V23ZM50.2256 6.296V5.296H49.6462L49.3581 5.79865L50.2256 6.296ZM43.0256 11.336L42.2343 10.7245L42.2302 10.73L43.0256 11.336ZM49.0496 16.808L49.7482 17.5236L49.7484 17.5234L49.0496 16.808ZM54.2816 16.808L53.5745 17.5151L53.5829 17.5235L53.5916 17.5317L54.2816 16.808ZM54.2816 22.304L53.5828 21.5886L53.5745 21.5969L54.2816 22.304ZM49.0496 22.304L48.3425 23.0112L48.3509 23.0194L49.0496 22.304ZM39.2736 9.728C39.2736 8.75966 39.5457 8.1317 39.9802 7.70757L38.5831 6.27642C37.6736 7.1643 37.2736 8.36034 37.2736 9.728H39.2736ZM39.9804 7.70737C40.4594 7.23946 41.0781 6.984 41.9216 6.984V4.984C40.6211 4.984 39.4798 5.40054 38.5829 6.27662L39.9804 7.70737ZM41.9216 6.984C42.7654 6.984 43.3707 7.2393 43.8305 7.69911L45.2447 6.28489C44.3605 5.4007 43.2218 4.984 41.9216 4.984V6.984ZM43.8475 7.71574C44.2939 8.14133 44.5696 8.76654 44.5696 9.728H46.5696C46.5696 8.35346 46.1573 7.15466 45.2277 6.26826L43.8475 7.71574ZM44.5696 9.728C44.5696 10.6885 44.2941 11.328 43.8389 11.7726L45.2364 13.2034C46.1571 12.304 46.5696 11.1035 46.5696 9.728H44.5696ZM43.8305 11.7809C43.3707 12.2407 42.7654 12.496 41.9216 12.496V14.496C43.2218 14.496 44.3605 14.0793 45.2447 13.1951L43.8305 11.7809ZM41.9216 12.496C41.0781 12.496 40.4594 12.2405 39.9804 11.7726L38.5829 13.2034C39.4798 14.0795 40.6211 14.496 41.9216 14.496V12.496ZM39.9887 11.7809C39.5454 11.3376 39.2736 10.6953 39.2736 9.728H37.2736C37.2736 11.0967 37.6738 12.2944 38.5745 13.1951L39.9887 11.7809ZM52.0461 5.79865L42.4701 22.5027L44.2052 23.4973L53.7812 6.79335L52.0461 5.79865ZM43.3376 22H40.6496V24H43.3376V22ZM41.5172 23.4973L51.0932 6.79335L49.3581 5.79865L39.7821 22.5027L41.5172 23.4973ZM50.2256 7.296H52.9136V5.296H50.2256V7.296ZM41.9216 6.64C41.1602 6.64 40.452 6.92049 39.9777 7.57549C39.5467 8.17063 39.4096 8.94116 39.4096 9.728H41.4096C41.4096 9.12283 41.5245 8.84937 41.5976 8.74851C41.6262 8.70896 41.6506 8.69163 41.6783 8.67888C41.7114 8.66361 41.7841 8.64 41.9216 8.64V6.64ZM39.4096 9.728C39.4096 10.5212 39.5462 11.2958 39.9745 11.8941C40.447 12.5541 41.1557 12.84 41.9216 12.84V10.84C41.7855 10.84 41.7143 10.8164 41.6822 10.8014C41.6554 10.789 41.6305 10.7715 41.6007 10.7299C41.5251 10.6242 41.4096 10.3428 41.4096 9.728H39.4096ZM41.9216 12.84C42.6652 12.84 43.3483 12.5625 43.8211 11.942L42.2302 10.73C42.1909 10.7815 42.138 10.84 41.9216 10.84V12.84ZM43.8169 11.9474C44.2853 11.3413 44.4336 10.5427 44.4336 9.728H42.4336C42.4336 10.3533 42.31 10.6267 42.2343 10.7246L43.8169 11.9474ZM44.4336 9.728C44.4336 8.94116 44.2965 8.17063 43.8656 7.57549C43.3913 6.92049 42.6831 6.64 41.9216 6.64V8.64C42.0592 8.64 42.1318 8.66361 42.165 8.67888C42.1927 8.69163 42.217 8.70896 42.2457 8.74851C42.3187 8.84937 42.4336 9.12283 42.4336 9.728H44.4336ZM49.0416 19.544C49.0416 18.5757 49.3137 17.9477 49.7482 17.5236L48.3511 16.0924C47.4416 16.9803 47.0416 18.1763 47.0416 19.544H49.0416ZM49.7484 17.5234C50.2274 17.0555 50.8461 16.8 51.6896 16.8V14.8C50.3891 14.8 49.2478 15.2165 48.3509 16.0926L49.7484 17.5234ZM51.6896 16.8C52.5127 16.8 53.1117 17.0523 53.5745 17.5151L54.9887 16.1009C54.1075 15.2197 52.9785 14.8 51.6896 14.8V16.8ZM53.5916 17.5317C54.0379 17.9573 54.3136 18.5825 54.3136 19.544H56.3136C56.3136 18.1695 55.9013 16.9707 54.9717 16.0843L53.5916 17.5317ZM54.3136 19.544C54.3136 20.5045 54.0381 21.144 53.5829 21.5886L54.9804 23.0194C55.9011 22.12 56.3136 20.9195 56.3136 19.544H54.3136ZM53.5745 21.5969C53.1117 22.0597 52.5127 22.312 51.6896 22.312V24.312C52.9785 24.312 54.1075 23.8923 54.9887 23.0111L53.5745 21.5969ZM51.6896 22.312C50.8461 22.312 50.2274 22.0565 49.7484 21.5886L48.3509 23.0194C49.2478 23.8955 50.3891 24.312 51.6896 24.312V22.312ZM49.7567 21.5969C49.3134 21.1536 49.0416 20.5113 49.0416 19.544H47.0416C47.0416 20.9127 47.4418 22.1104 48.3425 23.0111L49.7567 21.5969ZM51.6656 16.456C50.9042 16.456 50.196 16.7365 49.7217 17.3915C49.2907 17.9866 49.1536 18.7572 49.1536 19.544H51.1536C51.1536 18.9388 51.2685 18.6654 51.3416 18.5645C51.3702 18.525 51.3946 18.5076 51.4223 18.4949C51.4554 18.4796 51.5281 18.456 51.6656 18.456V16.456ZM49.1536 19.544C49.1536 20.3308 49.2907 21.1014 49.7217 21.6965C50.196 22.3515 50.9042 22.632 51.6656 22.632V20.632C51.5281 20.632 51.4554 20.6084 51.4223 20.5931C51.3946 20.5804 51.3702 20.563 51.3416 20.5235C51.2685 20.4226 51.1536 20.1492 51.1536 19.544H49.1536ZM51.6656 22.632C52.4271 22.632 53.1353 22.3515 53.6096 21.6965C54.0405 21.1014 54.1776 20.3308 54.1776 19.544H52.1776C52.1776 20.1492 52.0627 20.4226 51.9897 20.5235C51.961 20.563 51.9367 20.5804 51.909 20.5931C51.8758 20.6084 51.8032 20.632 51.6656 20.632V22.632ZM54.1776 19.544C54.1776 18.7572 54.0405 17.9866 53.6096 17.3915C53.1353 16.7365 52.4271 16.456 51.6656 16.456V18.456C51.8032 18.456 51.8758 18.4796 51.909 18.4949C51.9367 18.5076 51.961 18.525 51.9897 18.5645C52.0627 18.6654 52.1776 18.9388 52.1776 19.544H54.1776ZM66.8267 22.592L66.419 23.5051L66.4259 23.5082L66.4328 23.5111L66.8267 22.592ZM64.7147 20.912L65.5296 20.3325L65.5296 20.3325L64.7147 20.912ZM63.9467 18.392V17.392H62.9467V18.392H63.9467ZM66.8747 18.392L67.8708 18.3035L67.7897 17.392H66.8747V18.392ZM67.7147 20.168L67.0315 20.8983L67.0373 20.9037L67.0432 20.909L67.7147 20.168ZM72.0587 20.192L72.7057 20.9545L72.7123 20.9489L72.7188 20.9432L72.0587 20.192ZM72.3467 17.048L71.6067 17.7207L71.6149 17.7297L71.6233 17.7385L72.3467 17.048ZM71.1227 16.232L70.7513 17.1605L70.7617 17.1646L71.1227 16.232ZM69.1067 15.608L68.8508 16.5747L68.8557 16.576L69.1067 15.608ZM66.4427 14.744L66.0305 15.6551L66.0435 15.661L66.0565 15.6664L66.4427 14.744ZM64.7147 8.336L65.5467 8.8907L65.5467 8.8907L64.7147 8.336ZM66.7307 6.68L67.1368 7.59381L67.1368 7.59381L66.7307 6.68ZM73.6907 7.328L73.0675 8.11006L73.0742 8.1154L73.081 8.12062L73.6907 7.328ZM75.4187 10.64V11.64H76.5014L76.4155 10.5607L75.4187 10.64ZM72.3947 10.64L71.3978 10.7187L71.4705 11.64H72.3947V10.64ZM67.5227 9.032L68.1504 9.81041L68.1504 9.81041L67.5227 9.032ZM67.2347 12.032L66.4932 12.7029L66.5099 12.7214L66.5276 12.7391L67.2347 12.032ZM70.4027 13.424L70.6682 12.4599L70.6627 12.4584L70.4027 13.424ZM73.0907 14.336L72.6865 15.2507L72.6943 15.2541L73.0907 14.336ZM74.8667 15.752L74.0667 16.352L74.0751 16.3632L74.0839 16.3742L74.8667 15.752ZM74.9147 20.672L74.0637 20.1469L74.0596 20.1535L74.0556 20.1602L74.9147 20.672ZM72.9227 22.496L73.383 23.3838L73.3891 23.3806L72.9227 22.496ZM69.8507 22.168C68.8461 22.168 67.975 21.9961 67.2206 21.6729L66.4328 23.5111C67.4704 23.9559 68.6153 24.168 69.8507 24.168V22.168ZM67.2343 21.6789C66.4829 21.3434 65.927 20.8912 65.5296 20.3325L63.8997 21.4915C64.5264 22.3728 65.3784 23.0406 66.419 23.5051L67.2343 21.6789ZM65.5296 20.3325C65.1485 19.7965 64.9467 19.1632 64.9467 18.392H62.9467C62.9467 19.5408 63.2568 20.5875 63.8997 21.4915L65.5296 20.3325ZM63.9467 19.392H66.8747V17.392H63.9467V19.392ZM65.8786 18.4805C65.9629 19.4285 66.3436 20.2547 67.0315 20.8983L68.3978 19.4377C68.0938 19.1533 67.9145 18.7955 67.8708 18.3035L65.8786 18.4805ZM67.0432 20.909C67.7915 21.5871 68.7716 21.864 69.8507 21.864V19.864C69.1058 19.864 68.6619 19.6769 68.3862 19.427L67.0432 20.909ZM69.8507 21.864C70.9455 21.864 71.9406 21.6036 72.7057 20.9545L71.4117 19.4295C71.1207 19.6764 70.6439 19.864 69.8507 19.864V21.864ZM72.7188 20.9432C73.4688 20.2841 73.8507 19.4156 73.8507 18.416H71.8507C71.8507 18.8564 71.7046 19.1719 71.3986 19.4408L72.7188 20.9432ZM73.8507 18.416C73.8507 17.6406 73.6105 16.9237 73.07 16.3575L71.6233 17.7385C71.7549 17.8763 71.8507 18.0714 71.8507 18.416H73.8507ZM73.0866 16.3753C72.6504 15.8955 72.1072 15.5408 71.4837 15.2994L70.7617 17.1646C71.1302 17.3072 71.403 17.4965 71.6067 17.7207L73.0866 16.3753ZM71.4941 15.3035C70.9566 15.0885 70.2378 14.8682 69.3577 14.64L68.8557 16.576C69.7036 16.7958 70.3288 16.9915 70.7513 17.1605L71.4941 15.3035ZM69.3626 14.6413C68.2991 14.3598 67.459 14.0853 66.8288 13.8216L66.0565 15.6664C66.8024 15.9787 67.7383 16.2802 68.8508 16.5747L69.3626 14.6413ZM66.8549 13.8329C66.3425 13.6011 65.8941 13.2451 65.5073 12.7423L63.9221 13.9617C64.4953 14.7069 65.1988 15.2789 66.0305 15.6551L66.8549 13.8329ZM65.5073 12.7423C65.1993 12.3419 64.9947 11.7462 64.9947 10.856H62.9947C62.9947 12.0458 63.27 13.1141 63.9221 13.9617L65.5073 12.7423ZM64.9947 10.856C64.9947 10.071 65.1881 9.4287 65.5467 8.8907L63.8826 7.7813C63.2813 8.68329 62.9947 9.72101 62.9947 10.856H64.9947ZM65.5467 8.8907C65.912 8.34283 66.4293 7.90827 67.1368 7.59381L66.3245 5.76619C65.3041 6.21973 64.4774 6.88917 63.8826 7.7813L65.5467 8.8907ZM67.1368 7.59381C67.8499 7.27689 68.7069 7.104 69.7307 7.104V5.104C68.4824 5.104 67.3395 5.3151 66.3245 5.76619L67.1368 7.59381ZM69.7307 7.104C71.1747 7.104 72.2589 7.46572 73.0675 8.11006L74.3139 6.54594C73.0745 5.55828 71.5187 5.104 69.7307 5.104V7.104ZM73.081 8.12062C73.8783 8.73398 74.3303 9.56889 74.4218 10.7193L76.4155 10.5607C76.283 8.89511 75.583 7.52202 74.3004 6.53537L73.081 8.12062ZM75.4187 9.64H72.3947V11.64H75.4187V9.64ZM73.3916 10.5613C73.3195 9.64816 72.8753 8.88806 72.1639 8.30604L70.8974 9.85396C71.2421 10.1359 71.3739 10.4158 71.3978 10.7187L73.3916 10.5613ZM72.1639 8.30604C71.414 7.69248 70.4747 7.432 69.4427 7.432V9.432C70.1387 9.432 70.5914 9.60352 70.8974 9.85396L72.1639 8.30604ZM69.4427 7.432C68.4845 7.432 67.6068 7.67952 66.8949 8.25359L68.1504 9.81041C68.4306 9.58447 68.8329 9.432 69.4427 9.432V7.432ZM66.8949 8.25359C66.12 8.87855 65.7787 9.76636 65.7787 10.76H67.7787C67.7787 10.2496 67.9334 9.98545 68.1504 9.81041L66.8949 8.25359ZM65.7787 10.76C65.7787 11.4853 66.001 12.1589 66.4932 12.7029L67.9762 11.3611C67.8604 11.2331 67.7787 11.0587 67.7787 10.76H65.7787ZM66.5276 12.7391C66.956 13.1676 67.4754 13.4933 68.0633 13.7285L68.8061 11.8715C68.434 11.7227 68.1533 11.5364 67.9418 11.3249L66.5276 12.7391ZM68.0633 13.7285C68.5956 13.9414 69.2942 14.1612 70.1427 14.3896L70.6627 12.4584C69.8472 12.2388 69.2337 12.0426 68.8061 11.8715L68.0633 13.7285ZM70.1372 14.3881C71.2156 14.6851 72.0602 14.974 72.6865 15.2507L73.4949 13.4213C72.7451 13.09 71.7978 12.7709 70.6682 12.4599L70.1372 14.3881ZM72.6943 15.2541C73.2313 15.486 73.6865 15.8451 74.0667 16.352L75.6667 15.152C75.0869 14.3789 74.3581 13.794 73.4871 13.4179L72.6943 15.2541ZM74.0839 16.3742C74.3994 16.7712 74.6107 17.3684 74.6107 18.272H76.6107C76.6107 17.0636 76.3259 15.9808 75.6495 15.1298L74.0839 16.3742ZM74.6107 18.272C74.6107 18.9265 74.4346 19.5458 74.0637 20.1469L75.7657 21.1971C76.3228 20.2942 76.6107 19.3135 76.6107 18.272H74.6107ZM74.0556 20.1602C73.714 20.7335 73.1963 21.2212 72.4563 21.6114L73.3891 23.3806C74.4091 22.8428 75.2193 22.1145 75.7738 21.1838L74.0556 20.1602ZM72.4624 21.6082C71.7682 21.9682 70.9088 22.168 69.8507 22.168V24.168C71.1606 24.168 72.3492 23.9198 73.383 23.3838L72.4624 21.6082ZM78.7431 12.8L77.8656 12.3202L77.8599 12.3308L78.7431 12.8ZM80.9991 10.424L81.5093 11.2841L81.5136 11.2815L80.9991 10.424ZM86.8791 10.184L86.4028 11.0633L86.4136 11.0692L86.4246 11.0748L86.8791 10.184ZM88.7511 11.696L87.9561 12.3027L89.7511 14.6547V11.696H88.7511ZM88.7511 9.776V8.776H87.7511V9.776H88.7511ZM91.5111 9.776H92.5111V8.776H91.5111V9.776ZM91.5111 23V24H92.5111V23H91.5111ZM88.7511 23H87.7511V24H88.7511V23ZM88.7511 21.032H89.7511V18.0113L87.9486 20.4353L88.7511 21.032ZM86.8551 22.592L86.3937 21.7048L86.3937 21.7048L86.8551 22.592ZM80.9991 22.352L80.4677 23.1993L80.4782 23.2056L80.9991 22.352ZM78.7431 19.904L77.8541 20.362L77.8583 20.3701L77.8626 20.3781L78.7431 19.904ZM88.1751 14L87.298 14.4803L87.3023 14.4883L87.3068 14.4961L88.1751 14ZM86.7111 12.464L86.21 13.3294L86.21 13.3294L86.7111 12.464ZM82.7751 12.464L83.2587 13.3392L83.2675 13.3344L83.2761 13.3294L82.7751 12.464ZM81.2871 13.976L80.4188 13.4798L80.4149 13.4867L81.2871 13.976ZM81.2871 18.728L80.4053 19.1997L80.4095 19.2075L80.4139 19.2154L81.2871 18.728ZM82.7751 20.312L82.2573 21.1675L82.2704 21.1754L82.2837 21.183L82.7751 20.312ZM86.7111 20.312L87.2121 21.1774L87.2121 21.1774L86.7111 20.312ZM88.1751 18.776L87.3018 18.2886L87.298 18.2957L88.1751 18.776ZM78.9271 16.328C78.9271 15.1396 79.1694 14.1289 79.6262 13.2692L77.8599 12.3308C77.2287 13.5191 76.9271 14.8604 76.9271 16.328H78.9271ZM79.6204 13.2798C80.1 12.4028 80.7294 11.7467 81.5093 11.2841L80.4889 9.56394C79.3807 10.2213 78.5061 11.1492 77.8657 12.3202L79.6204 13.2798ZM81.5136 11.2815C82.3135 10.8015 83.1908 10.56 84.1671 10.56V8.56C82.8393 8.56 81.6046 8.89446 80.4846 9.56651L81.5136 11.2815ZM84.1671 10.56C85.0724 10.56 85.8065 10.7403 86.4028 11.0633L87.3553 9.30471C86.4156 8.79567 85.3417 8.56 84.1671 8.56V10.56ZM86.4246 11.0748C87.0954 11.417 87.5957 11.8304 87.9561 12.3027L89.546 11.0893C88.9785 10.3456 88.2308 9.75101 87.3335 9.29324L86.4246 11.0748ZM89.7511 11.696V9.776H87.7511V11.696H89.7511ZM88.7511 10.776H91.5111V8.776H88.7511V10.776ZM90.5111 9.776V23H92.5111V9.776H90.5111ZM91.5111 22H88.7511V24H91.5111V22ZM89.7511 23V21.032H87.7511V23H89.7511ZM87.9486 20.4353C87.5882 20.9199 87.0809 21.3475 86.3937 21.7048L87.3164 23.4792C88.2293 23.0045 88.9859 22.3921 89.5535 21.6287L87.9486 20.4353ZM86.3937 21.7048C85.7545 22.0372 85.0044 22.216 84.1191 22.216V24.216C85.2817 24.216 86.3556 23.9788 87.3164 23.4792L86.3937 21.7048ZM84.1191 22.216C83.1616 22.216 82.3026 21.9759 81.5199 21.4984L80.4782 23.2056C81.5835 23.8801 82.8046 24.216 84.1191 24.216V22.216ZM81.5304 21.5048C80.742 21.0104 80.1065 20.3269 79.6235 19.4299L77.8626 20.3781C78.4996 21.5611 79.3682 22.5096 80.4678 23.1992L81.5304 21.5048ZM79.632 19.446C79.1692 18.5477 78.9271 17.5157 78.9271 16.328H76.9271C76.9271 17.7963 77.2289 19.1483 77.8541 20.362L79.632 19.446ZM89.7511 16.376C89.7511 15.3212 89.5279 14.3519 89.0433 13.5039L87.3068 14.4961C87.5902 14.9921 87.7511 15.6068 87.7511 16.376H89.7511ZM89.0522 13.5197C88.6046 12.7024 87.9925 12.0504 87.2121 11.5986L86.21 13.3294C86.6456 13.5816 87.0095 13.9536 87.298 14.4803L89.0522 13.5197ZM87.2121 11.5986C86.4515 11.1582 85.6226 10.936 84.7431 10.936V12.936C85.2715 12.936 85.7546 13.0658 86.21 13.3294L87.2121 11.5986ZM84.7431 10.936C83.8635 10.936 83.0346 11.1582 82.274 11.5986L83.2761 13.3294C83.7315 13.0658 84.2146 12.936 84.7431 12.936V10.936ZM82.2914 11.5888C81.505 12.0233 80.8831 12.6673 80.4188 13.4799L82.1553 14.4721C82.459 13.9407 82.8291 13.5767 83.2587 13.3392L82.2914 11.5888ZM80.4149 13.4867C79.947 14.3209 79.7351 15.2809 79.7351 16.328H81.7351C81.7351 15.5511 81.8911 14.9431 82.1592 14.4653L80.4149 13.4867ZM79.7351 16.328C79.7351 17.3767 79.9475 18.3438 80.4053 19.1997L82.1688 18.2563C81.8906 17.7362 81.7351 17.1033 81.7351 16.328H79.7351ZM80.4139 19.2154C80.873 20.038 81.4852 20.7002 82.2573 21.1675L83.2929 19.4565C82.8489 19.1878 82.4691 18.794 82.1603 18.2406L80.4139 19.2154ZM82.2837 21.183C83.0512 21.6159 83.8757 21.84 84.7431 21.84V19.84C84.2345 19.84 83.7469 19.7121 83.2664 19.441L82.2837 21.183ZM84.7431 21.84C85.6226 21.84 86.4515 21.6178 87.2121 21.1774L86.21 19.4466C85.7546 19.7102 85.2715 19.84 84.7431 19.84V21.84ZM87.2121 21.1774C87.9925 20.7256 88.6046 20.0736 89.0522 19.2563L87.298 18.2957C87.0095 18.8224 86.6456 19.1944 86.21 19.4466L87.2121 21.1774ZM89.0483 19.2634C89.5277 18.4044 89.7511 17.4315 89.7511 16.376H87.7511C87.7511 17.1445 87.5904 17.7716 87.3019 18.2886L89.0483 19.2634ZM97.8407 5.24H98.8407V4.24H97.8407V5.24ZM97.8407 23V24H98.8407V23H97.8407ZM95.1047 23H94.1047V24H95.1047V23ZM95.1047 5.24V4.24H94.1047V5.24H95.1047ZM96.8407 5.24V23H98.8407V5.24H96.8407ZM97.8407 22H95.1047V24H97.8407V22ZM96.1047 23V5.24H94.1047V23H96.1047ZM95.1047 6.24H97.8407V4.24H95.1047V6.24ZM113.457 17.408V18.408H114.31L114.444 17.566L113.457 17.408ZM103.353 17.408V16.408H102.274L102.356 17.4835L103.353 17.408ZM104.529 19.952L103.856 20.6919L103.856 20.6919L104.529 19.952ZM110.241 19.064V18.064H109.619L109.344 18.6215L110.241 19.064ZM113.193 19.064L114.143 19.3765L114.574 18.064H113.193V19.064ZM111.009 22.064L111.603 22.8684L111.605 22.8669L111.009 22.064ZM103.713 22.376L103.211 23.2408L103.219 23.2456L103.227 23.2502L103.713 22.376ZM101.361 19.976L100.48 20.4501L100.485 20.4582L100.489 20.4663L101.361 19.976ZM101.337 12.8L100.456 12.3259L100.454 12.3308L101.337 12.8ZM103.665 10.4L103.179 9.52582L103.173 9.52917L103.665 10.4ZM110.457 10.376L110.944 9.50252L110.944 9.50252L110.457 10.376ZM112.737 12.68L111.86 13.1608L111.863 13.1669L112.737 12.68ZM110.697 15.2V16.2H111.713L111.697 15.1841L110.697 15.2ZM109.617 12.776L110.27 12.0192L110.27 12.0192L109.617 12.776ZM104.577 12.776L105.238 13.5264L105.248 13.5175L104.577 12.776ZM103.377 15.2L102.385 15.076L102.244 16.2H103.377V15.2ZM112.553 16.064C112.553 16.5184 112.523 16.9123 112.469 17.25L114.444 17.566C114.518 17.1037 114.553 16.6016 114.553 16.064H112.553ZM113.457 16.408H103.353V18.408H113.457V16.408ZM102.356 17.4835C102.453 18.763 102.941 19.8601 103.856 20.6919L105.201 19.2121C104.709 18.7639 104.413 18.165 104.35 17.3325L102.356 17.4835ZM103.856 20.6919C104.759 21.5127 105.869 21.912 107.121 21.912V19.912C106.325 19.912 105.707 19.6713 105.201 19.2121L103.856 20.6919ZM107.121 21.912C107.997 21.912 108.81 21.7278 109.514 21.3104C110.223 20.8906 110.76 20.272 111.138 19.5065L109.344 18.6215C109.114 19.088 108.826 19.3934 108.495 19.5896C108.16 19.7882 107.716 19.912 107.121 19.912V21.912ZM110.241 20.064H113.193V18.064H110.241V20.064ZM112.243 18.7515C111.909 19.7658 111.308 20.5965 110.413 21.2611L111.605 22.8669C112.822 21.9635 113.676 20.7942 114.143 19.3765L112.243 18.7515ZM110.415 21.2596C109.579 21.8767 108.503 22.216 107.121 22.216V24.216C108.843 24.216 110.359 23.7873 111.603 22.8684L110.415 21.2596ZM107.121 22.216C106.01 22.216 105.044 21.9715 104.198 21.5018L103.227 23.2502C104.398 23.9005 105.704 24.216 107.121 24.216V22.216ZM104.215 21.5112C103.381 21.0271 102.723 20.3581 102.232 19.4857L100.489 20.4663C101.151 21.6419 102.06 22.5729 103.211 23.2408L104.215 21.5112ZM102.241 19.5019C101.771 18.6283 101.521 17.5958 101.521 16.376H99.5208C99.5208 17.8762 99.8307 19.2437 100.48 20.4501L102.241 19.5019ZM101.521 16.376C101.521 15.1513 101.765 14.1256 102.22 13.2692L100.454 12.3308C99.8207 13.5224 99.5208 14.8807 99.5208 16.376H101.521ZM102.217 13.2741C102.691 12.394 103.335 11.7344 104.156 11.2708L103.173 9.52917C102.01 10.1856 101.102 11.126 100.456 12.3259L102.217 13.2741ZM104.15 11.2742C104.992 10.8065 105.973 10.56 107.121 10.56V8.56C105.676 8.56 104.353 8.87349 103.179 9.52584L104.15 11.2742ZM107.121 10.56C108.219 10.56 109.16 10.7978 109.97 11.2495L110.944 9.50252C109.802 8.86619 108.519 8.56 107.121 8.56V10.56ZM109.97 11.2495C110.779 11.7007 111.405 12.3316 111.86 13.1608L113.614 12.1992C112.98 11.0444 112.086 10.1393 110.944 9.50252L109.97 11.2495ZM111.863 13.1669C112.313 13.9735 112.553 14.9293 112.553 16.064H114.553C114.553 14.6387 114.249 13.3385 113.61 12.1931L111.863 13.1669ZM111.697 15.1841C111.677 13.9179 111.21 12.8304 110.27 12.0192L108.963 13.5328C109.432 13.9376 109.685 14.4661 109.697 15.2159L111.697 15.1841ZM110.27 12.0192C109.363 11.2356 108.25 10.864 107.001 10.864V12.864C107.831 12.864 108.463 13.1004 108.963 13.5328L110.27 12.0192ZM107.001 10.864C105.82 10.864 104.77 11.2527 103.906 12.0345L105.248 13.5175C105.728 13.0833 106.293 12.864 107.001 12.864V10.864ZM103.916 12.0256C103.033 12.8034 102.538 13.849 102.385 15.076L104.369 15.324C104.472 14.503 104.777 13.9326 105.238 13.5264L103.916 12.0256ZM103.377 16.2H110.697V14.2H103.377V16.2ZM125.792 22.088L125.298 22.9576L125.304 22.9612L125.311 22.9647L125.792 22.088ZM122.696 19.04L121.828 19.5373L121.832 19.5436L121.835 19.5498L122.696 19.04ZM122.696 10.232L121.835 9.72218L121.831 9.73012L122.696 10.232ZM125.792 7.208L126.277 8.08216L126.281 8.08014L125.792 7.208ZM134.384 7.208L133.89 8.07756L133.896 8.08116L133.903 8.08467L134.384 7.208ZM137.48 10.232L136.615 10.7339L136.615 10.7339L137.48 10.232ZM137.48 19.04L138.345 19.5419L138.347 19.5373L137.48 19.04ZM134.384 22.088L134.869 22.9622L134.873 22.9601L134.384 22.088ZM133.04 20.048L133.538 20.9153L133.549 20.9083L133.04 20.048ZM135.056 17.888L134.17 17.4229L134.167 17.4286L135.056 17.888ZM135.056 11.384L134.167 11.8435L134.174 11.8554L135.056 11.384ZM133.04 9.248L132.542 10.1153L132.542 10.1153L133.04 9.248ZM127.136 9.248L127.634 10.1153L127.634 10.1153L127.136 9.248ZM125.096 11.384L124.214 10.9126L124.207 10.9246L125.096 11.384ZM125.096 17.888L124.204 18.3412L124.209 18.3504L124.214 18.3594L125.096 17.888ZM127.136 20.048L126.626 20.9084L126.638 20.9153L127.136 20.048ZM130.088 22.168C128.697 22.168 127.432 21.8474 126.273 21.2113L125.311 22.9647C126.776 23.7686 128.374 24.168 130.088 24.168V22.168ZM126.286 21.2184C125.143 20.5694 124.236 19.6781 123.556 18.5302L121.835 19.5498C122.691 20.9939 123.849 22.1346 125.298 22.9576L126.286 21.2184ZM123.563 18.5427C122.905 17.394 122.568 16.0958 122.568 14.624H120.568C120.568 16.4162 120.983 18.062 121.828 19.5373L123.563 18.5427ZM122.568 14.624C122.568 13.1521 122.905 11.864 123.561 10.7339L121.831 9.73012C120.982 11.192 120.568 12.8319 120.568 14.624H122.568ZM123.556 10.7418C124.235 9.59573 125.139 8.71461 126.277 8.08216L125.306 6.33384C123.852 7.14138 122.692 8.27627 121.835 9.7222L123.556 10.7418ZM126.281 8.08014C127.439 7.4307 128.701 7.104 130.088 7.104V5.104C128.37 5.104 126.769 5.5133 125.302 6.33586L126.281 8.08014ZM130.088 7.104C131.492 7.104 132.752 7.43156 133.89 8.07756L134.878 6.33844C133.423 5.51244 131.819 5.104 130.088 5.104V7.104ZM133.903 8.08467C135.055 8.71692 135.954 9.59524 136.615 10.7339L138.345 9.73012C137.501 8.27676 136.337 7.13908 134.865 6.33133L133.903 8.08467ZM136.615 10.7339C137.27 11.864 137.608 13.1521 137.608 14.624H139.608C139.608 12.8319 139.193 11.192 138.345 9.73012L136.615 10.7339ZM137.608 14.624C137.608 16.0958 137.271 17.394 136.612 18.5427L138.347 19.5373C139.193 18.062 139.608 16.4162 139.608 14.624H137.608ZM136.615 18.5381C135.953 19.6787 135.051 20.5671 133.894 21.2159L134.873 22.9601C136.34 22.1369 137.502 20.9933 138.345 19.5419L136.615 18.5381ZM133.898 21.2138C132.759 21.8465 131.496 22.168 130.088 22.168V24.168C131.815 24.168 133.416 23.7695 134.869 22.9622L133.898 21.2138ZM130.088 21.792C131.347 21.792 132.506 21.5074 133.538 20.9153L132.542 19.1807C131.845 19.5806 131.036 19.792 130.088 19.792V21.792ZM133.549 20.9083C134.581 20.2968 135.381 19.4348 135.944 18.3474L134.167 17.4286C133.77 18.1972 133.226 18.7752 132.53 19.1877L133.549 20.9083ZM135.941 18.3531C136.523 17.2448 136.8 15.9928 136.8 14.624H134.8C134.8 15.7192 134.58 16.6432 134.17 17.4229L135.941 18.3531ZM136.8 14.624C136.8 13.2557 136.523 12.0086 135.938 10.9126L134.174 11.8554C134.58 12.6154 134.8 13.5283 134.8 14.624H136.8ZM135.944 10.9246C135.38 9.8347 134.576 8.97716 133.538 8.38075L132.542 10.1153C133.231 10.5108 133.771 11.0773 134.167 11.8434L135.944 10.9246ZM133.538 8.38075C132.506 7.78861 131.347 7.504 130.088 7.504V9.504C131.036 9.504 131.845 9.71539 132.542 10.1153L133.538 8.38075ZM130.088 7.504C128.828 7.504 127.669 7.78861 126.638 8.38075L127.634 10.1153C128.33 9.71539 129.139 9.504 130.088 9.504V7.504ZM126.638 8.38075C125.602 8.97543 124.793 9.82899 124.214 10.9126L125.978 11.8554C126.39 11.083 126.941 10.5126 127.634 10.1153L126.638 8.38075ZM124.207 10.9246C123.642 12.018 123.376 13.2607 123.376 14.624H125.376C125.376 13.5233 125.589 12.606 125.984 11.8434L124.207 10.9246ZM123.376 14.624C123.376 15.9878 123.642 17.2356 124.204 18.3412L125.987 17.4348C125.589 16.6524 125.376 15.7242 125.376 14.624H123.376ZM124.214 18.3594C124.792 19.4405 125.597 20.2986 126.626 20.9083L127.645 19.1877C126.946 18.7734 126.392 18.1915 125.978 17.4166L124.214 18.3594ZM126.638 20.9153C127.669 21.5074 128.828 21.792 130.088 21.792V19.792C129.139 19.792 128.33 19.5806 127.634 19.1807L126.638 20.9153ZM146.844 12.008V13.008H147.844V12.008H146.844ZM144.396 12.008V11.008H143.396V12.008H144.396ZM144.396 23V24H145.396V23H144.396ZM141.636 23H140.636V24H141.636V23ZM141.636 12.008H142.636V11.008H141.636V12.008ZM140.076 12.008H139.076V13.008H140.076V12.008ZM140.076 9.776V8.776H139.076V9.776H140.076ZM141.636 9.776V10.776H142.636V9.776H141.636ZM142.836 5.528L143.488 6.28619L143.489 6.28516L142.836 5.528ZM146.652 4.472H147.652V3.472H146.652V4.472ZM146.652 6.752V7.752H147.652V6.752H146.652ZM144.9 7.232L145.571 7.97354L145.58 7.96496L145.59 7.95614L144.9 7.232ZM144.396 9.776H143.396V10.776H144.396V9.776ZM146.844 9.776H147.844V8.776H146.844V9.776ZM146.844 11.008H144.396V13.008H146.844V11.008ZM143.396 12.008V23H145.396V12.008H143.396ZM144.396 22H141.636V24H144.396V22ZM142.636 23V12.008H140.636V23H142.636ZM141.636 11.008H140.076V13.008H141.636V11.008ZM141.076 12.008V9.776H139.076V12.008H141.076ZM140.076 10.776H141.636V8.776H140.076V10.776ZM142.636 9.776V8.84H140.636V9.776H142.636ZM142.636 8.84C142.636 7.47931 142.992 6.71235 143.488 6.28618L142.184 4.76981C141.08 5.71965 140.636 7.16068 140.636 8.84H142.636ZM143.489 6.28516C144.042 5.80836 145.028 5.472 146.652 5.472V3.472C144.82 3.472 143.262 3.83964 142.183 4.77084L143.489 6.28516ZM145.652 4.472V6.752H147.652V4.472H145.652ZM146.652 5.752C145.748 5.752 144.833 5.91482 144.21 6.50786L145.59 7.95614C145.639 7.90918 145.892 7.752 146.652 7.752V5.752ZM144.229 6.49046C143.576 7.08102 143.396 7.9766 143.396 8.84H145.396C145.396 8.1674 145.552 7.99098 145.571 7.97354L144.229 6.49046ZM143.396 8.84V9.776H145.396V8.84H143.396ZM144.396 10.776H146.844V8.776H144.396V10.776ZM145.844 9.776V12.008H147.844V9.776H145.844ZM154.813 12.008V13.008H155.813V12.008H154.813ZM152.365 12.008V11.008H151.365V12.008H152.365ZM152.365 23V24H153.365V23H152.365ZM149.605 23H148.605V24H149.605V23ZM149.605 12.008H150.605V11.008H149.605V12.008ZM148.045 12.008H147.045V13.008H148.045V12.008ZM148.045 9.776V8.776H147.045V9.776H148.045ZM149.605 9.776V10.776H150.605V9.776H149.605ZM150.805 5.528L151.457 6.28619L151.458 6.28516L150.805 5.528ZM154.621 4.472H155.621V3.472H154.621V4.472ZM154.621 6.752V7.752H155.621V6.752H154.621ZM152.869 7.232L153.54 7.97354L153.549 7.96496L153.558 7.95614L152.869 7.232ZM152.365 9.776H151.365V10.776H152.365V9.776ZM154.813 9.776H155.813V8.776H154.813V9.776ZM154.813 11.008H152.365V13.008H154.813V11.008ZM151.365 12.008V23H153.365V12.008H151.365ZM152.365 22H149.605V24H152.365V22ZM150.605 23V12.008H148.605V23H150.605ZM149.605 11.008H148.045V13.008H149.605V11.008ZM149.045 12.008V9.776H147.045V12.008H149.045ZM148.045 10.776H149.605V8.776H148.045V10.776ZM150.605 9.776V8.84H148.605V9.776H150.605ZM150.605 8.84C150.605 7.47931 150.961 6.71235 151.457 6.28618L150.153 4.76981C149.048 5.71965 148.605 7.16068 148.605 8.84H150.605ZM151.458 6.28516C152.011 5.80836 152.996 5.472 154.621 5.472V3.472C152.789 3.472 151.231 3.83964 150.152 4.77084L151.458 6.28516ZM153.621 4.472V6.752H155.621V4.472H153.621ZM154.621 5.752C153.717 5.752 152.802 5.91482 152.179 6.50786L153.558 7.95614C153.608 7.90918 153.861 7.752 154.621 7.752V5.752ZM152.198 6.49046C151.545 7.08102 151.365 7.9766 151.365 8.84H153.365C153.365 8.1674 153.52 7.99098 153.54 7.97354L152.198 6.49046ZM151.365 8.84V9.776H153.365V8.84H151.365ZM152.365 10.776H154.813V8.776H152.365V10.776ZM153.813 9.776V12.008H155.813V9.776H153.813Z" fill="black" mask="url(#path-2-outside-1_46_17)"/>
</svg>
