<svg width="348" height="80" viewBox="0 0 348 80" fill="none" xmlns="http://www.w3.org/2000/svg">
<path d="M44.0493 64.2232C44.1211 56.8803 42.2595 50.9091 39.8915 50.8859C37.5233 50.8629 35.5454 56.7967 35.4738 64.1394C35.4019 71.4823 37.2635 77.4536 39.6315 77.4767C41.9997 77.4999 43.9776 71.5661 44.0493 64.2232Z" fill="white"/>
<path d="M30.3152 62.5555C34.3458 56.4173 36.0083 50.3875 34.0288 49.0877C32.0491 47.7878 27.177 51.7101 23.1466 57.8483C19.116 63.9865 17.4534 70.0161 19.433 71.3161C21.4126 72.616 26.2846 68.6937 30.3152 62.5555Z" fill="white"/>
<path d="M19.6467 53.7488C26.3561 50.7645 31.0149 46.591 30.0523 44.4272C29.0899 42.2633 22.8707 42.9286 16.1613 45.9131C9.45189 48.8974 4.79312 53.0709 5.7556 55.2347C6.71807 57.3985 12.9373 56.7333 19.6467 53.7488Z" fill="white"/>
<path d="M29.247 38.3592C29.6073 36.0186 24.0158 33.2155 16.7582 32.0984C9.50044 30.9813 3.32485 31.9733 2.9646 34.3139C2.60434 36.6546 8.19583 39.4575 15.4536 40.5746C22.7112 41.6917 28.8869 40.6997 29.247 38.3592Z" fill="white"/>
<path d="M31.8528 32.7832C33.4211 31.0088 30.232 25.6282 24.7298 20.7653C19.2275 15.9024 13.4957 13.3988 11.9274 15.1733C10.3591 16.9478 13.5483 22.3285 19.0506 27.1914C24.5528 32.0542 30.2847 34.5578 31.8528 32.7832Z" fill="white"/>
<path d="M37.0422 29.5245C39.321 28.8797 39.5474 22.629 37.548 15.5633C35.5486 8.49754 32.0805 3.29236 29.8018 3.93717C27.523 4.58199 27.2966 10.8326 29.296 17.8984C31.2954 24.964 34.7635 30.1693 37.0422 29.5245Z" fill="white"/>
<path d="M51.1334 18.1182C53.2718 11.0933 53.1688 4.8394 50.9032 4.14978C48.6376 3.46015 45.0675 8.59592 42.9291 15.6209C40.7909 22.6458 40.8939 28.8997 43.1595 29.5893C45.4251 30.2789 48.9952 25.1432 51.1334 18.1182Z" fill="white"/>
<path d="M61.2022 27.6104C66.7986 22.856 70.0923 17.5387 68.5589 15.734C67.0256 13.9292 61.2459 16.3203 55.6498 21.0745C50.0534 25.8289 46.7598 31.1462 48.2931 32.951C49.8264 34.7558 55.6061 32.3648 61.2022 27.6104Z" fill="white"/>
<path d="M64.5315 41.043C71.8099 40.0693 77.4555 37.3771 77.1414 35.0297C76.8275 32.6825 70.6726 31.5691 63.3942 32.5427C56.116 33.5165 50.4702 36.2086 50.7843 38.556C51.0984 40.9032 57.2531 42.0168 64.5315 41.043Z" fill="white"/>
<path d="M73.9206 55.9056C74.9256 53.7613 70.3501 49.4968 63.7008 46.3807C57.0517 43.2645 50.8467 42.4768 49.8417 44.6211C48.8368 46.7656 53.4123 51.0301 60.0616 54.1463C66.7107 57.2623 72.9157 58.0501 73.9206 55.9056Z" fill="white"/>
<path d="M59.9343 71.7278C61.9391 70.4673 60.3957 64.4059 56.4871 58.1894C52.5784 51.9729 47.7845 47.9555 45.7797 49.216C43.7749 50.4765 45.3183 56.5379 49.2269 62.7544C53.1355 68.9709 57.9295 72.9885 59.9343 71.7278Z" fill="white"/>
<path d="M99.3579 40.328C99.3579 37.832 99.8979 35.612 100.978 33.668C102.058 31.7 103.558 30.176 105.478 29.096C107.422 27.992 109.618 27.44 112.066 27.44C115.066 27.44 117.634 28.232 119.77 29.816C121.906 31.4 123.334 33.56 124.054 36.296H117.286C116.782 35.24 116.062 34.436 115.126 33.884C114.214 33.332 113.17 33.056 111.994 33.056C110.098 33.056 108.562 33.716 107.386 35.036C106.21 36.356 105.622 38.12 105.622 40.328C105.622 42.536 106.21 44.3 107.386 45.62C108.562 46.94 110.098 47.6 111.994 47.6C113.17 47.6 114.214 47.324 115.126 46.772C116.062 46.22 116.782 45.416 117.286 44.36H124.054C123.334 47.096 121.906 49.256 119.77 50.84C117.634 52.4 115.066 53.18 112.066 53.18C109.618 53.18 107.422 52.64 105.478 51.56C103.558 50.456 102.058 48.932 100.978 46.988C99.8979 45.044 99.3579 42.824 99.3579 40.328ZM149.712 27.728V53H143.556V42.596H133.98V53H127.824V27.728H133.98V37.628H143.556V27.728H149.712ZM160.312 27.728V53H154.156V27.728H160.312ZM163.729 40.328C163.729 37.832 164.269 35.612 165.349 33.668C166.429 31.7 167.929 30.176 169.849 29.096C171.793 27.992 173.989 27.44 176.437 27.44C179.437 27.44 182.005 28.232 184.141 29.816C186.277 31.4 187.705 33.56 188.425 36.296H181.657C181.153 35.24 180.433 34.436 179.497 33.884C178.585 33.332 177.541 33.056 176.365 33.056C174.469 33.056 172.933 33.716 171.757 35.036C170.581 36.356 169.993 38.12 169.993 40.328C169.993 42.536 170.581 44.3 171.757 45.62C172.933 46.94 174.469 47.6 176.365 47.6C177.541 47.6 178.585 47.324 179.497 46.772C180.433 46.22 181.153 45.416 181.657 44.36H188.425C187.705 47.096 186.277 49.256 184.141 50.84C182.005 52.4 179.437 53.18 176.437 53.18C173.989 53.18 171.793 52.64 169.849 51.56C167.929 50.456 166.429 48.932 165.349 46.988C164.269 45.044 163.729 42.824 163.729 40.328ZM198.78 40.328C198.78 37.832 199.32 35.612 200.4 33.668C201.48 31.7 202.98 30.176 204.9 29.096C206.844 27.992 209.04 27.44 211.488 27.44C214.488 27.44 217.056 28.232 219.192 29.816C221.328 31.4 222.756 33.56 223.476 36.296H216.708C216.204 35.24 215.484 34.436 214.548 33.884C213.636 33.332 212.592 33.056 211.416 33.056C209.52 33.056 207.984 33.716 206.808 35.036C205.632 36.356 205.044 38.12 205.044 40.328C205.044 42.536 205.632 44.3 206.808 45.62C207.984 46.94 209.52 47.6 211.416 47.6C212.592 47.6 213.636 47.324 214.548 46.772C215.484 46.22 216.204 45.416 216.708 44.36H223.476C222.756 47.096 221.328 49.256 219.192 50.84C217.056 52.4 214.488 53.18 211.488 53.18C209.04 53.18 206.844 52.64 204.9 51.56C202.98 50.456 201.48 48.932 200.4 46.988C199.32 45.044 198.78 42.824 198.78 40.328ZM239.198 53.252C236.822 53.252 234.638 52.7 232.646 51.596C230.678 50.492 229.106 48.956 227.93 46.988C226.778 44.996 226.202 42.764 226.202 40.292C226.202 37.82 226.778 35.6 227.93 33.632C229.106 31.664 230.678 30.128 232.646 29.024C234.638 27.92 236.822 27.368 239.198 27.368C241.574 27.368 243.746 27.92 245.714 29.024C247.706 30.128 249.266 31.664 250.394 33.632C251.546 35.6 252.122 37.82 252.122 40.292C252.122 42.764 251.546 44.996 250.394 46.988C249.242 48.956 247.682 50.492 245.714 51.596C243.746 52.7 241.574 53.252 239.198 53.252ZM239.198 47.636C241.214 47.636 242.822 46.964 244.022 45.62C245.246 44.276 245.858 42.5 245.858 40.292C245.858 38.06 245.246 36.284 244.022 34.964C242.822 33.62 241.214 32.948 239.198 32.948C237.158 32.948 235.526 33.608 234.302 34.928C233.102 36.248 232.502 38.036 232.502 40.292C232.502 42.524 233.102 44.312 234.302 45.656C235.526 46.976 237.158 47.636 239.198 47.636ZM268.434 53L263.178 43.46H261.702V53H255.546V27.728H265.878C267.87 27.728 269.562 28.076 270.954 28.772C272.37 29.468 273.426 30.428 274.122 31.652C274.818 32.852 275.166 34.196 275.166 35.684C275.166 37.364 274.686 38.864 273.726 40.184C272.79 41.504 271.398 42.44 269.55 42.992L275.382 53H268.434ZM261.702 39.104H265.518C266.646 39.104 267.486 38.828 268.038 38.276C268.614 37.724 268.902 36.944 268.902 35.936C268.902 34.976 268.614 34.22 268.038 33.668C267.486 33.116 266.646 32.84 265.518 32.84H261.702V39.104ZM301.639 53H295.483L285.187 37.412V53H279.031V27.728H285.187L295.483 43.388V27.728H301.639V53ZM312.257 32.66V37.772H320.501V42.524H312.257V48.068H321.581V53H306.101V27.728H321.581V32.66H312.257ZM338.466 53L333.21 43.46H331.734V53H325.578V27.728H335.91C337.902 27.728 339.594 28.076 340.986 28.772C342.402 29.468 343.458 30.428 344.154 31.652C344.85 32.852 345.198 34.196 345.198 35.684C345.198 37.364 344.718 38.864 343.758 40.184C342.822 41.504 341.43 42.44 339.582 42.992L345.414 53H338.466ZM331.734 39.104H335.55C336.678 39.104 337.518 38.828 338.07 38.276C338.646 37.724 338.934 36.944 338.934 35.936C338.934 34.976 338.646 34.22 338.07 33.668C337.518 33.116 336.678 32.84 335.55 32.84H331.734V39.104Z" fill="white"/>
</svg>
