<svg width="266" height="64" viewBox="0 0 266 64" fill="none" xmlns="http://www.w3.org/2000/svg">
<path d="M29.1468 8.78114C30.0449 6.01721 33.9551 6.01722 34.8532 8.78115L38.5109 20.0385C38.9125 21.2746 40.0644 22.1115 41.3641 22.1115H53.2008C56.1069 22.1115 57.3153 25.8303 54.9641 27.5385L45.388 34.4959C44.3366 35.2599 43.8966 36.614 44.2982 37.85L47.956 49.1074C48.854 51.8713 45.6906 54.1697 43.3394 52.4615L33.7634 45.5041C32.7119 44.7401 31.2881 44.7401 30.2366 45.5041L20.6606 52.4615C18.3094 54.1697 15.146 51.8713 16.044 49.1074L19.7018 37.85C20.1034 36.614 19.6634 35.2599 18.612 34.4959L9.03588 27.5385C6.68474 25.8303 7.89307 22.1115 10.7992 22.1115H22.6359C23.9356 22.1115 25.0875 21.2746 25.4891 20.0385L29.1468 8.78114Z" fill="#FFBA34"/>
<path d="M181.147 8.78114C182.045 6.01721 185.955 6.01722 186.853 8.78115L190.511 20.0385C190.913 21.2746 192.064 22.1115 193.364 22.1115H205.201C208.107 22.1115 209.315 25.8303 206.964 27.5385L197.388 34.4959C196.337 35.2599 195.897 36.614 196.298 37.85L199.956 49.1074C200.854 51.8713 197.691 54.1697 195.339 52.4615L185.763 45.5041C184.712 44.7401 183.288 44.7401 182.237 45.5041L172.661 52.4615C170.309 54.1697 167.146 51.8713 168.044 49.1074L171.702 37.85C172.103 36.614 171.663 35.2599 170.612 34.4959L161.036 27.5385C158.685 25.8303 159.893 22.1115 162.799 22.1115H174.636C175.936 22.1115 177.087 21.2746 177.489 20.0385L181.147 8.78114Z" fill="#FFBA34"/>
<path d="M231.147 8.78114C232.045 6.01721 235.955 6.01722 236.853 8.78115L240.511 20.0385C240.913 21.2746 242.064 22.1115 243.364 22.1115H255.201C258.107 22.1115 259.315 25.8303 256.964 27.5385L247.388 34.4959C246.337 35.2599 245.897 36.614 246.298 37.85L249.956 49.1074C250.854 51.8713 247.691 54.1697 245.339 52.4615L235.763 45.5041C234.712 44.7401 233.288 44.7401 232.237 45.5041L222.661 52.4615C220.309 54.1697 217.146 51.8713 218.044 49.1074L221.702 37.85C222.103 36.614 221.663 35.2599 220.612 34.4959L211.036 27.5385C208.685 25.8303 209.893 22.1115 212.799 22.1115H224.636C225.936 22.1115 227.087 21.2746 227.489 20.0385L231.147 8.78114Z" fill="#FFBA34"/>
<path d="M131.147 8.78114C132.045 6.01721 135.955 6.01722 136.853 8.78115L140.511 20.0385C140.913 21.2746 142.064 22.1115 143.364 22.1115H155.201C158.107 22.1115 159.315 25.8303 156.964 27.5385L147.388 34.4959C146.337 35.2599 145.897 36.614 146.298 37.85L149.956 49.1074C150.854 51.8713 147.691 54.1697 145.339 52.4615L135.763 45.5041C134.712 44.7401 133.288 44.7401 132.237 45.5041L122.661 52.4615C120.309 54.1697 117.146 51.8713 118.044 49.1074L121.702 37.85C122.103 36.614 121.663 35.2599 120.612 34.4959L111.036 27.5385C108.685 25.8303 109.893 22.1115 112.799 22.1115H124.636C125.936 22.1115 127.087 21.2746 127.489 20.0385L131.147 8.78114Z" fill="#FFBA34"/>
<path d="M80.1468 8.78114C81.0449 6.01721 84.9551 6.01722 85.8532 8.78115L89.5109 20.0385C89.9125 21.2746 91.0644 22.1115 92.3641 22.1115H104.201C107.107 22.1115 108.315 25.8303 105.964 27.5385L96.388 34.4959C95.3366 35.2599 94.8966 36.614 95.2982 37.85L98.956 49.1074C99.854 51.8713 96.6906 54.1697 94.3394 52.4615L84.7634 45.5041C83.7119 44.7401 82.2881 44.7401 81.2366 45.5041L71.6606 52.4615C69.3094 54.1697 66.146 51.8713 67.044 49.1074L70.7018 37.85C71.1034 36.614 70.6634 35.2599 69.612 34.4959L60.0359 27.5385C57.6847 25.8303 58.8931 22.1115 61.7992 22.1115H73.6359C74.9356 22.1115 76.0875 21.2746 76.4891 20.0385L80.1468 8.78114Z" fill="#FFBA34"/>
</svg>
