<svg width="1067" height="777" viewBox="0 0 1067 777" fill="none" xmlns="http://www.w3.org/2000/svg">
<rect x="296.104" y="540.905" width="443" height="142" rx="71" transform="rotate(-20 296.104 540.905)" fill="#44403D"/>
<rect x="292.961" y="530.077" width="441.5" height="140.5" rx="70.25" transform="rotate(-20 292.961 530.077)" fill="#FFCF49" stroke="black" stroke-width="1.5"/>
<path d="M409.241 586.989L393.322 543.251L421.341 533.052L423.759 539.694L403.662 547.009L407.984 558.883L426.159 552.268L428.576 558.91L410.402 565.525L417.164 584.105L409.241 586.989ZM449.315 573.153C447.236 573.91 445.229 574.221 443.294 574.087C441.368 573.933 439.654 573.3 438.152 572.186C436.664 571.066 435.529 569.432 434.746 567.282C434.073 565.431 433.857 563.776 434.1 562.317C434.343 560.858 434.923 559.55 435.841 558.394C436.758 557.238 437.89 556.205 439.236 555.296C440.591 554.368 442.035 553.528 443.567 552.776C445.417 551.878 446.911 551.132 448.05 550.54C449.184 549.934 449.959 549.362 450.376 548.823C450.801 548.265 450.88 547.616 450.61 546.875L450.563 546.747C449.978 545.138 449.047 544.066 447.772 543.531C446.497 542.995 444.962 543.054 443.168 543.707C441.275 544.396 439.923 545.356 439.113 546.586C438.317 547.81 437.932 549.055 437.957 550.32L430.365 551.922C430.209 549.722 430.543 547.714 431.365 545.899C432.183 544.069 433.417 542.475 435.067 541.117C436.712 539.744 438.68 538.641 440.973 537.807C442.553 537.231 444.194 536.844 445.894 536.644C447.595 536.444 449.249 536.536 450.856 536.918C452.457 537.287 453.914 538.055 455.225 539.222C456.551 540.384 457.611 542.054 458.403 544.232L466.394 566.187L458.962 568.892L457.322 564.386L457.066 564.479C456.927 565.561 456.576 566.657 456.012 567.765C455.457 568.854 454.627 569.873 453.522 570.824C452.426 571.755 451.023 572.531 449.315 573.153ZM449.255 566.742C450.807 566.177 452.041 565.381 452.957 564.354C453.868 563.313 454.443 562.169 454.682 560.921C454.935 559.668 454.842 558.436 454.401 557.226L452.994 553.36C452.825 553.648 452.479 553.983 451.958 554.366C451.451 554.744 450.864 555.127 450.199 555.514C449.534 555.902 448.87 556.272 448.209 556.626C447.548 556.979 446.974 557.285 446.487 557.543C445.391 558.119 444.452 558.751 443.67 559.438C442.889 560.126 442.351 560.886 442.057 561.719C441.758 562.537 441.79 563.444 442.153 564.441C442.671 565.865 443.582 566.75 444.886 567.098C446.19 567.446 447.646 567.327 449.255 566.742ZM484.5 560.323C481.226 561.514 478.152 561.819 475.279 561.236C472.421 560.648 469.897 559.317 467.707 557.244C465.527 555.151 463.833 552.447 462.625 549.129C461.413 545.797 460.983 542.624 461.337 539.609C461.686 536.58 462.769 533.929 464.585 531.655C466.411 529.362 468.926 527.632 472.129 526.466C474.792 525.497 477.327 525.131 479.735 525.367C482.152 525.584 484.296 526.359 486.168 527.693C488.035 529.013 489.484 530.824 490.516 533.125L483.126 535.815C482.252 534.343 481.061 533.285 479.552 532.641C478.053 531.977 476.371 531.985 474.506 532.664C472.926 533.239 471.693 534.171 470.808 535.461C469.918 536.736 469.425 538.286 469.331 540.11C469.252 541.929 469.614 543.941 470.417 546.148C471.23 548.384 472.257 550.186 473.498 551.557C474.733 552.913 476.1 553.811 477.598 554.249C479.105 554.668 480.662 554.585 482.271 553.999C483.41 553.584 484.351 553 485.092 552.247C485.843 551.474 486.374 550.563 486.685 549.514C486.997 548.466 487.052 547.309 486.85 546.044L494.239 543.355C494.899 545.743 494.964 548.049 494.435 550.273C493.901 552.483 492.8 554.464 491.132 556.216C489.459 557.953 487.248 559.322 484.5 560.323ZM515.214 549.144C511.925 550.341 508.836 550.691 505.946 550.195C503.066 549.679 500.527 548.395 498.328 546.341C496.124 544.273 494.398 541.523 493.149 538.092C491.921 534.718 491.484 531.523 491.837 528.508C492.2 525.474 493.283 522.822 495.085 520.554C496.883 518.271 499.348 516.56 502.48 515.42C504.502 514.684 506.529 514.317 508.561 514.319C510.602 514.301 512.56 514.718 514.433 515.568C516.321 516.412 518.044 517.736 519.603 519.539C521.157 521.327 522.458 523.66 523.504 526.536L524.367 528.906L497.479 538.693L495.582 533.482L515.06 526.393C514.507 524.917 513.707 523.717 512.661 522.791C511.609 521.852 510.399 521.252 509.031 520.992C507.677 520.727 506.259 520.864 504.779 521.403C503.198 521.979 501.95 522.868 501.034 524.072C500.113 525.262 499.543 526.598 499.324 528.081C499.115 529.543 499.27 531.011 499.79 532.482L501.446 537.031C502.14 538.939 503.085 540.45 504.28 541.563C505.47 542.661 506.823 543.346 508.341 543.616C509.853 543.872 511.449 543.694 513.129 543.082C514.254 542.673 515.215 542.146 516.012 541.501C516.804 540.842 517.42 540.077 517.862 539.207C518.303 538.337 518.526 537.377 518.531 536.327L526.044 534.512C526.283 536.585 526.021 538.567 525.258 540.457C524.504 542.328 523.28 544.015 521.586 545.519C519.886 547.008 517.763 548.216 515.214 549.144ZM532.24 542.221L516.32 498.483L524.051 495.669L530.006 512.028L530.326 511.912C530.434 510.969 530.688 509.917 531.088 508.756C531.483 507.58 532.183 506.447 533.188 505.355C534.188 504.25 535.65 503.347 537.572 502.647C540.106 501.725 542.627 501.541 545.135 502.096C547.651 502.631 549.966 503.941 552.079 506.026C554.202 508.091 555.926 510.946 557.253 514.591C558.564 518.193 559.087 521.469 558.822 524.419C558.558 527.37 557.649 529.877 556.095 531.942C554.541 534.008 552.475 535.509 549.898 536.447C548.019 537.131 546.346 537.385 544.879 537.21C543.412 537.034 542.141 536.642 541.065 536.034C539.998 535.407 539.113 534.769 538.41 534.122L537.962 534.286L539.843 539.454L532.24 542.221ZM533.852 523.06C534.624 525.181 535.599 526.93 536.777 528.307C537.97 529.679 539.299 530.606 540.765 531.089C542.239 531.552 543.795 531.485 545.432 530.889C547.141 530.267 548.406 529.291 549.228 527.96C550.044 526.615 550.454 525.039 550.457 523.232C550.47 521.405 550.103 519.467 549.356 517.416C548.615 515.38 547.665 513.679 546.506 512.311C545.348 510.943 544.028 510.02 542.548 509.543C541.069 509.066 539.467 509.141 537.745 509.768C536.093 510.369 534.849 511.313 534.012 512.602C533.174 513.89 532.742 515.426 532.714 517.21C532.7 518.988 533.079 520.938 533.852 523.06ZM580.112 525.523C576.908 526.689 573.875 526.995 571.013 526.44C568.151 525.886 565.611 524.577 563.393 522.514C561.189 520.446 559.47 517.718 558.237 514.329C557.004 510.941 556.564 507.739 556.918 504.724C557.286 501.704 558.388 499.062 560.224 496.797C562.06 494.532 564.58 492.817 567.783 491.651C570.987 490.485 574.02 490.179 576.882 490.734C579.744 491.288 582.28 492.607 584.489 494.689C586.712 496.766 588.441 499.499 589.674 502.887C590.907 506.276 591.337 509.473 590.964 512.479C590.605 515.48 589.507 518.112 587.671 520.377C585.835 522.642 583.315 524.357 580.112 525.523ZM577.9 519.314C579.637 518.682 580.916 517.676 581.736 516.297C582.551 514.904 582.948 513.292 582.927 511.462C582.92 509.626 582.554 507.712 581.828 505.719C581.098 503.711 580.145 502.002 578.97 500.591C577.805 499.161 576.462 498.175 574.942 497.632C573.423 497.088 571.794 497.133 570.057 497.765C568.277 498.413 566.973 499.436 566.143 500.834C565.328 502.227 564.927 503.849 564.939 505.698C564.96 507.529 565.336 509.448 566.067 511.455C566.792 513.449 567.735 515.153 568.896 516.569C570.07 517.98 571.417 518.957 572.937 519.5C574.466 520.024 576.121 519.962 577.9 519.314ZM612.491 513.738C609.288 514.904 606.255 515.209 603.393 514.655C600.53 514.1 597.99 512.792 595.772 510.729C593.568 508.661 591.85 505.933 590.616 502.544C589.383 499.156 588.943 495.954 589.297 492.939C589.665 489.919 590.767 487.276 592.603 485.012C594.44 482.747 596.959 481.032 600.163 479.866C603.366 478.7 606.399 478.394 609.262 478.949C612.124 479.503 614.659 480.822 616.868 482.904C619.092 484.981 620.82 487.714 622.053 491.102C623.287 494.491 623.717 497.688 623.344 500.694C622.985 503.695 621.887 506.327 620.051 508.592C618.215 510.856 615.695 512.572 612.491 513.738ZM610.28 507.529C612.017 506.896 613.295 505.891 614.116 504.512C614.931 503.119 615.328 501.507 615.306 499.677C615.299 497.841 614.933 495.927 614.208 493.934C613.477 491.926 612.524 490.217 611.35 488.806C610.184 487.376 608.842 486.39 607.322 485.846C605.802 485.303 604.174 485.348 602.437 485.98C600.657 486.628 599.352 487.651 598.523 489.049C597.708 490.442 597.306 492.063 597.319 493.913C597.34 495.744 597.716 497.663 598.446 499.67C599.172 501.663 600.115 503.368 601.275 504.784C602.45 506.194 603.797 507.171 605.317 507.715C606.846 508.238 608.5 508.176 610.28 507.529ZM633.63 493.661L630.211 484.336L631.45 483.885L638.443 466.417L647.477 463.129L638.852 484.553L637.25 485.136L633.63 493.661ZM630.328 506.52L614.409 462.781L622.14 459.968L638.06 503.706L630.328 506.52ZM650.916 499.026L634.805 487.985L638.033 480.642L660.164 495.661L650.916 499.026Z" fill="black"/>
<rect x="145.127" y="162.791" width="443" height="142" rx="71" transform="rotate(-20 145.127 162.791)" fill="#44403D"/>
<rect x="141.984" y="151.963" width="441.5" height="140.5" rx="70.25" transform="rotate(-20 141.984 151.963)" fill="white" stroke="black" stroke-width="1.5"/>
<path d="M253.274 161.159L262.222 157.902L279.964 173.357L280.391 173.201L284.048 149.958L292.997 146.701L287.067 179.914L293.006 196.23L285.104 199.106L279.165 182.79L253.274 161.159ZM318.41 187.709C315.207 188.875 312.174 189.181 309.312 188.627C306.45 188.072 303.909 186.763 301.691 184.701C299.488 182.633 297.769 179.904 296.536 176.516C295.302 173.127 294.862 169.926 295.216 166.911C295.584 163.89 296.686 161.248 298.523 158.983C300.359 156.719 302.879 155.004 306.082 153.838C309.286 152.672 312.319 152.366 315.181 152.92C318.043 153.475 320.579 154.793 322.788 156.875C325.011 158.952 326.739 161.685 327.973 165.074C329.206 168.462 329.636 171.66 329.263 174.665C328.904 177.666 327.806 180.299 325.97 182.563C324.134 184.828 321.614 186.543 318.41 187.709ZM316.199 181.5C317.936 180.868 319.215 179.863 320.035 178.484C320.85 177.091 321.247 175.479 321.226 173.648C321.219 171.813 320.852 169.898 320.127 167.905C319.396 165.898 318.444 164.189 317.269 162.778C316.104 161.348 314.761 160.361 313.241 159.818C311.721 159.275 310.093 159.319 308.356 159.951C306.576 160.599 305.272 161.622 304.442 163.021C303.627 164.414 303.226 166.035 303.238 167.885C303.259 169.715 303.635 171.634 304.366 173.642C305.091 175.635 306.034 177.34 307.194 178.755C308.369 180.166 309.716 181.143 311.236 181.686C312.765 182.21 314.419 182.148 316.199 181.5ZM352.134 159.085L345.216 140.078L352.947 137.264L364.887 170.068L357.391 172.796L355.269 166.966L354.927 167.09C354.855 169.196 354.185 171.141 352.915 172.925C351.66 174.704 349.801 176.042 347.338 176.939C345.188 177.721 343.114 177.936 341.115 177.583C339.125 177.211 337.333 176.275 335.739 174.775C334.14 173.261 332.864 171.194 331.91 168.574L324.308 147.688L332.039 144.874L339.206 164.565C339.963 166.643 341.133 168.088 342.718 168.897C344.303 169.707 346.021 169.775 347.871 169.102C349.01 168.687 350.013 168.008 350.879 167.064C351.744 166.12 352.319 164.976 352.604 163.631C352.897 162.266 352.741 160.751 352.134 159.085ZM383.776 126.043L385.952 132.023L367.095 138.887L364.918 132.907L383.776 126.043ZM366.713 123.353L374.444 120.539L385.653 151.335C386.032 152.375 386.478 153.115 386.994 153.556C387.518 153.978 388.08 154.193 388.679 154.201C389.279 154.208 389.899 154.095 390.539 153.862C391.024 153.686 391.452 153.49 391.825 153.273C392.212 153.052 392.502 152.874 392.694 152.739L396.197 158.309C395.836 158.602 395.302 158.973 394.595 159.424C393.903 159.869 393.014 160.306 391.928 160.733C390.012 161.495 388.162 161.838 386.377 161.762C384.586 161.672 382.987 161.11 381.578 160.074C380.184 159.034 379.121 157.486 378.389 155.431L366.713 123.353ZM413.858 136.62L406.94 117.612L414.671 114.798L426.611 147.602L419.115 150.33L416.992 144.5L416.651 144.624C416.579 146.731 415.908 148.676 414.639 150.46C413.384 152.239 411.525 153.577 409.062 154.473C406.912 155.256 404.837 155.47 402.839 155.118C400.849 154.745 399.057 153.809 397.463 152.31C395.864 150.796 394.588 148.729 393.634 146.109L386.032 125.222L393.763 122.408L400.93 142.099C401.686 144.178 402.857 145.622 404.442 146.432C406.026 147.242 407.744 147.31 409.595 146.636C410.734 146.222 411.737 145.542 412.602 144.598C413.468 143.654 414.043 142.51 414.327 141.165C414.621 139.8 414.464 138.285 413.858 136.62ZM430.693 146.116L414.773 102.378L422.504 99.564L428.459 115.923L428.779 115.807C428.887 114.864 429.141 113.812 429.541 112.651C429.935 111.476 430.635 110.342 431.641 109.251C432.641 108.145 434.102 107.242 436.025 106.542C438.559 105.62 441.08 105.436 443.587 105.991C446.104 106.526 448.419 107.836 450.532 109.921C452.654 111.986 454.379 114.841 455.706 118.486C457.017 122.088 457.54 125.364 457.275 128.315C457.011 131.265 456.102 133.772 454.548 135.838C452.993 137.903 450.928 139.404 448.351 140.342C446.471 141.026 444.798 141.281 443.332 141.105C441.865 140.929 440.594 140.537 439.518 139.929C438.451 139.302 437.566 138.665 436.863 138.018L436.414 138.181L438.296 143.349L430.693 146.116ZM432.304 126.955C433.077 129.076 434.052 130.826 435.23 132.203C436.423 133.574 437.752 134.501 439.217 134.984C440.692 135.447 442.248 135.38 443.885 134.784C445.594 134.163 446.859 133.186 447.68 131.855C448.497 130.51 448.907 128.934 448.91 127.127C448.922 125.3 448.556 123.362 447.809 121.312C447.068 119.276 446.118 117.574 444.959 116.206C443.8 114.838 442.481 113.915 441.001 113.438C439.522 112.961 437.92 113.036 436.198 113.663C434.546 114.264 433.302 115.209 432.464 116.497C431.627 117.785 431.195 119.321 431.167 121.105C431.153 122.884 431.532 124.834 432.304 126.955ZM478.778 129.34C475.489 130.537 472.4 130.888 469.511 130.391C466.63 129.876 464.091 128.591 461.892 126.537C459.688 124.47 457.962 121.72 456.713 118.289C455.485 114.914 455.048 111.72 455.402 108.705C455.764 105.67 456.847 103.019 458.65 100.75C460.447 98.4677 462.912 96.7563 466.044 95.6162C468.066 94.8804 470.093 94.5134 472.125 94.5154C474.167 94.498 476.124 94.9143 477.997 95.7642C479.885 96.6089 481.608 97.9327 483.167 99.7354C484.721 101.524 486.022 103.856 487.069 106.732L487.931 109.103L461.043 118.889L459.147 113.678L478.624 106.589C478.071 105.114 477.271 103.913 476.225 102.988C475.173 102.048 473.964 101.449 472.595 101.189C471.241 100.924 469.824 101.061 468.343 101.6C466.763 102.175 465.514 103.065 464.598 104.269C463.677 105.459 463.107 106.795 462.889 108.277C462.679 109.74 462.835 111.207 463.354 112.679L465.01 117.228C465.704 119.136 466.649 120.646 467.844 121.759C469.034 122.858 470.388 123.542 471.905 123.812C473.417 124.068 475.013 123.89 476.693 123.279C477.818 122.869 478.779 122.342 479.576 121.697C480.368 121.038 480.985 120.274 481.426 119.404C481.867 118.534 482.09 117.574 482.095 116.524L489.609 114.708C489.847 116.782 489.585 118.764 488.822 120.654C488.068 122.525 486.844 124.212 485.15 125.715C483.451 127.204 481.327 128.413 478.778 129.34Z" fill="black"/>
<rect x="4.10425" y="426.905" width="443" height="142" rx="71" transform="rotate(-20 4.10425 426.905)" fill="#44403D"/>
<rect x="0.961285" y="416.077" width="441.5" height="140.5" rx="70.25" transform="rotate(-20 0.961285 416.077)" fill="#D5F178" stroke="black" stroke-width="1.5"/>
<path d="M107.004 427.183L122.923 470.921L115 473.805L99.0804 430.066L107.004 427.183ZM127.687 447.42L134.683 466.641L126.952 469.455L115.012 436.651L122.401 433.961L124.43 439.536L124.815 439.396C124.901 437.284 125.573 435.387 126.83 433.704C128.102 432.015 129.963 430.726 132.412 429.834C134.676 429.01 136.824 428.777 138.856 429.133C140.903 429.485 142.723 430.41 144.317 431.91C145.925 433.405 147.199 435.465 148.138 438.09L155.74 458.977L148.009 461.79L140.842 442.1C140.044 439.907 138.85 438.399 137.261 437.574C135.685 436.745 133.901 436.693 131.907 437.419C130.555 437.911 129.46 438.648 128.624 439.629C127.798 440.591 127.287 441.737 127.093 443.065C126.914 444.388 127.112 445.839 127.687 447.42ZM176.533 424.079L169.765 427.413C169.307 426.773 168.714 426.231 167.988 425.786C167.276 425.336 166.437 425.069 165.471 424.985C164.506 424.901 163.425 425.077 162.229 425.512C160.62 426.097 159.394 426.939 158.552 428.035C157.724 429.127 157.519 430.225 157.937 431.331C158.27 432.29 158.902 432.939 159.831 433.278C160.775 433.611 162.15 433.667 163.955 433.445L169.986 432.605C173.334 432.144 176.026 432.365 178.064 433.268C180.116 434.166 181.577 435.787 182.446 438.131C183.183 440.201 183.241 442.243 182.621 444.259C182.009 446.255 180.81 448.078 179.024 449.728C177.238 451.378 174.978 452.7 172.245 453.695C168.23 455.156 164.692 455.493 161.632 454.704C158.566 453.901 156.249 452.076 154.681 449.228L161.955 445.758C162.836 447.115 163.969 447.968 165.354 448.318C166.739 448.669 168.322 448.52 170.101 447.872C171.938 447.204 173.274 446.29 174.11 445.131C174.96 443.967 175.183 442.83 174.779 441.72C174.437 440.78 173.792 440.136 172.843 439.788C171.908 439.435 170.626 439.369 168.998 439.591L162.975 440.453C159.59 440.944 156.861 440.687 154.787 439.685C152.707 438.668 151.24 436.961 150.383 434.564C149.633 432.547 149.544 430.596 150.115 428.712C150.696 426.807 151.835 425.086 153.533 423.549C155.24 421.993 157.404 420.738 160.023 419.784C163.868 418.385 167.191 418.103 169.994 418.937C172.811 419.766 174.991 421.48 176.533 424.079ZM192.628 408.401L194.804 414.381L175.946 421.245L173.77 415.265L192.628 408.401ZM175.565 405.711L183.296 402.897L194.505 433.693C194.883 434.733 195.33 435.473 195.845 435.914C196.37 436.336 196.932 436.551 197.531 436.559C198.13 436.566 198.75 436.453 199.391 436.22C199.875 436.044 200.304 435.848 200.676 435.631C201.063 435.41 201.353 435.232 201.546 435.097L205.049 440.667C204.688 440.96 204.154 441.331 203.447 441.782C202.755 442.228 201.865 442.664 200.78 443.092C198.864 443.853 197.014 444.196 195.228 444.12C193.438 444.03 191.839 443.468 190.43 442.432C189.036 441.392 187.972 439.844 187.24 437.789L175.565 405.711ZM216.504 437.61C214.425 438.367 212.418 438.678 210.483 438.544C208.557 438.391 206.842 437.757 205.341 436.643C203.853 435.523 202.718 433.889 201.935 431.739C201.262 429.888 201.046 428.233 201.289 426.774C201.532 425.315 202.112 424.008 203.03 422.851C203.947 421.695 205.079 420.662 206.425 419.753C207.78 418.825 209.224 417.985 210.756 417.234C212.606 416.335 214.1 415.589 215.239 414.997C216.373 414.391 217.148 413.819 217.565 413.28C217.99 412.722 218.068 412.073 217.799 411.333L217.752 411.204C217.167 409.595 216.236 408.523 214.961 407.988C213.686 407.452 212.151 407.511 210.357 408.164C208.464 408.853 207.112 409.813 206.302 411.043C205.506 412.268 205.121 413.512 205.146 414.777L197.554 416.379C197.398 414.179 197.732 412.171 198.554 410.356C199.372 408.526 200.606 406.932 202.256 405.574C203.901 404.201 205.869 403.098 208.161 402.264C209.742 401.688 211.382 401.301 213.083 401.101C214.784 400.901 216.438 400.993 218.045 401.375C219.646 401.744 221.102 402.512 222.414 403.679C223.74 404.841 224.799 406.511 225.592 408.689L233.583 430.644L226.151 433.349L224.511 428.843L224.255 428.936C224.116 430.018 223.765 431.114 223.201 432.222C222.646 433.311 221.816 434.33 220.711 435.281C219.615 436.212 218.212 436.988 216.504 437.61ZM216.444 431.199C217.996 430.634 219.23 429.838 220.146 428.811C221.057 427.77 221.632 426.626 221.871 425.378C222.124 424.125 222.031 422.893 221.59 421.683L220.183 417.817C220.014 418.105 219.668 418.44 219.147 418.823C218.639 419.201 218.053 419.584 217.388 419.971C216.723 420.359 216.059 420.729 215.398 421.083C214.737 421.436 214.163 421.742 213.676 422C212.58 422.576 211.641 423.208 210.859 423.896C210.077 424.583 209.54 425.343 209.246 426.176C208.947 426.994 208.979 427.901 209.342 428.898C209.86 430.322 210.771 431.207 212.075 431.555C213.379 431.903 214.835 431.784 216.444 431.199ZM256.139 437.139C253.363 438.15 250.841 438.64 248.573 438.611C246.31 438.597 244.346 438.183 242.679 437.37C241.013 436.558 239.668 435.476 238.644 434.123L244.992 429.902C245.538 430.429 246.224 430.896 247.05 431.305C247.882 431.728 248.878 431.962 250.039 432.007C251.22 432.061 252.586 431.806 254.138 431.241C256.33 430.443 257.951 429.248 259.001 427.657C260.055 426.08 260.142 424.081 259.261 421.661L256.999 415.446L256.615 415.586C256.506 416.528 256.22 417.56 255.757 418.679C255.308 419.794 254.561 420.864 253.516 421.89C252.484 422.91 251.029 423.762 249.149 424.446C246.629 425.364 244.129 425.604 241.649 425.169C239.177 424.714 236.907 423.525 234.836 421.602C232.775 419.66 231.094 416.902 229.793 413.328C228.482 409.726 227.973 406.468 228.268 403.556C228.571 400.624 229.515 398.144 231.099 396.116C232.677 394.074 234.727 392.595 237.247 391.677C239.169 390.978 240.868 390.73 242.345 390.934C243.832 391.119 245.111 391.532 246.183 392.174C247.249 392.801 248.12 393.444 248.795 394.101L249.222 393.946L247.248 388.521L254.872 385.746L267.006 419.084C268.027 421.889 268.202 424.453 267.532 426.777C266.862 429.101 265.533 431.14 263.544 432.896C261.555 434.652 259.087 436.067 256.139 437.139ZM249.099 417.596C250.736 417 251.986 416.094 252.849 414.876C253.712 413.659 254.171 412.195 254.225 410.482C254.279 408.769 253.925 406.867 253.163 404.774C252.412 402.709 251.454 401.01 250.292 399.675C249.143 398.336 247.837 397.449 246.372 397.015C244.917 396.561 243.357 396.637 241.691 397.243C239.968 397.87 238.693 398.842 237.867 400.159C237.04 401.475 236.62 403.023 236.606 404.802C236.587 406.566 236.938 408.438 237.658 410.417C238.389 412.424 239.321 414.077 240.454 415.373C241.596 416.651 242.896 417.499 244.355 417.92C245.823 418.321 247.405 418.213 249.099 417.596ZM270.525 417.198L258.585 384.395L266.082 381.666L268.071 387.133L268.413 387.009C268.322 384.898 268.816 383.065 269.895 381.512C270.983 379.939 272.467 378.81 274.346 378.126C274.774 377.97 275.258 377.818 275.801 377.669C276.352 377.501 276.819 377.387 277.2 377.329L279.789 384.441C279.42 384.446 278.864 384.535 278.121 384.709C277.387 384.863 276.693 385.06 276.038 385.298C274.628 385.811 273.473 386.578 272.571 387.6C271.678 388.602 271.105 389.754 270.853 391.055C270.601 392.356 270.729 393.704 271.237 395.099L278.256 414.384L270.525 417.198ZM299.253 407.492C297.174 408.249 295.167 408.56 293.232 408.426C291.306 408.272 289.592 407.638 288.09 406.524C286.602 405.405 285.467 403.77 284.685 401.621C284.011 399.77 283.796 398.115 284.038 396.656C284.281 395.197 284.862 393.889 285.779 392.733C286.697 391.577 287.828 390.544 289.174 389.635C290.529 388.706 291.973 387.866 293.505 387.115C295.355 386.216 296.849 385.471 297.988 384.879C299.122 384.273 299.897 383.7 300.314 383.162C300.74 382.604 300.818 381.955 300.548 381.214L300.502 381.086C299.916 379.477 298.986 378.405 297.71 377.869C296.435 377.334 294.901 377.393 293.107 378.046C291.213 378.735 289.861 379.694 289.051 380.924C288.256 382.149 287.87 383.394 287.895 384.659L280.303 386.261C280.147 384.06 280.481 382.052 281.304 380.237C282.121 378.408 283.355 376.814 285.005 375.456C286.65 374.083 288.619 372.98 290.911 372.145C292.491 371.57 294.132 371.183 295.833 370.983C297.534 370.783 299.187 370.874 300.794 371.257C302.395 371.625 303.852 372.393 305.163 373.561C306.489 374.723 307.549 376.393 308.342 378.571L316.332 400.526L308.9 403.231L307.26 398.725L307.004 398.818C306.866 399.9 306.515 400.995 305.95 402.104C305.395 403.192 304.565 404.212 303.46 405.163C302.364 406.094 300.962 406.87 299.253 407.492ZM299.193 401.08C300.745 400.516 301.979 399.72 302.895 398.693C303.806 397.652 304.381 396.507 304.62 395.259C304.874 394.006 304.78 392.775 304.34 391.564L302.933 387.699C302.763 387.986 302.418 388.322 301.896 388.705C301.389 389.083 300.802 389.466 300.137 389.853C299.472 390.24 298.809 390.611 298.147 390.964C297.486 391.318 296.912 391.624 296.425 391.881C295.329 392.458 294.39 393.09 293.608 393.777C292.827 394.465 292.289 395.225 291.995 396.057C291.697 396.876 291.729 397.783 292.091 398.78C292.61 400.203 293.521 401.089 294.824 401.437C296.128 401.785 297.584 401.666 299.193 401.08ZM319.896 399.229L307.957 366.425L315.346 363.735L317.375 369.309L317.759 369.169C317.759 367.041 318.357 365.163 319.554 363.534C320.746 361.891 322.438 360.67 324.63 359.872C326.851 359.064 328.921 358.924 330.838 359.451C332.764 359.959 334.378 361.025 335.678 362.648L336.019 362.523C336.082 360.437 336.778 358.539 338.107 356.83C339.445 355.101 341.303 353.804 343.681 352.939C346.699 351.84 349.509 351.898 352.112 353.111C354.714 354.324 356.681 356.761 358.013 360.42L366.027 382.439L358.274 385.26L350.695 364.437C349.954 362.401 348.872 361.111 347.448 360.565C346.018 360.005 344.521 360.01 342.955 360.58C341.089 361.258 339.843 362.373 339.214 363.924C338.594 365.456 338.621 367.147 339.295 368.998L346.742 389.458L339.16 392.217L331.465 371.074C330.848 369.38 329.843 368.214 328.45 367.576C327.071 366.933 325.563 366.91 323.926 367.506C322.815 367.91 321.908 368.562 321.204 369.464C320.495 370.351 320.056 371.405 319.889 372.627C319.715 373.835 319.875 375.115 320.367 376.468L327.628 396.415L319.896 399.229Z" fill="black"/>
<rect x="602.104" y="642.905" width="443" height="142" rx="71" transform="rotate(-20 602.104 642.905)" fill="#44403D"/>
<rect x="598.961" y="632.077" width="441.5" height="140.5" rx="70.25" transform="rotate(-20 598.961 632.077)" fill="#FFE0D3" stroke="black" stroke-width="1.5"/>
<path d="M736.416 639.271L733.998 632.629L768.895 619.928L771.312 626.57L757.794 631.49L771.296 668.587L763.436 671.447L749.934 634.351L736.416 639.271ZM790.001 661.779L768.793 632.348L776.674 629.48L790.835 650.446L791.134 650.338L788.633 625.127L796.429 622.29L810.671 643.081L810.992 642.965L808.324 617.96L816.226 615.084L818.876 651.269L810.824 654.2L796.605 634.27L796.156 634.433L798.074 658.84L790.001 661.779ZM829.354 647.455L817.414 614.652L825.145 611.838L837.085 644.642L829.354 647.455ZM819.607 608.581C818.382 609.027 817.181 609.005 816.003 608.514C814.819 608.01 814.018 607.181 813.598 606.028C813.173 604.86 813.254 603.71 813.842 602.577C814.424 601.43 815.327 600.634 816.552 600.188C817.79 599.737 818.994 599.767 820.163 600.276C821.342 600.767 822.143 601.595 822.568 602.763C822.988 603.916 822.907 605.066 822.324 606.213C821.751 607.341 820.845 608.13 819.607 608.581ZM845.266 604.514L847.443 610.494L828.585 617.358L826.408 611.378L845.266 604.514ZM828.203 601.824L835.935 599.01L847.143 629.807C847.522 630.846 847.969 631.586 848.484 632.028C849.008 632.45 849.57 632.664 850.169 632.672C850.769 632.679 851.389 632.567 852.03 632.333C852.514 632.157 852.942 631.961 853.315 631.745C853.702 631.523 853.992 631.345 854.185 631.21L857.687 636.78C857.326 637.073 856.792 637.445 856.086 637.895C855.393 638.341 854.504 638.777 853.418 639.205C851.502 639.966 849.652 640.309 847.867 640.234C846.077 640.143 844.477 639.581 843.068 638.546C841.674 637.505 840.611 635.957 839.879 633.902L828.203 601.824ZM863.903 597.731L866.079 603.711L847.221 610.575L845.045 604.595L863.903 597.731ZM846.84 595.041L854.571 592.227L865.78 623.024C866.158 624.063 866.605 624.803 867.12 625.245C867.645 625.666 868.207 625.881 868.806 625.889C869.405 625.896 870.025 625.783 870.666 625.55C871.15 625.374 871.579 625.178 871.951 624.962C872.338 624.74 872.628 624.562 872.821 624.427L876.324 629.997C875.962 630.29 875.429 630.661 874.722 631.112C874.03 631.558 873.14 631.994 872.054 632.422C870.139 633.183 868.288 633.526 866.503 633.45C864.713 633.36 863.114 632.798 861.705 631.763C860.31 630.722 859.247 629.174 858.515 627.119L846.84 595.041ZM892.501 625.197C889.212 626.394 886.123 626.745 883.234 626.248C880.354 625.733 877.814 624.448 875.615 622.394C873.412 620.327 871.685 617.577 870.436 614.146C869.208 610.771 868.771 607.577 869.125 604.562C869.488 601.527 870.57 598.876 872.373 596.607C874.17 594.325 876.635 592.613 879.767 591.473C881.789 590.737 883.816 590.37 885.849 590.372C887.89 590.355 889.847 590.771 891.721 591.621C893.608 592.466 895.332 593.79 896.891 595.592C898.445 597.381 899.745 599.713 900.792 602.589L901.655 604.96L874.767 614.746L872.87 609.535L892.347 602.446C891.794 600.971 890.994 599.77 889.948 598.845C888.897 597.905 887.687 597.306 886.318 597.046C884.964 596.781 883.547 596.918 882.066 597.457C880.486 598.032 879.238 598.922 878.321 600.126C877.4 601.316 876.83 602.652 876.612 604.134C876.403 605.597 876.558 607.064 877.077 608.536L878.733 613.085C879.427 614.993 880.372 616.503 881.567 617.616C882.757 618.715 884.111 619.399 885.628 619.669C887.14 619.925 888.736 619.747 890.416 619.136C891.541 618.726 892.502 618.199 893.299 617.554C894.091 616.895 894.708 616.131 895.149 615.261C895.59 614.391 895.813 613.431 895.818 612.381L903.332 610.565C903.571 612.639 903.309 614.621 902.545 616.511C901.791 618.382 900.567 620.069 898.873 621.572C897.174 623.061 895.05 624.27 892.501 625.197ZM909.185 618.399L897.246 585.595L904.742 582.867L906.732 588.334L907.074 588.21C906.982 586.099 907.476 584.266 908.556 582.712C909.644 581.139 911.128 580.011 913.007 579.327C913.434 579.171 913.919 579.019 914.461 578.87C915.013 578.702 915.479 578.588 915.861 578.53L918.449 585.642C918.081 585.647 917.525 585.736 916.782 585.91C916.048 586.064 915.353 586.261 914.698 586.499C913.289 587.012 912.133 587.779 911.231 588.801C910.338 589.803 909.766 590.955 909.514 592.256C909.262 593.557 909.39 594.905 909.897 596.3L916.917 615.585L909.185 618.399Z" fill="black"/>
<rect x="447.104" y="261.905" width="443" height="142" rx="71" transform="rotate(-20 447.104 261.905)" fill="#44403D"/>
<rect x="443.961" y="251.077" width="441.5" height="140.5" rx="70.25" transform="rotate(-20 443.961 251.077)" fill="#CCA3FF" stroke="black" stroke-width="1.5"/>
<path d="M579.769 300.882L563.85 257.143L571.773 254.259L585.275 291.356L604.539 284.344L606.956 290.986L579.769 300.882ZM609.281 290.14L597.342 257.336L605.073 254.522L617.012 287.326L609.281 290.14ZM599.534 251.266C598.31 251.711 597.108 251.689 595.93 251.199C594.747 250.694 593.945 249.865 593.526 248.712C593.101 247.545 593.182 246.394 593.769 245.262C594.351 244.115 595.255 243.318 596.479 242.872C597.718 242.422 598.922 242.451 600.091 242.961C601.269 243.451 602.07 244.28 602.495 245.447C602.915 246.601 602.834 247.751 602.252 248.898C601.679 250.026 600.773 250.815 599.534 251.266ZM621.488 263.93L628.484 283.151L620.753 285.965L608.813 253.161L616.202 250.471L618.231 256.045L618.616 255.906C618.702 253.794 619.374 251.897 620.631 250.214C621.903 248.525 623.764 247.236 626.213 246.344C628.477 245.52 630.625 245.287 632.657 245.643C634.704 245.995 636.524 246.92 638.118 248.42C639.726 249.915 641 251.975 641.939 254.6L649.541 275.486L641.81 278.3L634.643 258.61C633.845 256.417 632.651 254.909 631.062 254.084C629.486 253.255 627.701 253.203 625.708 253.929C624.356 254.421 623.261 255.158 622.425 256.139C621.598 257.101 621.088 258.247 620.894 259.575C620.715 260.898 620.913 262.349 621.488 263.93ZM656.492 261.299L653.074 251.974L654.312 251.523L661.305 234.055L670.339 230.767L661.714 252.191L660.113 252.774L656.492 261.299ZM653.191 274.158L637.271 230.42L645.002 227.606L660.922 271.344L653.191 274.158ZM673.779 266.665L657.667 255.623L660.896 248.281L683.026 263.299L673.779 266.665ZM696.626 259.075C693.337 260.272 690.248 260.622 687.358 260.126C684.478 259.61 681.939 258.326 679.74 256.272C677.536 254.204 675.81 251.454 674.561 248.023C673.333 244.649 672.896 241.454 673.249 238.439C673.612 235.405 674.695 232.753 676.497 230.485C678.295 228.202 680.76 226.491 683.892 225.351C685.914 224.615 687.941 224.248 689.973 224.25C692.014 224.232 693.972 224.649 695.845 225.499C697.733 226.343 699.456 227.667 701.015 229.47C702.569 231.258 703.869 233.591 704.916 236.467L705.779 238.837L678.891 248.624L676.994 243.413L696.472 236.324C695.919 234.848 695.119 233.648 694.073 232.722C693.021 231.783 691.811 231.183 690.443 230.923C689.089 230.658 687.671 230.795 686.191 231.334C684.61 231.91 683.362 232.799 682.446 234.003C681.525 235.193 680.955 236.529 680.736 238.012C680.527 239.474 680.682 240.942 681.202 242.413L682.858 246.962C683.552 248.87 684.497 250.381 685.692 251.494C686.882 252.592 688.235 253.277 689.753 253.547C691.265 253.803 692.861 253.625 694.541 253.013C695.665 252.604 696.626 252.077 697.424 251.432C698.216 250.773 698.832 250.008 699.273 249.138C699.715 248.268 699.938 247.308 699.943 246.258L707.456 244.443C707.695 246.516 707.433 248.498 706.67 250.388C705.916 252.259 704.692 253.946 702.998 255.45C701.298 256.939 699.175 258.147 696.626 259.075ZM725.693 248.423C723.116 249.36 720.569 249.538 718.051 248.955C715.533 248.372 713.224 247.035 711.125 244.945C709.026 242.855 707.321 240.009 706.01 236.407C704.684 232.762 704.162 229.469 704.446 226.528C704.739 223.568 705.678 221.073 707.261 219.046C708.84 217.004 710.889 215.524 713.41 214.607C715.332 213.908 717.031 213.66 718.508 213.864C719.98 214.054 721.245 214.472 722.303 215.119C723.355 215.752 724.226 216.394 724.915 217.046L725.235 216.93L719.281 200.571L727.034 197.749L742.953 241.487L735.35 244.255L733.469 239.086L732.999 239.257C732.891 240.2 732.622 241.257 732.194 242.428C731.761 243.586 731.039 244.703 730.028 245.78C729.018 246.858 727.573 247.738 725.693 248.423ZM725.542 241.294C727.179 240.699 728.414 239.749 729.246 238.447C730.072 237.13 730.494 235.566 730.512 233.753C730.53 231.941 730.152 229.974 729.38 227.853C728.608 225.731 727.638 223.996 726.47 222.648C725.316 221.294 724.005 220.393 722.535 219.944C721.08 219.49 719.52 219.566 717.854 220.173C716.131 220.8 714.856 221.772 714.03 223.088C713.203 224.405 712.785 225.96 712.777 227.753C712.768 229.546 713.134 231.46 713.875 233.496C714.622 235.546 715.579 237.27 716.749 238.666C717.927 240.043 719.261 240.984 720.751 241.49C722.251 241.976 723.847 241.911 725.542 241.294ZM746.982 240.021L735.042 207.217L742.773 204.403L754.713 237.207L746.982 240.021ZM737.234 201.147C736.01 201.593 734.809 201.57 733.63 201.08C732.447 200.575 731.646 199.747 731.226 198.593C730.801 197.426 730.882 196.276 731.469 195.143C732.052 193.996 732.955 193.199 734.179 192.754C735.418 192.303 736.622 192.332 737.791 192.842C738.969 193.332 739.771 194.161 740.196 195.329C740.615 196.482 740.534 197.632 739.952 198.779C739.379 199.907 738.473 200.696 737.234 201.147ZM759.188 213.811L766.184 233.032L758.453 235.846L746.513 203.042L753.903 200.353L755.931 205.927L756.316 205.787C756.402 203.675 757.074 201.778 758.332 200.095C759.604 198.407 761.464 197.117 763.913 196.225C766.177 195.401 768.325 195.168 770.357 195.525C772.404 195.876 774.224 196.802 775.818 198.302C777.426 199.796 778.7 201.856 779.639 204.481L787.242 225.368L779.511 228.182L772.344 208.491C771.546 206.298 770.352 204.79 768.762 203.966C767.186 203.136 765.402 203.084 763.408 203.81C762.056 204.302 760.962 205.039 760.126 206.021C759.299 206.983 758.788 208.128 758.595 209.456C758.415 210.779 758.613 212.231 759.188 213.811Z" fill="black"/>
</svg>
